<svg width="99" height="91" viewBox="0 0 99 91" fill="none" xmlns="http://www.w3.org/2000/svg">
<g clip-path="url(#clip0_12_77)">
<path d="M58.6459 1.95511L66.8375 9.4721C67.3841 9.97376 68.1414 10.1766 68.8655 10.0154L79.7179 7.60129C82.0185 7.08948 84.3284 8.42313 85.0356 10.6715L88.3712 21.2769C88.5937 21.9845 89.1481 22.5389 89.8559 22.7616L100.461 26.0973C102.71 26.8045 104.043 29.1141 103.532 31.4149L101.117 42.2673C100.956 42.9915 101.159 43.7487 101.661 44.2954L109.178 52.4869C110.771 54.2234 110.771 56.8905 109.178 58.627L101.661 66.8186C101.159 67.3652 100.956 68.1224 101.117 68.8466L103.532 79.699C104.043 81.9996 102.71 84.3094 100.461 85.0166L89.8559 88.3523C89.1483 88.5748 88.5939 89.1292 88.3712 89.837L85.0356 98.2371C84.3284 100.485 82.0188 101.819 79.7179 101.307L68.8655 98.8932C68.1414 98.732 67.3841 98.935 66.8375 99.4365L58.6459 106.953C56.9094 108.547 54.2423 108.547 52.5058 106.953L46.0784 99.4365C45.5317 98.9348 44.7745 98.732 44.0503 98.8932L33.1979 101.307C30.8973 101.819 28.5875 100.485 27.8803 98.2371L24.5446 87.6317C24.3221 86.924 23.7678 86.3697 23.0599 86.147L12.4545 82.8113C10.2061 82.1041 8.87272 79.7945 9.3843 77.4937L12.46 68.8464C12.6212 68.1222 12.4181 67.365 11.9166 66.8183L4.39966 58.6268C2.80603 56.8903 2.80603 54.2232 4.39966 52.4867L9.49103 44.2951C9.99269 43.7485 10.1956 42.9913 10.0344 42.2671L7.62022 31.4147C7.10841 29.1141 8.44206 26.8042 10.6904 26.0971L21.2959 22.7614C22.0035 22.5389 22.5578 21.9845 22.7805 21.2767L26.1162 10.6712C26.8234 8.42291 29.133 7.08948 31.4338 7.60107L42.2863 10.0152C43.0104 10.1764 43.7677 9.97332 44.3143 9.47188L52.5058 1.95511C54.2423 0.36148 56.9094 0.36148 58.6459 1.95511Z" fill="#9DCEB1"/>
<path d="M88.9342 88.9082C88.6784 89.1662 88.4822 89.4837 88.3697 89.8387L85.0356 100.443C84.3278 102.692 82.019 104.026 79.7169 103.513L68.8656 101.1C68.1401 100.939 67.3837 101.142 66.8369 101.643L58.6449 109.16C56.9095 110.754 54.2413 110.754 52.5059 109.16L44.3139 101.643C43.767 101.142 43.0107 100.939 42.2852 101.1L31.4339 103.513C29.1317 104.026 26.823 102.692 26.1152 100.443L22.781 89.8387C22.5583 89.1309 22.0026 88.5752 21.2948 88.3525L10.6904 85.0184C8.44122 84.3105 7.10713 82.0018 7.62092 79.6997L10.0333 68.8483C10.1943 68.1228 9.99141 67.3665 9.49085 66.8196L1.97364 58.6277C0.379351 56.8922 0.379351 54.2241 1.97364 52.4886L9.49085 44.2967C9.70916 44.0563 9.87234 43.7785 9.97377 43.4786C14.384 71.4481 38.5961 92.8377 67.8071 92.8377C75.256 92.8377 82.3807 91.4463 88.9342 88.9082Z" fill="#9FBEAC"/>
<path d="M38.0894 54.0155C32.3436 54.0155 28.5834 42.4425 28.5834 42.4425C28.5834 42.4425 32.3436 30.8696 38.0894 30.8696C43.8352 30.8696 48.5099 36.0613 48.5099 42.4425C48.5099 48.8236 43.8352 54.0155 38.0894 54.0155ZM38.0894 37.4849C36.0267 37.4849 34.2843 39.7553 34.2843 42.4425C34.2843 45.1296 36.0267 47.4 38.0894 47.4C40.1521 47.4 41.8945 45.1296 41.8945 42.4425C41.8945 39.7553 40.1521 37.4849 38.0894 37.4849Z" fill="#F5FCFF"/>
<path d="M73.0602 80.2417C67.3144 80.2417 63.5458 68.6686 63.5458 68.6686C63.5458 68.6686 67.3144 57.0956 73.0602 57.0956C78.806 57.0956 83.4804 62.2873 83.4804 68.6686C83.4804 75.05 78.806 80.2417 73.0602 80.2417ZM73.0602 63.7109C70.9975 63.7109 69.2551 65.9813 69.2551 68.6686C69.2551 71.356 70.9975 73.6262 73.0602 73.6262C75.1229 73.6262 76.8651 71.3558 76.8651 68.6686C76.8651 65.9813 75.1229 63.7109 73.0602 63.7109Z" fill="#F5FCFF"/>
<path d="M39.5206 53.9069C39.0531 53.9796 38.5746 54.0171 38.0873 54.0171C32.343 54.0171 27.6682 48.8241 27.6682 42.4447C27.6682 36.0631 32.343 30.8701 38.0873 30.8701C38.5746 30.8701 39.0531 30.9076 39.5206 30.9804C34.4511 31.7588 30.5348 36.6034 30.5348 42.4447C30.5348 48.2838 34.4511 53.1285 39.5206 53.9069Z" fill="#E0F5FC"/>
<path d="M65.5062 68.6665C65.5062 62.8273 69.4225 57.9805 74.4942 57.2043C74.0267 57.1315 73.546 57.0941 73.0609 57.0941C67.3144 57.0941 62.6396 62.2871 62.6396 68.6665C62.6396 75.048 67.3144 80.2411 73.0609 80.2411C73.546 80.2411 74.0267 80.2036 74.4942 80.1308C69.4225 79.3546 65.5062 74.5078 65.5062 68.6665Z" fill="#E0F5FC"/>
<path d="M46.504 80.6813C46.0773 80.6813 45.6436 80.5982 45.2255 80.4226C43.541 79.7157 44.0716 77.8702 44.7783 76.186L62.8697 32.3842C63.5766 30.7001 64.7579 29.1596 66.443 29.8666C68.1275 30.5735 68.9198 32.5121 68.2129 34.1965L49.5554 78.6528C49.024 79.9192 47.7964 80.6813 46.504 80.6813Z" fill="#F5FCFF"/>
<path d="M66.725 30.0037C66.0458 30.3631 65.4835 30.9541 65.1638 31.7236L45.9595 78.0992C45.6133 78.9372 45.6155 79.8347 45.9044 80.6241C45.6751 80.5844 45.4479 80.516 45.2252 80.4234C43.5405 79.7156 42.7489 77.7773 43.4545 76.0926L62.1119 31.6354C62.8198 29.9529 64.758 29.1591 66.4427 29.8669C66.5398 29.9088 66.6344 29.9529 66.725 30.0037Z" fill="#E0F5FC"/>
</g>
<defs>
<clipPath id="clip0_12_77">
<rect width="109.594" height="109.594" fill="white" transform="translate(0.776062 0.757996)"/>
</clipPath>
</defs>
</svg>
