<svg width="527" height="215" viewBox="0 0 527 215" fill="none" xmlns="http://www.w3.org/2000/svg">
<path fill-rule="evenodd" clip-rule="evenodd" d="M527 183V0H0V183H241.6L255.3 202.6C259 207.9 260.9 210.6 263.5 210.6C266.1 210.6 268 207.9 271.7 202.6L285.4 183H527Z" fill="url(#paint0_linear_1137_3630)"/>
<path d="M241.6 183L244.9 180.7L243.7 179H241.6V183ZM285.4 183V179H283.3L282.1 180.7L285.4 183ZM241.6 179H0V187H241.6V179ZM258.6 200.3L244.9 180.7L238.3 185.3L252 204.9L258.6 200.3ZM263.5 206.6C263.8 206.6 263.7 206.9 262.7 205.9C261.7 204.8 260.5 203.1 258.5 200.3L251.9 204.9C253.7 207.5 255.3 209.8 256.8 211.4C258.4 213.1 260.5 214.7 263.4 214.7V206.6H263.5ZM268.4 200.3C266.5 203.1 265.3 204.8 264.2 205.9C263.3 206.9 263.1 206.6 263.4 206.6V214.6C266.3 214.6 268.4 213 270 211.3C271.5 209.7 273.1 207.4 274.9 204.8L268.4 200.3ZM282.1 180.7L268.4 200.3L275 204.9L288.7 185.3L282.1 180.7ZM527 179H285.4V187H527V179Z" fill="#65FFAE"/>
<path d="M158.006 93.4008V91.1008L163.406 85.6008C164.606 84.3008 165.206 83.3008 165.206 82.5008C165.206 81.9008 165.006 81.4008 164.606 81.0008C164.206 80.6008 163.706 80.4008 163.106 80.4008C161.906 80.4008 161.006 81.0008 160.506 82.2008L157.906 80.7008C158.406 79.6008 159.106 78.8008 160.006 78.2008C160.906 77.6008 162.006 77.3008 163.106 77.3008C164.506 77.3008 165.706 77.7008 166.806 78.6008C167.806 79.5008 168.306 80.7008 168.306 82.2008C168.306 83.8008 167.406 85.5008 165.706 87.2008L162.606 90.3008H168.506V93.3008H158.006V93.4008ZM176.206 93.7008C174.206 93.7008 172.706 93.0008 171.606 91.5008C170.506 90.0008 169.906 88.0008 169.906 85.5008C169.906 83.0008 170.506 81.0008 171.606 79.6008C172.706 78.1008 174.306 77.4008 176.206 77.4008C178.206 77.4008 179.706 78.2008 180.806 79.6008C181.906 81.1008 182.506 83.1008 182.506 85.5008C182.506 88.0008 181.906 90.0008 180.806 91.5008C179.706 93.0008 178.206 93.7008 176.206 93.7008ZM173.806 89.4008C174.306 90.3008 175.106 90.7008 176.206 90.7008C177.206 90.7008 178.006 90.3008 178.606 89.4008C179.206 88.5008 179.406 87.2008 179.406 85.6008C179.406 83.9008 179.106 82.6008 178.606 81.8008C178.106 80.9008 177.306 80.5008 176.206 80.5008C175.106 80.5008 174.406 80.9008 173.806 81.8008C173.206 82.7008 173.006 84.0008 173.006 85.6008C173.006 87.2008 173.306 88.5008 173.806 89.4008ZM187.306 77.7008H190.006V93.5008H186.906V81.0008L183.906 81.8008L183.106 79.1008L187.306 77.7008ZM199.506 84.0008C200.606 84.3008 201.406 84.9008 202.106 85.7008C202.806 86.5008 203.106 87.4008 203.106 88.5008C203.106 90.1008 202.606 91.4008 201.506 92.3008C200.406 93.2008 199.106 93.7008 197.506 93.7008C196.306 93.7008 195.206 93.4008 194.206 92.9008C193.206 92.3008 192.506 91.5008 192.106 90.4008L194.806 88.9008C195.206 90.1008 196.106 90.7008 197.506 90.7008C198.306 90.7008 198.906 90.5008 199.306 90.1008C199.706 89.7008 200.006 89.2008 200.006 88.5008C200.006 87.9008 199.806 87.3008 199.306 86.9008C198.906 86.5008 198.206 86.3008 197.506 86.3008H196.806L195.606 84.5008L198.706 80.4008H192.506V77.5008H202.406V80.1008L199.506 84.0008Z" fill="black"/>
<path d="M122.1 118.702H127.3V119.802H121V108.502H122.1V118.702ZM135.3 111.702H136.4V119.802H135.3V118.202C134.6 119.402 133.5 120.002 132 120.002C130.8 120.002 129.9 119.602 129 118.802C128.2 118.002 127.8 117.002 127.8 115.802C127.8 114.602 128.2 113.602 129 112.802C129.8 112.002 130.8 111.602 132 111.602C133.4 111.602 134.5 112.202 135.3 113.402V111.702ZM129.9 118.002C130.5 118.602 131.3 118.902 132.2 118.902C133.1 118.902 133.9 118.602 134.5 118.002C135.1 117.402 135.4 116.602 135.4 115.702C135.4 114.802 135.1 114.002 134.5 113.402C133.9 112.802 133.1 112.502 132.2 112.502C131.3 112.502 130.5 112.802 129.9 113.402C129.3 114.002 129 114.802 129 115.702C129 116.602 129.3 117.402 129.9 118.002ZM144.4 111.702H145.5V119.802H144.4V118.502C143.8 119.502 142.9 120.002 141.7 120.002C140.7 120.002 139.9 119.702 139.4 119.102C138.8 118.502 138.6 117.702 138.6 116.702V111.702H139.7V116.702C139.7 117.402 139.9 118.002 140.3 118.402C140.7 118.802 141.2 119.002 141.9 119.002C142.7 119.002 143.3 118.802 143.8 118.302C144.3 117.802 144.5 117.002 144.5 116.002V111.702H144.4ZM151.5 111.502C152.5 111.502 153.3 111.802 153.8 112.402C154.4 113.002 154.7 113.802 154.7 114.802V119.802H153.6V114.802C153.6 114.102 153.4 113.502 153 113.102C152.6 112.702 152.1 112.502 151.4 112.502C150.6 112.502 150 112.702 149.5 113.202C149 113.702 148.8 114.402 148.8 115.502V119.702H147.7V111.602H148.8V112.902C149.4 112.002 150.3 111.502 151.5 111.502ZM160.5 120.002C159.3 120.002 158.3 119.602 157.5 118.802C156.7 118.002 156.3 117.002 156.3 115.802C156.3 114.602 156.7 113.602 157.5 112.802C158.3 112.002 159.3 111.602 160.5 111.602C161.3 111.602 162 111.802 162.7 112.202C163.3 112.602 163.8 113.102 164.1 113.702L163.2 114.202C163 113.702 162.6 113.302 162.1 113.102C161.6 112.802 161.1 112.702 160.5 112.702C159.6 112.702 158.8 113.002 158.2 113.602C157.6 114.202 157.3 115.002 157.3 115.902C157.3 116.802 157.6 117.602 158.2 118.202C158.8 118.802 159.6 119.102 160.5 119.102C161.1 119.102 161.6 119.002 162.1 118.702C162.6 118.402 162.9 118.002 163.2 117.502L164.1 118.002C163.8 118.602 163.3 119.202 162.6 119.502C162 119.802 161.3 120.002 160.5 120.002ZM169.5 111.502C170.5 111.502 171.3 111.802 171.8 112.402C172.4 113.002 172.7 113.802 172.7 114.802V119.802H171.6V114.802C171.6 114.102 171.4 113.502 171 113.102C170.6 112.702 170.1 112.502 169.4 112.502C168.6 112.502 168 112.702 167.5 113.202C167 113.702 166.8 114.402 166.8 115.502V119.702H165.7V108.402H166.8V112.902C167.3 112.002 168.3 111.502 169.5 111.502ZM178.4 111.502C179.6 111.502 180.6 111.902 181.3 112.802C182 113.602 182.4 114.602 182.4 115.802C182.4 115.902 182.4 116.102 182.4 116.302H175.3C175.4 117.102 175.8 117.802 176.3 118.302C176.9 118.802 177.6 119.002 178.5 119.002C179.1 119.002 179.6 118.902 180.1 118.602C180.6 118.302 180.9 118.002 181.1 117.602L182 118.202C181.6 118.802 181.2 119.202 180.5 119.602C179.9 119.902 179.2 120.102 178.4 120.102C177.1 120.102 176.1 119.702 175.3 118.902C174.5 118.102 174.1 117.102 174.1 115.902C174.1 114.702 174.5 113.702 175.3 112.902C176.2 111.902 177.2 111.502 178.4 111.502ZM178.4 112.502C177.6 112.502 176.9 112.802 176.3 113.302C175.7 113.802 175.4 114.402 175.3 115.202H181.3C181.2 114.302 180.9 113.702 180.3 113.202C179.8 112.802 179.2 112.502 178.4 112.502ZM191.1 108.502H192.2V119.802H191.1V118.202C190.4 119.402 189.3 120.002 187.8 120.002C186.6 120.002 185.7 119.602 184.8 118.802C184 118.002 183.6 117.002 183.6 115.802C183.6 114.602 184 113.602 184.8 112.802C185.6 112.002 186.6 111.602 187.8 111.602C189.2 111.602 190.3 112.202 191.1 113.402V108.502ZM185.7 118.002C186.3 118.602 187.1 118.902 188 118.902C188.9 118.902 189.7 118.602 190.3 118.002C190.9 117.402 191.2 116.602 191.2 115.702C191.2 114.802 190.9 114.002 190.3 113.402C189.7 112.802 188.9 112.502 188 112.502C187.1 112.502 186.3 112.802 185.7 113.402C185.1 114.002 184.8 114.802 184.8 115.702C184.8 116.602 185.1 117.402 185.7 118.002ZM205.8 108.502V109.602H202.3V119.802H201.2V109.502H197.7V108.402H205.8V108.502ZM211.1 111.502C212.1 111.502 212.9 111.802 213.4 112.402C214 113.002 214.3 113.802 214.3 114.802V119.802H213.2V114.802C213.2 114.102 213 113.502 212.6 113.102C212.2 112.702 211.7 112.502 211 112.502C210.2 112.502 209.6 112.702 209.1 113.202C208.6 113.702 208.4 114.402 208.4 115.502V119.702H207.3V108.402H208.4V112.902C208.9 112.002 209.8 111.502 211.1 111.502ZM220 111.502C221.2 111.502 222.2 111.902 222.9 112.802C223.6 113.602 224 114.602 224 115.802C224 115.902 224 116.102 224 116.302H216.9C217 117.102 217.4 117.802 217.9 118.302C218.5 118.802 219.2 119.002 220.1 119.002C220.7 119.002 221.2 118.902 221.7 118.602C222.2 118.302 222.5 118.002 222.7 117.602L223.6 118.202C223.2 118.802 222.8 119.202 222.1 119.602C221.5 119.902 220.8 120.102 220 120.102C218.7 120.102 217.7 119.702 216.9 118.902C216.1 118.102 215.7 117.102 215.7 115.902C215.7 114.702 216.1 113.702 216.9 112.902C217.8 111.902 218.8 111.502 220 111.502ZM220 112.502C219.2 112.502 218.5 112.802 217.9 113.302C217.3 113.802 217 114.402 216.9 115.202H222.9C222.8 114.302 222.5 113.702 221.9 113.202C221.4 112.802 220.8 112.502 220 112.502ZM231.9 108.502H232.9V119.802H231.8V109.702L229.3 110.502L229 109.502L231.9 108.502ZM236.2 113.802C236.2 114.202 236.4 114.502 236.7 114.702C237 114.902 237.4 115.102 237.9 115.202C238.4 115.302 238.8 115.502 239.3 115.602C239.8 115.702 240.2 116.002 240.5 116.302C240.8 116.602 241 117.102 241 117.602C241 118.302 240.7 118.902 240.2 119.302C239.7 119.702 239 119.902 238.1 119.902C237.3 119.902 236.7 119.702 236.1 119.402C235.6 119.102 235.2 118.602 235 118.102L235.9 117.602C236.1 118.002 236.3 118.402 236.7 118.602C237.1 118.802 237.6 119.002 238.1 119.002C238.6 119.002 239.1 118.902 239.4 118.702C239.8 118.502 239.9 118.202 239.9 117.702C239.9 117.302 239.7 117.002 239.4 116.802C239.1 116.602 238.7 116.402 238.2 116.302C237.7 116.202 237.3 116.102 236.8 115.902C236.3 115.702 235.9 115.502 235.6 115.202C235.3 114.902 235.1 114.402 235.1 113.902C235.1 113.202 235.4 112.702 235.9 112.202C236.4 111.802 237.1 111.502 237.9 111.502C238.6 111.502 239.1 111.702 239.6 112.002C240.1 112.302 240.5 112.702 240.7 113.202L239.8 113.702C239.5 112.902 238.8 112.602 237.9 112.602C237.4 112.602 237 112.702 236.7 112.902C236.3 113.102 236.2 113.402 236.2 113.802ZM246.6 112.702H244.3V117.602C244.3 118.002 244.4 118.402 244.6 118.602C244.8 118.802 245 118.902 245.4 118.902C245.7 118.902 246.2 118.902 246.7 118.902V119.802C245.6 120.002 244.7 119.902 244.1 119.602C243.5 119.302 243.3 118.602 243.3 117.702V112.802H241.6V111.802H243.3V109.802L244.4 109.502V111.802H246.7V112.702H246.6ZM130.7 128.502H125.4V132.702H130.4V133.802H125.4V138.802H124.3V127.502H130.7V128.502ZM133.5 132.002C134 131.002 134.8 130.502 136.1 130.502V131.502C135.4 131.502 134.8 131.702 134.3 132.102C133.8 132.502 133.6 133.202 133.6 134.102V138.602H132.5V130.502H133.6V132.002H133.5ZM144 130.702H145.1V138.802H144V137.202C143.3 138.402 142.2 139.002 140.7 139.002C139.5 139.002 138.6 138.602 137.7 137.802C136.9 137.002 136.5 136.002 136.5 134.802C136.5 133.602 136.9 132.602 137.7 131.802C138.5 131.002 139.5 130.602 140.7 130.602C142.1 130.602 143.2 131.202 144 132.402V130.702ZM138.6 137.002C139.2 137.602 140 137.902 140.9 137.902C141.8 137.902 142.6 137.602 143.2 137.002C143.8 136.402 144.1 135.602 144.1 134.702C144.1 133.802 143.8 133.002 143.2 132.402C142.6 131.802 141.8 131.502 140.9 131.502C140 131.502 139.2 131.802 138.6 132.402C138 133.002 137.7 133.802 137.7 134.702C137.6 135.602 137.9 136.402 138.6 137.002ZM151.1 130.502C152.1 130.502 152.9 130.802 153.4 131.402C154 132.002 154.3 132.802 154.3 133.802V138.802H153.2V133.802C153.2 133.102 153 132.502 152.6 132.102C152.2 131.702 151.7 131.502 151 131.502C150.2 131.502 149.6 131.702 149.1 132.202C148.6 132.702 148.4 133.402 148.4 134.502V138.702H147.3V130.602H148.4V131.902C149 131.002 149.9 130.502 151.1 130.502ZM160.2 139.002C159 139.002 158 138.602 157.2 137.802C156.4 137.002 156 136.002 156 134.802C156 133.602 156.4 132.602 157.2 131.802C158 131.002 159 130.602 160.2 130.602C161 130.602 161.7 130.802 162.4 131.202C163 131.602 163.5 132.102 163.8 132.702L162.9 133.202C162.7 132.702 162.3 132.302 161.8 132.102C161.3 131.802 160.8 131.702 160.2 131.702C159.3 131.702 158.5 132.002 157.9 132.602C157.3 133.202 157 134.002 157 134.902C157 135.802 157.3 136.602 157.9 137.202C158.5 137.802 159.3 138.102 160.2 138.102C160.8 138.102 161.3 138.002 161.8 137.702C162.3 137.402 162.6 137.002 162.9 136.502L163.8 137.002C163.5 137.602 163 138.202 162.3 138.502C161.7 138.802 160.9 139.002 160.2 139.002ZM169.1 130.502C170.1 130.502 170.9 130.802 171.4 131.402C172 132.002 172.3 132.802 172.3 133.802V138.802H171.2V133.802C171.2 133.102 171 132.502 170.6 132.102C170.2 131.702 169.7 131.502 169 131.502C168.2 131.502 167.6 131.702 167.1 132.202C166.6 132.702 166.4 133.402 166.4 134.502V138.702H165.3V127.402H166.4V131.902C167 131.002 167.9 130.502 169.1 130.502ZM175.4 128.802C175.2 129.002 175.1 129.002 174.8 129.002C174.6 129.002 174.4 128.902 174.2 128.802C174 128.602 174 128.502 174 128.202C174 127.902 174.1 127.802 174.2 127.602C174.4 127.402 174.5 127.402 174.8 127.402C175 127.402 175.2 127.502 175.4 127.602C175.6 127.702 175.6 127.902 175.6 128.202C175.6 128.502 175.6 128.602 175.4 128.802ZM174.4 138.802V130.702H175.5V138.802H174.4ZM178.5 132.802C178.5 133.202 178.7 133.502 179 133.702C179.3 133.902 179.7 134.102 180.2 134.202C180.7 134.302 181.1 134.502 181.6 134.602C182.1 134.702 182.5 135.002 182.8 135.302C183.1 135.602 183.3 136.102 183.3 136.602C183.3 137.302 183 137.902 182.5 138.302C182 138.702 181.3 138.902 180.4 138.902C179.6 138.902 179 138.702 178.4 138.402C177.9 138.102 177.5 137.602 177.3 137.102L178.2 136.602C178.4 137.002 178.6 137.402 179 137.602C179.4 137.802 179.9 138.002 180.4 138.002C180.9 138.002 181.4 137.902 181.7 137.702C182.1 137.502 182.2 137.202 182.2 136.702C182.2 136.302 182 136.002 181.7 135.802C181.4 135.602 181 135.402 180.5 135.302C180 135.202 179.6 135.102 179.1 134.902C178.6 134.702 178.2 134.502 177.9 134.202C177.6 133.902 177.4 133.402 177.4 132.902C177.4 132.202 177.7 131.702 178.2 131.202C178.7 130.802 179.4 130.502 180.2 130.502C180.9 130.502 181.4 130.702 181.9 131.002C182.4 131.302 182.8 131.702 183 132.202L182.1 132.702C181.8 131.902 181.1 131.602 180.2 131.602C179.7 131.602 179.3 131.702 179 131.902C178.7 132.102 178.5 132.402 178.5 132.802ZM188.5 130.502C189.7 130.502 190.7 130.902 191.4 131.802C192.1 132.602 192.5 133.602 192.5 134.802C192.5 134.902 192.5 135.102 192.5 135.302H185.4C185.5 136.102 185.9 136.802 186.4 137.302C187 137.802 187.7 138.002 188.6 138.002C189.2 138.002 189.7 137.902 190.2 137.602C190.7 137.302 191 137.002 191.2 136.602L192.1 137.202C191.7 137.802 191.3 138.202 190.6 138.602C190 138.902 189.3 139.102 188.5 139.102C187.2 139.102 186.2 138.702 185.4 137.902C184.6 137.102 184.2 136.102 184.2 134.902C184.2 133.702 184.6 132.702 185.4 131.902C186.3 130.902 187.3 130.502 188.5 130.502ZM188.5 131.502C187.7 131.502 186.9 131.802 186.4 132.302C185.8 132.802 185.5 133.402 185.4 134.202H191.4C191.3 133.302 191 132.702 190.4 132.202C189.9 131.802 189.3 131.502 188.5 131.502ZM207.9 137.302C206.8 138.402 205.4 139.002 203.7 139.002C202 139.002 200.7 138.402 199.5 137.302C198.4 136.202 197.8 134.802 197.8 133.102C197.8 131.502 198.4 130.102 199.5 129.002C200.6 127.902 202 127.302 203.7 127.302C205.4 127.302 206.7 127.902 207.9 129.002C209 130.102 209.6 131.502 209.6 133.102C209.6 134.802 209 136.102 207.9 137.302ZM200.3 136.502C201.2 137.402 202.3 137.902 203.7 137.902C205.1 137.902 206.2 137.402 207.1 136.502C208 135.602 208.5 134.402 208.5 133.102C208.5 131.802 208 130.602 207.1 129.702C206.2 128.802 205.1 128.302 203.7 128.302C202.3 128.302 201.2 128.802 200.3 129.702C199.4 130.602 198.9 131.702 198.9 133.102C199 134.502 199.4 135.602 200.3 136.502ZM217.1 130.702H218.2V138.802H217.1V137.502C216.5 138.502 215.6 139.002 214.4 139.002C213.4 139.002 212.6 138.702 212.1 138.102C211.5 137.502 211.3 136.702 211.3 135.702V130.702H212.4V135.702C212.4 136.402 212.6 137.002 213 137.402C213.4 137.802 213.9 138.002 214.6 138.002C215.4 138.002 216 137.802 216.5 137.302C217 136.802 217.2 136.002 217.2 135.002V130.702H217.1ZM224.7 131.702H222.4V136.602C222.4 137.002 222.5 137.402 222.7 137.602C222.9 137.802 223.1 137.902 223.5 137.902C223.8 137.902 224.3 137.902 224.8 137.902V138.802C223.7 139.002 222.8 138.902 222.2 138.602C221.6 138.302 221.4 137.602 221.4 136.702V131.802H219.7V130.802H221.4V128.802L222.5 128.502V130.802H224.8V131.702H224.7ZM226.5 138.802V127.002H227.6V138.802H226.5ZM233.6 130.502C234.8 130.502 235.8 130.902 236.5 131.802C237.2 132.602 237.6 133.602 237.6 134.802C237.6 134.902 237.6 135.102 237.6 135.302H230.5C230.6 136.102 231 136.802 231.5 137.302C232.1 137.802 232.8 138.002 233.7 138.002C234.3 138.002 234.8 137.902 235.3 137.602C235.8 137.302 236.1 137.002 236.3 136.602L237.2 137.202C236.8 137.802 236.4 138.202 235.7 138.602C235.1 138.902 234.4 139.102 233.6 139.102C232.3 139.102 231.3 138.702 230.5 137.902C229.7 137.102 229.3 136.102 229.3 134.902C229.3 133.702 229.7 132.702 230.5 131.902C231.3 130.902 232.4 130.502 233.6 130.502ZM233.6 131.502C232.8 131.502 232.1 131.802 231.5 132.302C230.9 132.802 230.6 133.402 230.5 134.202H236.5C236.4 133.302 236.1 132.702 235.5 132.202C235 131.802 234.3 131.502 233.6 131.502ZM243.4 131.702H241.1V136.602C241.1 137.002 241.2 137.402 241.4 137.602C241.6 137.802 241.8 137.902 242.2 137.902C242.5 137.902 243 137.902 243.5 137.902V138.802C242.4 139.002 241.5 138.902 240.9 138.602C240.3 138.302 240.1 137.602 240.1 136.702V131.802H238.4V130.802H240.1V128.802L241.2 128.502V130.802H243.5V131.702H243.4Z" fill="black"/>
<mask id="mask0_1137_3630" style="mask-type:luminance" maskUnits="userSpaceOnUse" x="292" y="47" width="116" height="116">
<path d="M407.302 47H292.102V162.2H407.302V47Z" fill="white"/>
</mask>
<g mask="url(#mask0_1137_3630)">
<path d="M406.902 104.6C406.902 136.2 381.302 161.8 349.802 161.8C318.302 161.8 292.602 136.2 292.602 104.6C292.602 73 318.202 47.5 349.802 47.5C381.402 47.5 406.902 73 406.902 104.6Z" fill="white"/>
<path d="M406.902 104.6C406.902 136.2 381.302 161.8 349.802 161.8C318.302 161.8 292.602 136.2 292.602 104.6C292.602 73 318.202 47.5 349.802 47.5C381.402 47.5 406.902 73 406.902 104.6Z" fill="url(#paint1_linear_1137_3630)"/>
<path d="M406.902 104.6C406.902 136.2 381.302 161.8 349.802 161.8C318.302 161.8 292.602 136.2 292.602 104.6C292.602 73 318.202 47.5 349.802 47.5C381.402 47.5 406.902 73 406.902 104.6Z" stroke="#85FFBE" stroke-width="0.9"/>
<path d="M393.803 108.602L388.203 74.8016C388.203 74.6016 388.103 74.4016 387.903 74.2016C387.803 74.0016 387.603 73.9016 387.403 73.8016C387.203 73.7016 387.003 73.6016 386.703 73.6016C386.403 73.6016 386.203 73.7016 386.003 73.8016L372.203 81.2016C371.903 81.4016 371.603 81.6016 371.503 82.0016C371.403 82.3016 371.403 82.7016 371.503 83.0016L372.503 85.5016C371.203 86.1016 369.703 86.5016 368.303 86.5016C366.803 86.6016 365.403 86.3016 364.003 85.8016C361.703 84.9016 359.203 84.6016 356.703 84.7016C354.203 84.8016 351.803 85.5016 349.503 86.6016C347.303 85.5016 344.803 84.8016 342.303 84.7016C339.803 84.6016 337.303 84.9016 335.003 85.8016C333.603 86.3016 332.203 86.5016 330.703 86.5016C329.203 86.4016 327.803 86.1016 326.503 85.5016L327.503 83.0016C327.603 82.7016 327.603 82.3016 327.503 82.0016C327.403 81.7016 327.103 81.4016 326.803 81.2016L313.003 73.9016C312.803 73.8016 312.603 73.7016 312.303 73.7016C312.103 73.7016 311.803 73.8016 311.603 73.9016C311.403 74.0016 311.203 74.2016 311.103 74.3016C311.003 74.5016 310.903 74.7016 310.803 74.9016L305.203 108.702C305.103 109.002 305.203 109.402 305.403 109.702C305.603 110.002 305.803 110.202 306.203 110.302L313.803 113.002C314.003 113.102 314.103 113.102 314.303 113.102C314.603 113.102 314.903 113.002 315.103 112.902C315.303 112.702 315.503 112.502 315.603 112.202L316.603 109.702L321.003 113.202C321.103 114.602 321.703 115.902 322.703 116.902C323.703 117.902 325.103 118.402 326.503 118.402H326.703C326.703 119.102 326.803 119.902 327.003 120.602C327.303 121.302 327.703 121.902 328.203 122.502C328.703 123.002 329.303 123.502 330.003 123.802C330.703 124.102 331.403 124.202 332.203 124.202H332.403C332.403 124.902 332.503 125.702 332.703 126.402C333.003 127.102 333.403 127.702 333.903 128.302C334.403 128.802 335.003 129.302 335.703 129.602C336.403 129.902 337.103 130.002 337.903 130.002C338.303 130.002 338.703 129.902 339.103 129.902C339.203 130.902 339.503 131.802 340.103 132.502C340.703 133.302 341.403 133.902 342.303 134.302C343.203 134.702 344.103 134.802 345.103 134.802C346.103 134.702 347.003 134.402 347.803 133.802L348.403 134.402C349.103 135.102 350.003 135.602 350.903 135.802C351.803 136.002 352.803 136.002 353.803 135.802C354.703 135.502 355.603 135.002 356.303 134.302C357.003 133.602 357.403 132.702 357.703 131.802C358.503 132.202 359.403 132.402 360.303 132.402C361.203 132.402 362.103 132.102 362.803 131.702C363.603 131.302 364.203 130.702 364.703 129.902C365.203 129.202 365.503 128.302 365.603 127.402C366.003 127.502 366.403 127.502 366.703 127.502C367.403 127.502 368.203 127.402 368.903 127.102C369.603 126.802 370.203 126.402 370.703 125.802C371.203 125.302 371.603 124.602 371.903 123.902C372.203 123.202 372.303 122.502 372.203 121.702H372.403C373.303 121.702 374.203 121.502 375.103 121.002C375.903 120.602 376.603 119.902 377.103 119.102C377.603 118.302 377.903 117.402 377.903 116.502C378.003 115.602 377.803 114.602 377.403 113.802L382.503 111.102L383.003 112.402C383.103 112.702 383.303 112.902 383.503 113.102C383.703 113.302 384.003 113.302 384.303 113.302C384.503 113.302 384.603 113.302 384.803 113.202L392.403 110.502C392.703 110.402 393.003 110.202 393.203 109.902C393.403 109.602 393.903 108.902 393.803 108.602ZM313.803 109.702L308.703 107.902L313.703 77.2016L324.503 83.0016L313.803 109.702ZM325.103 114.602C324.903 114.402 324.703 114.102 324.503 113.802C324.403 113.502 324.303 113.102 324.303 112.802C324.303 112.502 324.403 112.102 324.503 111.802C324.603 111.502 324.803 111.202 325.103 111.002L327.003 109.102C327.503 108.602 328.103 108.302 328.803 108.302C329.303 108.302 329.803 108.502 330.203 108.802C330.603 109.102 330.903 109.502 331.103 110.002C331.303 110.502 331.303 111.002 331.203 111.502C331.103 112.002 330.903 112.502 330.503 112.802L328.603 114.702C328.103 115.202 327.503 115.402 326.803 115.402C326.203 115.302 325.603 115.102 325.103 114.602ZM330.803 120.302C330.303 119.802 330.003 119.202 330.003 118.502C330.003 117.802 330.303 117.202 330.803 116.702L332.703 114.802L335.103 112.402C335.603 111.902 336.203 111.702 336.903 111.602C337.603 111.602 338.203 111.902 338.703 112.402C339.203 112.902 339.503 113.502 339.503 114.202C339.503 114.902 339.203 115.502 338.703 116.002L334.503 120.202C334.003 120.702 333.403 120.902 332.703 120.902C332.003 121.002 331.303 120.802 330.803 120.302ZM336.503 126.002C336.303 125.802 336.103 125.502 335.903 125.202C335.803 124.902 335.703 124.502 335.703 124.202C335.703 123.902 335.803 123.502 335.903 123.202C336.003 122.902 336.203 122.602 336.503 122.402L340.703 118.102C341.203 117.602 341.903 117.302 342.503 117.302C343.003 117.302 343.503 117.502 343.903 117.802C344.303 118.102 344.603 118.502 344.803 119.002C345.003 119.502 345.003 120.002 344.903 120.502C344.803 121.002 344.603 121.502 344.203 121.802L342.403 123.602L340.903 125.102L340.003 126.002C339.803 126.202 339.503 126.402 339.203 126.602C338.903 126.802 338.503 126.802 338.203 126.802C337.903 126.802 337.503 126.702 337.203 126.602C337.103 126.502 336.803 126.302 336.503 126.002ZM343.203 130.802C342.703 130.302 342.403 129.702 342.403 129.002C342.403 128.302 342.703 127.702 343.203 127.202L344.703 125.702C345.203 125.202 345.803 125.002 346.503 125.002C347.203 125.002 347.803 125.302 348.303 125.802C348.803 126.302 349.103 126.902 349.103 127.602C349.103 128.302 348.903 128.902 348.403 129.402L346.903 130.902C346.703 131.102 346.403 131.302 346.103 131.502C345.803 131.602 345.403 131.702 345.103 131.702C344.803 131.702 344.403 131.602 344.103 131.502C343.703 131.302 343.503 131.102 343.203 130.802ZM354.603 132.002C354.403 132.202 354.103 132.402 353.803 132.602C353.503 132.702 353.103 132.802 352.803 132.802C352.503 132.802 352.103 132.702 351.803 132.602C351.503 132.502 351.203 132.302 351.003 132.002L350.503 131.502L350.603 131.402C351.403 130.602 351.903 129.602 352.103 128.602C352.303 127.502 352.203 126.402 351.803 125.402L354.803 128.402C355.303 128.902 355.603 129.502 355.603 130.202C355.603 130.602 355.503 130.902 355.403 131.202C355.003 131.402 354.803 131.702 354.603 132.002ZM374.703 117.702C374.203 118.202 373.503 118.402 372.903 118.402C372.203 118.402 371.603 118.102 371.103 117.702L359.903 106.502C359.603 106.202 359.303 106.102 358.903 106.102C358.503 106.102 358.103 106.302 357.903 106.502C357.803 106.602 357.703 106.802 357.603 107.002C357.503 107.202 357.503 107.402 357.503 107.602C357.503 107.802 357.503 108.002 357.603 108.202C357.703 108.402 357.803 108.502 357.903 108.702L358.903 109.702L364.003 114.802L369.103 119.902C369.403 120.102 369.603 120.402 369.703 120.702C369.803 121.002 369.903 121.402 369.903 121.702C369.903 122.002 369.803 122.402 369.703 122.702C369.603 123.002 369.403 123.302 369.103 123.602C368.903 123.802 368.603 124.002 368.203 124.202C367.903 124.302 367.503 124.402 367.203 124.402C366.903 124.402 366.503 124.302 366.203 124.202C365.903 124.102 365.603 123.902 365.403 123.602L364.503 122.702L357.303 115.502C357.103 115.302 357.003 115.202 356.803 115.202C356.503 115.102 356.103 115.102 355.803 115.202C355.503 115.302 355.203 115.502 355.003 115.802C354.803 116.102 354.703 116.402 354.803 116.702C354.803 117.002 355.003 117.302 355.203 117.602L359.003 121.402L362.403 124.802C362.703 125.002 363.003 125.302 363.103 125.602C363.303 125.902 363.403 126.302 363.403 126.702C363.403 127.102 363.403 127.502 363.303 127.802C363.203 128.202 363.003 128.502 362.703 128.702C362.403 129.002 362.103 129.202 361.803 129.302C361.503 129.402 361.103 129.502 360.703 129.502C360.303 129.502 360.003 129.402 359.603 129.202C359.303 129.002 359.003 128.802 358.803 128.502L356.803 126.502L353.603 123.302C353.303 123.002 353.003 122.902 352.603 122.902C352.203 122.902 351.803 123.102 351.603 123.302C351.503 123.502 351.303 123.602 351.303 123.802C351.203 124.002 351.203 124.202 351.203 124.402C351.003 124.202 350.903 124.002 350.703 123.802C349.903 123.002 349.003 122.502 347.903 122.302C348.303 121.402 348.403 120.502 348.303 119.602C348.203 118.702 347.903 117.802 347.303 117.002C346.803 116.202 346.003 115.602 345.203 115.202C344.403 114.802 343.403 114.602 342.503 114.702C342.503 114.602 342.503 114.502 342.503 114.502C342.503 113.002 341.903 111.602 340.903 110.602C339.903 109.602 338.503 109.002 337.003 109.002C336.003 109.002 335.103 109.302 334.203 109.702C334.003 108.702 333.503 107.902 332.803 107.202C331.803 106.202 330.403 105.602 328.903 105.602C327.403 105.602 326.003 106.202 325.003 107.202L323.103 109.102C322.803 109.402 322.503 109.802 322.303 110.202L318.103 106.802L325.603 88.1016C328.903 89.6016 332.703 89.7016 336.203 88.5016C339.503 87.3016 343.103 87.2016 346.403 88.4016L341.403 91.2016C340.103 92.0016 339.103 93.2016 338.603 94.7016C338.103 96.2016 338.203 97.7015 338.903 99.1015C339.503 100.502 340.703 101.602 342.103 102.202C343.503 102.802 345.103 102.902 346.503 102.402L356.003 98.9016C356.803 98.6016 357.603 98.6016 358.303 98.7016C359.103 98.9016 359.803 99.3016 360.403 99.8016L374.603 114.002C375.103 114.502 375.403 115.202 375.403 115.802C375.403 116.402 375.203 117.202 374.703 117.702ZM375.903 111.202L362.503 97.8016C361.503 96.8016 360.303 96.2016 359.003 95.9016C357.703 95.6016 356.303 95.7016 355.003 96.2016L345.503 99.7016C344.803 100.002 344.103 100.002 343.403 99.7016C342.703 99.5016 342.103 99.0016 341.703 98.4016C341.403 98.0016 341.303 97.6016 341.203 97.1016C341.103 96.6016 341.103 96.2016 341.203 95.7016C341.303 95.2016 341.503 94.8016 341.803 94.5016C342.103 94.1016 342.403 93.8016 342.803 93.6016L350.303 89.4016C352.203 88.3016 354.403 87.7016 356.603 87.5016C358.803 87.3016 361.003 87.6016 363.103 88.4016C366.503 89.7016 370.303 89.5016 373.703 88.0016L381.703 108.002L375.903 111.202ZM385.603 109.702L374.903 83.0016L385.703 77.2016L390.703 107.802L385.603 109.702Z" fill="white"/>
</g>
<defs>
<linearGradient id="paint0_linear_1137_3630" x1="263.5" y1="0" x2="263.5" y2="210.632" gradientUnits="userSpaceOnUse">
<stop stop-color="white"/>
<stop offset="1" stop-color="#C7FFE2"/>
</linearGradient>
<linearGradient id="paint1_linear_1137_3630" x1="349.702" y1="47" x2="349.702" y2="162.2" gradientUnits="userSpaceOnUse">
<stop stop-color="#006630"/>
<stop offset="1" stop-color="#138F4C"/>
</linearGradient>
</defs>
</svg>
