<svg width="527" height="215" viewBox="0 0 527 215" fill="none" xmlns="http://www.w3.org/2000/svg">
<path fill-rule="evenodd" clip-rule="evenodd" d="M527 183V0H0V183H241.6L255.3 202.6C259 207.9 260.9 210.6 263.5 210.6C266.1 210.6 268 207.9 271.7 202.6L285.4 183H527Z" fill="url(#paint0_linear_1137_3631)"/>
<path d="M241.6 183L244.9 180.7L243.7 179H241.6V183ZM285.4 183V179H283.3L282.1 180.7L285.4 183ZM241.6 179H0V187H241.6V179ZM258.6 200.3L244.9 180.7L238.3 185.3L252 204.9L258.6 200.3ZM263.5 206.6C263.8 206.6 263.7 206.9 262.7 205.9C261.7 204.8 260.5 203.1 258.5 200.3L251.9 204.9C253.7 207.5 255.3 209.8 256.8 211.4C258.4 213.1 260.5 214.7 263.4 214.7V206.6H263.5ZM268.4 200.3C266.5 203.1 265.3 204.8 264.2 205.9C263.3 206.9 263.1 206.6 263.4 206.6V214.6C266.3 214.6 268.4 213 270 211.3C271.5 209.7 273.1 207.4 274.9 204.8L268.4 200.3ZM282.1 180.7L268.4 200.3L275 204.9L288.7 185.3L282.1 180.7ZM527 179H285.4V187H527V179Z" fill="#65FFAE"/>
<path d="M169.702 78.0008V75.7008L175.102 70.2008C176.302 68.9008 176.902 67.9008 176.902 67.0008C176.902 66.4008 176.702 65.9008 176.302 65.5008C175.902 65.1008 175.402 64.9008 174.802 64.9008C173.602 64.9008 172.702 65.5008 172.202 66.7008L169.602 65.2008C170.102 64.1008 170.802 63.3008 171.702 62.7008C172.602 62.1008 173.702 61.8008 174.802 61.8008C176.202 61.8008 177.402 62.2008 178.502 63.2008C179.502 64.1008 180.002 65.3008 180.002 66.8008C180.002 68.4008 179.102 70.1008 177.402 71.8008L174.302 75.0008H180.202V78.0008H169.702ZM187.902 78.3008C185.902 78.3008 184.402 77.6008 183.302 76.1008C182.202 74.6008 181.602 72.6008 181.602 70.1008C181.602 67.6008 182.202 65.6008 183.302 64.2008C184.402 62.7008 186.002 62.0008 187.902 62.0008C189.902 62.0008 191.402 62.8008 192.502 64.2008C193.602 65.7008 194.202 67.7008 194.202 70.1008C194.202 72.5008 193.602 74.6008 192.502 76.1008C191.402 77.6008 189.902 78.3008 187.902 78.3008ZM185.502 74.0008C186.002 74.9008 186.802 75.3008 187.902 75.3008C189.002 75.3008 189.702 74.9008 190.302 74.0008C190.902 73.1008 191.102 71.8008 191.102 70.2008C191.102 68.5008 190.802 67.2008 190.302 66.4008C189.802 65.5008 189.002 65.1008 187.902 65.1008C186.802 65.1008 186.102 65.5008 185.502 66.4008C185.002 67.3008 184.702 68.6008 184.702 70.2008C184.702 71.8008 185.002 73.1008 185.502 74.0008ZM199.002 62.2008H201.702V78.0008H198.602V65.5008L195.602 66.3008L194.802 63.6008L199.002 62.2008ZM207.702 62.2008H210.402V78.0008H207.302V65.5008L204.302 66.3008L203.502 63.6008L207.702 62.2008Z" fill="black"/>
<path d="M129.3 103.3H134.5V104.4H128.2V93.1H129.3V103.3ZM142.5 96.3H143.6V104.4H142.5V102.8C141.8 104 140.7 104.6 139.2 104.6C138 104.6 137.1 104.2 136.2 103.4C135.4 102.6 135 101.6 135 100.4C135 99.2 135.4 98.2 136.2 97.4C137 96.6 138 96.2 139.2 96.2C140.6 96.2 141.7 96.8 142.5 98V96.3ZM137.1 102.6C137.7 103.2 138.5 103.5 139.4 103.5C140.3 103.5 141.1 103.2 141.7 102.6C142.3 102 142.6 101.2 142.6 100.3C142.6 99.4 142.3 98.6 141.7 98C141.1 97.4 140.3 97.1 139.4 97.1C138.5 97.1 137.7 97.4 137.1 98C136.5 98.6 136.2 99.4 136.2 100.3C136.2 101.2 136.5 102 137.1 102.6ZM151.6 96.3H152.7V104.4H151.6V103.1C151 104.1 150.1 104.6 148.9 104.6C147.9 104.6 147.1 104.3 146.6 103.7C146 103.1 145.8 102.3 145.8 101.3V96.3H146.9V101.3C146.9 102 147.1 102.6 147.5 103C147.9 103.4 148.4 103.6 149.1 103.6C149.9 103.6 150.5 103.4 151 102.9C151.5 102.4 151.7 101.6 151.7 100.6V96.3H151.6ZM158.7 96.1C159.7 96.1 160.5 96.4 161 97C161.6 97.6 161.9 98.4 161.9 99.4V104.4H160.8V99.4C160.8 98.7 160.6 98.1 160.2 97.7C159.8 97.3 159.3 97.1 158.6 97.1C157.8 97.1 157.2 97.3 156.7 97.8C156.2 98.3 156 99 156 100.1V104.3H154.9V96.2H156V97.5C156.6 96.6 157.5 96.1 158.7 96.1ZM167.7 104.6C166.5 104.6 165.5 104.2 164.7 103.4C163.9 102.6 163.5 101.6 163.5 100.4C163.5 99.2 163.9 98.2 164.7 97.4C165.5 96.6 166.5 96.2 167.7 96.2C168.5 96.2 169.2 96.4 169.9 96.8C170.5 97.2 171 97.7 171.3 98.3L170.4 98.8C170.2 98.3 169.8 97.9 169.3 97.6C168.8 97.3 168.3 97.2 167.7 97.2C166.8 97.2 166 97.5 165.4 98.1C164.8 98.7 164.5 99.5 164.5 100.4C164.5 101.3 164.8 102.1 165.4 102.7C166 103.3 166.8 103.6 167.7 103.6C168.3 103.6 168.8 103.5 169.3 103.2C169.8 102.9 170.1 102.5 170.4 102L171.3 102.5C171 103.1 170.5 103.7 169.8 104C169.2 104.4 168.5 104.6 167.7 104.6ZM176.7 96.1C177.7 96.1 178.5 96.4 179 97C179.6 97.6 179.9 98.4 179.9 99.4V104.4H178.8V99.4C178.8 98.7 178.6 98.1 178.2 97.7C177.8 97.3 177.3 97.1 176.6 97.1C175.8 97.1 175.2 97.3 174.7 97.8C174.2 98.3 174 99 174 100.1V104.3H172.9V93.1H174V97.6C174.5 96.6 175.5 96.1 176.7 96.1ZM185.6 96.1C186.8 96.1 187.8 96.5 188.5 97.4C189.2 98.2 189.6 99.2 189.6 100.4C189.6 100.5 189.6 100.7 189.6 100.9H182.5C182.6 101.7 183 102.4 183.5 102.9C184.1 103.4 184.8 103.6 185.7 103.6C186.3 103.6 186.8 103.5 187.3 103.2C187.8 102.9 188.1 102.6 188.3 102.2L189.2 102.8C188.8 103.4 188.4 103.8 187.7 104.2C187 104.6 186.4 104.7 185.6 104.7C184.3 104.7 183.3 104.3 182.5 103.5C181.7 102.7 181.3 101.7 181.3 100.5C181.3 99.3 181.7 98.3 182.5 97.5C183.4 96.5 184.4 96.1 185.6 96.1ZM185.6 97.1C184.8 97.1 184.1 97.4 183.5 97.9C182.9 98.4 182.6 99 182.5 99.8H188.5C188.4 98.9 188.1 98.3 187.5 97.8C187 97.4 186.4 97.1 185.6 97.1ZM198.3 93.1H199.4V104.4H198.3V102.8C197.6 104 196.5 104.6 195 104.6C193.8 104.6 192.9 104.2 192 103.4C191.2 102.6 190.8 101.6 190.8 100.4C190.8 99.2 191.2 98.2 192 97.4C192.8 96.6 193.8 96.2 195 96.2C196.4 96.2 197.5 96.8 198.3 98V93.1ZM192.9 102.6C193.5 103.2 194.3 103.5 195.2 103.5C196.1 103.5 196.9 103.2 197.5 102.6C198.1 102 198.4 101.2 198.4 100.3C198.4 99.4 198.1 98.6 197.5 98C196.9 97.4 196.1 97.1 195.2 97.1C194.3 97.1 193.5 97.4 192.9 98C192.3 98.6 192 99.4 192 100.3C192 101.2 192.3 102 192.9 102.6ZM213 93.1V94.2H209.5V104.5H208.4V94.1H204.9V93H213V93.1ZM218.3 96.1C219.3 96.1 220.1 96.4 220.6 97C221.2 97.6 221.5 98.4 221.5 99.4V104.4H220.4V99.4C220.4 98.7 220.2 98.1 219.8 97.7C219.4 97.3 218.9 97.1 218.2 97.1C217.4 97.1 216.8 97.3 216.3 97.8C215.8 98.3 215.6 99 215.6 100.1V104.3H214.5V93.1H215.6V97.6C216.1 96.6 217 96.1 218.3 96.1ZM227.2 96.1C228.4 96.1 229.4 96.5 230.1 97.4C230.8 98.2 231.2 99.2 231.2 100.4C231.2 100.5 231.2 100.7 231.2 100.9H224.1C224.2 101.7 224.6 102.4 225.1 102.9C225.7 103.4 226.4 103.6 227.3 103.6C227.9 103.6 228.4 103.5 228.9 103.2C229.4 102.9 229.7 102.6 229.9 102.2L230.8 102.8C230.4 103.4 230 103.8 229.3 104.2C228.7 104.5 228 104.7 227.2 104.7C225.9 104.7 224.9 104.3 224.1 103.5C223.3 102.7 222.9 101.7 222.9 100.5C222.9 99.3 223.3 98.3 224.1 97.5C225 96.5 226 96.1 227.2 96.1ZM227.2 97.1C226.4 97.1 225.7 97.4 225.1 97.9C224.5 98.4 224.2 99 224.1 99.8H230.1C230 98.9 229.7 98.3 229.1 97.8C228.6 97.4 228 97.1 227.2 97.1ZM239.1 93.1H240.1V104.4H239V94.3L236.5 95.1L236.2 94.1L239.1 93.1ZM243.4 98.4C243.4 98.8 243.6 99.1 243.9 99.3C244.2 99.5 244.6 99.7 245.1 99.8C245.6 99.9 246 100.1 246.5 100.2C247 100.3 247.4 100.6 247.7 100.9C248 101.2 248.2 101.7 248.2 102.2C248.2 102.9 247.9 103.5 247.4 103.9C246.9 104.3 246.2 104.5 245.3 104.5C244.5 104.5 243.9 104.3 243.3 104C242.8 103.7 242.4 103.2 242.2 102.7L243.1 102.2C243.3 102.6 243.5 103 243.9 103.2C244.3 103.4 244.8 103.6 245.3 103.6C245.8 103.6 246.3 103.5 246.6 103.3C247 103.1 247.1 102.8 247.1 102.3C247.1 101.9 246.9 101.6 246.6 101.4C246.3 101.2 245.9 101 245.4 100.9C244.9 100.8 244.5 100.7 244 100.5C243.5 100.3 243.1 100.1 242.8 99.8C242.5 99.5 242.3 99 242.3 98.5C242.3 97.8 242.6 97.3 243.1 96.8C243.6 96.4 244.3 96.1 245.1 96.1C245.8 96.1 246.3 96.3 246.8 96.6C247.3 96.9 247.7 97.3 247.9 97.8L247 98.3C246.7 97.5 246 97.2 245.1 97.2C244.6 97.2 244.2 97.3 243.9 97.5C243.5 97.7 243.4 98 243.4 98.4ZM253.8 97.3H251.5V102.2C251.5 102.6 251.6 103 251.8 103.2C252 103.4 252.2 103.5 252.6 103.5C252.9 103.5 253.4 103.5 253.9 103.5V104.4C252.8 104.6 251.9 104.5 251.3 104.2C250.7 103.9 250.5 103.2 250.5 102.3V97.4H248.8V96.4H250.5V94.5L251.6 94.2V96.5H253.9V97.3H253.8ZM123.1 121.9C122 123 120.6 123.6 118.9 123.6C117.2 123.6 115.9 123 114.7 121.9C113.6 120.8 113 119.4 113 117.7C113 116.1 113.6 114.7 114.7 113.6C115.8 112.5 117.2 111.9 118.9 111.9C120.6 111.9 121.9 112.5 123.1 113.6C124.2 114.7 124.8 116.1 124.8 117.7C124.8 119.4 124.3 120.7 123.1 121.9ZM115.6 121.1C116.5 122 117.6 122.5 119 122.5C120.4 122.5 121.5 122 122.4 121.1C123.3 120.2 123.8 119 123.8 117.7C123.8 116.4 123.3 115.2 122.4 114.3C121.5 113.4 120.4 112.9 119 112.9C117.6 112.9 116.5 113.4 115.6 114.3C114.7 115.2 114.2 116.3 114.2 117.7C114.2 119.1 114.7 120.2 115.6 121.1ZM132.4 115.3H133.5V123.4H132.4V122.1C131.8 123.1 130.9 123.6 129.7 123.6C128.7 123.6 127.9 123.3 127.4 122.7C126.8 122.1 126.6 121.3 126.6 120.3V115.3H127.7V120.3C127.7 121 127.9 121.6 128.3 122C128.7 122.4 129.2 122.6 129.9 122.6C130.7 122.6 131.3 122.4 131.8 121.9C132.3 121.4 132.5 120.6 132.5 119.6V115.3H132.4ZM140 116.3H137.7V121.2C137.7 121.6 137.8 122 138 122.2C138.2 122.4 138.4 122.5 138.8 122.5C139.1 122.5 139.6 122.5 140.1 122.5V123.4C139 123.6 138.1 123.5 137.5 123.2C136.9 122.9 136.7 122.2 136.7 121.3V116.4H135V115.4H136.7V113.5L137.8 113.2V115.5H140.1V116.3H140ZM141.8 123.4V111.6H142.9V123.4H141.8ZM148.9 115.1C150.1 115.1 151.1 115.5 151.8 116.4C152.5 117.2 152.9 118.2 152.9 119.4C152.9 119.5 152.9 119.7 152.9 119.9H145.8C145.9 120.7 146.3 121.4 146.8 121.9C147.4 122.4 148.1 122.6 149 122.6C149.6 122.6 150.1 122.5 150.6 122.2C151.1 121.9 151.4 121.6 151.6 121.2L152.5 121.8C152.1 122.4 151.7 122.8 151 123.2C150.3 123.6 149.7 123.7 148.9 123.7C147.6 123.7 146.6 123.3 145.8 122.5C145 121.7 144.6 120.7 144.6 119.5C144.6 118.3 145 117.3 145.8 116.5C146.6 115.5 147.6 115.1 148.9 115.1ZM148.9 116.1C148.1 116.1 147.4 116.4 146.8 116.9C146.2 117.4 145.9 118 145.8 118.8H151.8C151.7 117.9 151.4 117.3 150.8 116.8C150.2 116.4 149.6 116.1 148.9 116.1ZM158.6 116.3H156.3V121.2C156.3 121.6 156.4 122 156.6 122.2C156.8 122.4 157 122.5 157.4 122.5C157.7 122.5 158.2 122.5 158.7 122.5V123.4C157.6 123.6 156.7 123.5 156.1 123.2C155.5 122.9 155.3 122.2 155.3 121.3V116.4H153.6V115.4H155.3V113.5L156.3 113V115.3H158.6V116.3ZM164.6 112.1H165.7V123.4H164.6V112.1ZM172 115.1C173 115.1 173.8 115.4 174.3 116C174.9 116.6 175.2 117.4 175.2 118.4V123.4H174.1V118.4C174.1 117.7 173.9 117.1 173.5 116.7C173.1 116.3 172.6 116.1 171.9 116.1C171.1 116.1 170.5 116.3 170 116.8C169.5 117.3 169.3 118 169.3 119.1V123.3H168.2V115.2H169.3V116.5C169.9 115.6 170.8 115.1 172 115.1ZM186.7 123.6C185 123.6 183.6 123 182.4 121.9C181.3 120.8 180.7 119.4 180.7 117.7C180.7 116.1 181.3 114.7 182.4 113.5C183.5 112.4 184.9 111.8 186.7 111.8C187.7 111.8 188.7 112.1 189.6 112.6C190.5 113.1 191.2 113.8 191.6 114.6L190.6 115.2C190.2 114.5 189.7 114 189 113.5C188.3 113.1 187.5 112.9 186.7 112.9C185.3 112.9 184.1 113.4 183.2 114.3C182.3 115.2 181.9 116.3 181.9 117.7C181.9 119 182.3 120.2 183.2 121.1C184.1 122 185.3 122.5 186.7 122.5C187.5 122.5 188.3 122.3 189 121.9C189.7 121.5 190.2 120.9 190.6 120.2L191.6 120.8C191.1 121.7 190.5 122.3 189.6 122.8C188.8 123.3 187.8 123.6 186.7 123.6ZM197.2 115.1C198.2 115.1 199 115.4 199.5 116C200.1 116.6 200.4 117.4 200.4 118.4V123.4H199.3V118.4C199.3 117.7 199.1 117.1 198.7 116.7C198.3 116.3 197.8 116.1 197.1 116.1C196.3 116.1 195.7 116.3 195.2 116.8C194.7 117.3 194.5 118 194.5 119.1V123.3H193.4V112H194.5V116.5C195 115.6 195.9 115.1 197.2 115.1ZM209.4 115.3H210.5V123.4H209.4V121.8C208.7 123 207.6 123.6 206.1 123.6C204.9 123.6 204 123.2 203.1 122.4C202.3 121.6 201.9 120.6 201.9 119.4C201.9 118.2 202.3 117.2 203.1 116.4C203.9 115.6 204.9 115.2 206.1 115.2C207.5 115.2 208.6 115.8 209.4 117V115.3ZM203.9 121.6C204.5 122.2 205.3 122.5 206.2 122.5C207.1 122.5 207.9 122.2 208.5 121.6C209.1 121 209.4 120.2 209.4 119.3C209.4 118.4 209.1 117.6 208.5 117C207.9 116.4 207.1 116.1 206.2 116.1C205.3 116.1 204.5 116.4 203.9 117C203.3 117.6 203 118.4 203 119.3C203 120.2 203.3 121 203.9 121.6ZM216.5 115.1C217.5 115.1 218.3 115.4 218.8 116C219.4 116.6 219.7 117.4 219.7 118.4V123.4H218.6V118.4C218.6 117.7 218.4 117.1 218 116.7C217.6 116.3 217.1 116.1 216.4 116.1C215.6 116.1 215 116.3 214.5 116.8C214 117.3 213.8 118 213.8 119.1V123.3H212.7V115.2H213.8V116.5C214.4 115.6 215.3 115.1 216.5 115.1ZM228.7 112.1H229.8V123.4H228.7V121.8C228 123 226.9 123.6 225.4 123.6C224.2 123.6 223.3 123.2 222.4 122.4C221.6 121.6 221.2 120.6 221.2 119.4C221.2 118.2 221.6 117.2 222.4 116.4C223.2 115.6 224.2 115.2 225.4 115.2C226.8 115.2 227.9 115.8 228.7 117V112.1ZM223.2 121.6C223.8 122.2 224.6 122.5 225.5 122.5C226.4 122.5 227.2 122.2 227.8 121.6C228.4 121 228.7 120.2 228.7 119.3C228.7 118.4 228.4 117.6 227.8 117C227.2 116.4 226.4 116.1 225.5 116.1C224.6 116.1 223.8 116.4 223.2 117C222.6 117.6 222.3 118.4 222.3 119.3C222.3 120.2 222.6 121 223.2 121.6ZM233.1 113.4C232.9 113.6 232.8 113.6 232.5 113.6C232.3 113.6 232.1 113.5 231.9 113.4C231.7 113.3 231.7 113.1 231.7 112.8C231.7 112.5 231.8 112.4 231.9 112.2C232.1 112 232.2 112 232.5 112C232.7 112 232.9 112.1 233.1 112.2C233.3 112.4 233.3 112.5 233.3 112.8C233.3 113.1 233.3 113.2 233.1 113.4ZM232 123.4V115.3H233.1V123.4H232ZM242.3 115.3H243.4V123.4H242.3V121.8C241.6 123 240.5 123.6 239 123.6C237.8 123.6 236.9 123.2 236 122.4C235.2 121.6 234.8 120.6 234.8 119.4C234.8 118.2 235.2 117.2 236 116.4C236.8 115.6 237.8 115.2 239 115.2C240.4 115.2 241.5 115.8 242.3 117V115.3ZM236.9 121.6C237.5 122.2 238.3 122.5 239.2 122.5C240.1 122.5 240.9 122.2 241.5 121.6C242.1 121 242.4 120.2 242.4 119.3C242.4 118.4 242.1 117.6 241.5 117C240.9 116.4 240.1 116.1 239.2 116.1C238.3 116.1 237.5 116.4 236.9 117C236.3 117.6 236 118.4 236 119.3C235.9 120.2 236.3 121 236.9 121.6ZM252.6 115.3H253.7V123.1C253.7 124.3 253.3 125.2 252.5 125.9C251.7 126.6 250.7 126.9 249.6 126.9C247.7 126.9 246.4 126.2 245.8 124.9L246.7 124.4C247.2 125.4 248.2 125.9 249.6 125.9C250.5 125.9 251.3 125.7 251.8 125.2C252.3 124.7 252.6 124.1 252.6 123.2V121.9C251.9 123.1 250.8 123.7 249.3 123.7C248.1 123.7 247.2 123.3 246.3 122.5C245.5 121.7 245.1 120.7 245.1 119.5C245.1 118.3 245.5 117.3 246.3 116.5C247.1 115.7 248.1 115.3 249.3 115.3C250.7 115.3 251.8 115.9 252.6 117.1V115.3ZM247.2 121.6C247.8 122.2 248.6 122.5 249.5 122.5C250.4 122.5 251.2 122.2 251.8 121.6C252.4 121 252.7 120.2 252.7 119.3C252.7 118.4 252.4 117.6 251.8 117C251.2 116.4 250.4 116.1 249.5 116.1C248.6 116.1 247.8 116.4 247.2 117C246.6 117.6 246.3 118.4 246.3 119.3C246.2 120.2 246.6 121 247.2 121.6ZM257 116.6C257.5 115.6 258.3 115.1 259.6 115.1V116.1C258.9 116.1 258.3 116.3 257.8 116.7C257.3 117.1 257.1 117.8 257.1 118.7V123.2H256V115.1H257.1V116.6H257ZM264.8 115.1C265.8 115.1 266.6 115.4 267.1 116C267.7 116.6 268 117.4 268 118.4V123.4H266.9V118.4C266.9 117.7 266.7 117.1 266.3 116.7C265.9 116.3 265.4 116.1 264.7 116.1C263.9 116.1 263.3 116.3 262.8 116.8C262.3 117.3 262.1 118 262.1 119.1V123.3H261V112H262.1V116.5C262.7 115.6 263.6 115.1 264.8 115.1Z" fill="black"/>
<mask id="mask0_1137_3631" style="mask-type:luminance" maskUnits="userSpaceOnUse" x="299" y="31" width="116" height="116">
<path d="M414.497 31H299.297V146.2H414.497V31Z" fill="white"/>
</mask>
<g mask="url(#mask0_1137_3631)">
<path d="M414.097 88.6C414.097 120.2 388.497 145.8 356.997 145.8C325.497 145.8 299.797 120.2 299.797 88.6C299.797 57 325.397 31.5 356.997 31.5C388.597 31.5 414.097 57 414.097 88.6Z" fill="white"/>
<path d="M414.097 88.6C414.097 120.2 388.497 145.8 356.997 145.8C325.497 145.8 299.797 120.2 299.797 88.6C299.797 57 325.397 31.5 356.997 31.5C388.597 31.5 414.097 57 414.097 88.6Z" fill="url(#paint1_linear_1137_3631)"/>
<path d="M414.097 88.6C414.097 120.2 388.497 145.8 356.997 145.8C325.497 145.8 299.797 120.2 299.797 88.6C299.797 57 325.397 31.5 356.997 31.5C388.597 31.5 414.097 57 414.097 88.6Z" stroke="#85FFBE" stroke-width="0.9"/>
<path d="M400.4 94.2009C400 93.5009 399.6 92.9009 399 92.3009C398.4 91.8009 397.7 91.4009 397 91.1009L386.1 87.5009C384.9 87.1009 383.7 87.0009 382.5 87.3009L381.1 88.0009C377.9 90.3009 372.8 93.0009 370.7 91.9009C369.9 91.5009 369.5 90.4009 369.5 88.6009L369.6 60.3009C369.6 59.0009 369.1 57.7009 368.1 56.8009C367.2 55.9009 365.9 55.3009 364.6 55.3009C363.3 55.3009 362 55.8009 361.1 56.8009C360.6 56.3009 360.1 56.0009 359.5 55.7009C358.9 55.4009 358.2 55.3009 357.6 55.3009C356.9 55.3009 356.3 55.4009 355.7 55.7009C355.1 56.0009 354.5 56.3009 354.1 56.8009C353.4 56.1009 352.5 55.6009 351.6 55.4009C350.6 55.2009 349.7 55.3009 348.8 55.6009C347.9 56.0009 347.1 56.6009 346.6 57.4009C346 58.2009 345.7 59.1009 345.7 60.1009L342.4 75.5009L342.2 76.2009C342.1 76.8009 341.8 77.3009 341.5 77.8009C340.6 79.0009 339.3 79.8009 337.8 80.1009C336.3 80.4009 334.8 80.1009 333.5 79.4009L319.4 71.0009C318.7 70.5009 317.9 70.2009 317 70.1009C316.1 70.0009 315.3 70.2009 314.5 70.7009C313.8 71.2009 312.2 72.6009 312.9 75.8009L317.4 98.5009C320.5 114.001 324.2 121.001 338.2 121.801L347 121.701L348.7 121.601C349.3 121.601 349.9 121.401 350.5 121.401H350.6C350.8 121.401 351 121.401 351.2 121.301C355.3 120.601 359.2 119.301 362.8 117.301C367.6 114.701 372.1 111.401 376.1 107.601L378.4 105.401C379.4 104.501 380.6 103.701 381.9 103.201C383.2 102.701 384.6 102.501 385.9 102.501L393.2 103.201C396.9 103.501 399.4 102.101 400.6 99.0009C400.8 98.2009 400.9 97.5009 400.9 96.7009C400.9 95.7009 400.7 94.9009 400.4 94.2009ZM397.9 97.8009C397.4 99.1009 396.5 100.301 393.6 100.101L386.2 99.4009C382.6 99.3009 379.1 100.601 376.5 103.001L374.2 105.201C370.4 108.801 366.2 112.001 361.6 114.501C358.1 116.401 354.4 117.701 350.5 118.301L345 118.801H344.5C344.2 118.801 343.8 118.801 343.5 118.801H341C327.4 118.801 323.8 114.201 320.7 99.9009L320.6 99.5009L319.9 96.2009L315.7 75.2009C315.5 74.2009 315.6 73.4009 316 73.2009C316.3 73.1009 316.6 73.1009 316.8 73.1009C317.1 73.2009 317.3 73.3009 317.6 73.5009L331.4 82.2009C333.3 83.3009 335.6 83.7009 337.8 83.2009C340 82.8009 341.9 81.6009 343.3 79.8009C343.9 79.0009 344.3 78.1009 344.5 77.2009L348.1 60.8009V60.4009C348.1 60.1009 348.2 59.8009 348.3 59.5009C348.4 59.2009 348.6 59.0009 348.8 58.8009C349 58.6009 349.3 58.5009 349.6 58.4009C349.9 58.3009 350.2 58.3009 350.5 58.4009C351 58.5009 351.4 58.7009 351.8 59.1009C352.1 59.5009 352.3 60.0009 352.3 60.5009V65.7009C352.3 66.0009 352.4 66.3009 352.5 66.5009C352.7 66.7009 352.9 66.9009 353.2 67.0009C353.4 67.1009 353.5 67.1009 353.7 67.1009C353.9 67.1009 354.1 67.1009 354.3 67.0009C354.5 66.9009 354.7 66.8009 354.8 66.7009C354.9 66.6009 355.1 66.4009 355.1 66.2009C355.2 66.0009 355.2 65.8009 355.2 65.6009V60.5009C355.2 60.0009 355.4 59.4009 355.7 59.0009C356.1 58.6009 356.6 58.3009 357.1 58.3009C357.4 58.3009 357.7 58.3009 357.9 58.4009C358.2 58.5009 358.4 58.6009 358.6 58.8009C358.8 59.0009 359 59.2009 359.1 59.5009C359.2 59.8009 359.3 60.0009 359.3 60.3009V65.5009C359.3 65.9009 359.4 66.2009 359.7 66.5009C359.9 66.8009 360.3 67.0009 360.7 67.0009C360.9 67.0009 361.1 67.0009 361.3 66.9009C361.5 66.8009 361.7 66.7009 361.8 66.6009C361.9 66.5009 362.1 66.3009 362.1 66.1009C362.2 65.9009 362.2 65.7009 362.2 65.5009V60.2009C362.2 59.7009 362.5 59.2009 362.8 58.8009C363.2 58.4009 363.7 58.2009 364.2 58.2009C364.7 58.2009 365.2 58.4009 365.6 58.8009C366 59.2009 366.2 59.6009 366.2 60.2009L366.3 88.7009C366.3 88.8009 366.3 88.9009 366.3 89.1009C366.3 90.9009 367 92.6009 368.1 94.0009C368.4 94.3009 368.7 94.5009 369.1 94.7009C370.6 95.5009 372.5 95.3009 374.4 94.7009L376 94.1009C377.6 93.4009 379.2 92.6009 380.7 91.6009L382 90.8009L382.5 90.5009C382.9 90.2009 383.4 90.1009 383.9 90.1009C384.3 90.1009 384.6 90.2009 385 90.3009L395.9 93.9009C396.7 94.2009 397.3 94.7009 397.7 95.4009C398.1 96.2009 398.2 97.0009 397.9 97.8009Z" fill="white"/>
</g>
<defs>
<linearGradient id="paint0_linear_1137_3631" x1="263.5" y1="0" x2="263.5" y2="210.632" gradientUnits="userSpaceOnUse">
<stop stop-color="white"/>
<stop offset="1" stop-color="#C7FFE2"/>
</linearGradient>
<linearGradient id="paint1_linear_1137_3631" x1="356.897" y1="31" x2="356.897" y2="146.2" gradientUnits="userSpaceOnUse">
<stop stop-color="#006630"/>
<stop offset="1" stop-color="#138F4C"/>
</linearGradient>
</defs>
</svg>
