<svg width="527" height="183" viewBox="0 0 527 183" fill="none" xmlns="http://www.w3.org/2000/svg">
<path fill-rule="evenodd" clip-rule="evenodd" d="M527 183V0H0V183H241.6H256.1C264.5 183 261.9 183 264.5 183C267.1 183 264.5 183 272.5 183H285.4H527Z" fill="url(#paint0_linear_1137_3632)"/>
<path d="M152.803 84.9984V82.6984L158.203 77.1984C159.403 75.8984 160.003 74.8984 160.003 74.0984C160.003 73.4984 159.803 72.9984 159.403 72.5984C159.003 72.1984 158.503 71.9984 157.903 71.9984C156.703 71.9984 155.803 72.5984 155.303 73.7984L152.703 72.2984C153.203 71.1984 153.903 70.3984 154.803 69.7984C155.703 69.1984 156.703 68.8984 157.903 68.8984C159.303 68.8984 160.503 69.2984 161.603 70.1984C162.603 71.0984 163.103 72.2984 163.103 73.7984C163.103 75.3984 162.203 77.0984 160.503 78.7984L157.403 81.8984H163.303V84.8984H152.803V84.9984ZM171.003 85.2984C169.003 85.2984 167.503 84.5984 166.403 83.0984C165.303 81.5984 164.703 79.5984 164.703 77.0984C164.703 74.5984 165.303 72.5984 166.403 71.1984C167.503 69.6984 169.103 68.9984 171.003 68.9984C173.003 68.9984 174.503 69.7984 175.603 71.1984C176.703 72.6984 177.303 74.6984 177.303 77.0984C177.303 79.5984 176.703 81.5984 175.603 83.0984C174.503 84.5984 173.003 85.2984 171.003 85.2984ZM168.603 80.9984C169.103 81.8984 169.903 82.2984 171.003 82.2984C172.003 82.2984 172.803 81.8984 173.403 80.9984C174.003 80.0984 174.203 78.7984 174.203 77.1984C174.203 75.4984 173.903 74.1984 173.403 73.3984C172.903 72.4984 172.103 72.0984 171.003 72.0984C169.903 72.0984 169.203 72.4984 168.603 73.3984C168.103 74.2984 167.803 75.5984 167.803 77.1984C167.803 78.7984 168.103 80.0984 168.603 80.9984ZM178.303 84.9984V82.6984L183.703 77.1984C184.903 75.8984 185.503 74.8984 185.503 74.0984C185.503 73.4984 185.303 72.9984 184.903 72.5984C184.503 72.1984 184.003 71.9984 183.403 71.9984C182.203 71.9984 181.303 72.5984 180.803 73.7984L178.203 72.2984C178.703 71.1984 179.403 70.3984 180.303 69.7984C181.203 69.1984 182.203 68.8984 183.403 68.8984C184.803 68.8984 186.003 69.2984 187.103 70.1984C188.103 71.0984 188.603 72.2984 188.603 73.7984C188.603 75.3984 187.703 77.0984 186.003 78.7984L182.903 81.8984H188.803V84.8984H178.303V84.9984ZM190.303 84.9984V82.6984L195.703 77.1984C196.903 75.8984 197.503 74.8984 197.503 74.0984C197.503 73.4984 197.303 72.9984 196.903 72.5984C196.503 72.1984 196.003 71.9984 195.403 71.9984C194.203 71.9984 193.303 72.5984 192.803 73.7984L190.203 72.2984C190.703 71.1984 191.403 70.3984 192.303 69.7984C193.203 69.1984 194.203 68.8984 195.403 68.8984C196.803 68.8984 198.003 69.2984 199.103 70.1984C200.103 71.0984 200.603 72.2984 200.603 73.7984C200.603 75.3984 199.703 77.0984 198.003 78.7984L194.903 81.8984H200.803V84.8984H190.303V84.9984Z" fill="black"/>
<path d="M126.303 110.301H131.503V111.401H125.203V100.101H126.303V110.301ZM139.503 103.301H140.603V111.401H139.503V109.801C138.803 111.001 137.703 111.601 136.203 111.601C135.003 111.601 134.103 111.201 133.203 110.401C132.403 109.601 132.003 108.601 132.003 107.401C132.003 106.201 132.403 105.201 133.203 104.401C134.003 103.601 135.003 103.201 136.203 103.201C137.603 103.201 138.703 103.801 139.503 105.001V103.301ZM134.003 109.601C134.603 110.201 135.403 110.501 136.303 110.501C137.203 110.501 138.003 110.201 138.603 109.601C139.203 109.001 139.503 108.201 139.503 107.301C139.503 106.401 139.203 105.601 138.603 105.001C138.003 104.401 137.203 104.101 136.303 104.101C135.403 104.101 134.603 104.401 134.003 105.001C133.403 105.601 133.103 106.401 133.103 107.301C133.103 108.201 133.403 109.001 134.003 109.601ZM151.103 100.101C152.103 100.101 153.003 100.401 153.603 101.101C154.303 101.801 154.603 102.601 154.603 103.601C154.603 104.601 154.303 105.501 153.603 106.101C152.903 106.801 152.103 107.101 151.103 107.101H148.203V111.301H147.003V100.001H151.103V100.101ZM151.103 106.101C151.803 106.101 152.403 105.901 152.803 105.401C153.303 104.901 153.503 104.301 153.503 103.601C153.503 102.901 153.303 102.301 152.803 101.801C152.303 101.301 151.803 101.101 151.103 101.101H148.203V106.101H151.103ZM157.503 101.401C157.303 101.601 157.203 101.601 156.903 101.601C156.703 101.601 156.503 101.501 156.303 101.401C156.103 101.201 156.103 101.101 156.103 100.901C156.103 100.701 156.203 100.501 156.303 100.301C156.403 100.101 156.603 100.101 156.903 100.101C157.103 100.101 157.303 100.201 157.503 100.301C157.703 100.501 157.703 100.601 157.703 100.901C157.703 101.201 157.603 101.201 157.503 101.401ZM156.403 111.401V103.301H157.503V111.401H156.403ZM163.503 103.101C164.503 103.101 165.303 103.401 165.803 104.001C166.403 104.601 166.703 105.401 166.703 106.401V111.401H165.603V106.401C165.603 105.701 165.403 105.101 165.003 104.701C164.603 104.301 164.103 104.101 163.403 104.101C162.603 104.101 162.003 104.301 161.503 104.801C161.003 105.301 160.803 106.001 160.803 107.101V111.301H159.703V103.201H160.803V104.501C161.403 103.601 162.303 103.101 163.503 103.101ZM175.603 110.401C174.803 111.201 173.803 111.601 172.603 111.601C171.403 111.601 170.403 111.201 169.603 110.401C168.803 109.601 168.403 108.601 168.403 107.401C168.403 106.201 168.803 105.201 169.603 104.401C170.403 103.601 171.403 103.201 172.603 103.201C173.803 103.201 174.803 103.601 175.603 104.401C176.403 105.201 176.803 106.201 176.803 107.401C176.803 108.501 176.403 109.601 175.603 110.401ZM170.303 109.601C170.903 110.201 171.703 110.501 172.603 110.501C173.503 110.501 174.303 110.201 174.903 109.601C175.503 109.001 175.803 108.201 175.803 107.301C175.803 106.401 175.503 105.601 174.903 105.001C174.303 104.401 173.503 104.101 172.603 104.101C171.703 104.101 170.903 104.401 170.303 105.001C169.703 105.601 169.403 106.401 169.403 107.301C169.303 108.201 169.703 109.001 170.303 109.601ZM179.203 100.101L178.203 103.701H177.203L177.803 100.101H179.203ZM182.503 110.401H187.203V111.401H181.003V110.701L185.503 104.301H181.203V103.301H187.003V104.001L182.503 110.401ZM204.003 106.001V106.601C204.003 108.001 203.503 109.201 202.503 110.201C201.503 111.201 200.203 111.601 198.503 111.601C196.803 111.601 195.403 111.001 194.203 109.901C193.103 108.801 192.503 107.401 192.503 105.701C192.503 104.101 193.103 102.701 194.203 101.501C195.303 100.401 196.703 99.8008 198.503 99.8008C199.503 99.8008 200.503 100.101 201.403 100.601C202.303 101.101 202.903 101.801 203.403 102.601L202.403 103.201C202.003 102.501 201.503 102.001 200.803 101.501C200.103 101.101 199.303 100.901 198.503 100.901C197.103 100.901 195.903 101.401 195.003 102.301C194.103 103.201 193.703 104.301 193.703 105.701C193.703 107.001 194.103 108.201 195.003 109.101C195.903 110.001 197.103 110.501 198.503 110.501C199.803 110.501 200.803 110.201 201.603 109.501C202.403 108.901 202.803 108.001 202.903 107.001H198.403V106.001H204.003ZM212.603 110.401C211.803 111.201 210.803 111.601 209.603 111.601C208.403 111.601 207.403 111.201 206.603 110.401C205.803 109.601 205.403 108.601 205.403 107.401C205.403 106.201 205.803 105.201 206.603 104.401C207.403 103.601 208.403 103.201 209.603 103.201C210.803 103.201 211.803 103.601 212.603 104.401C213.403 105.201 213.803 106.201 213.803 107.401C213.803 108.501 213.403 109.601 212.603 110.401ZM207.303 109.601C207.903 110.201 208.703 110.501 209.603 110.501C210.503 110.501 211.303 110.201 211.903 109.601C212.503 109.001 212.803 108.201 212.803 107.301C212.803 106.401 212.503 105.601 211.903 105.001C211.303 104.401 210.503 104.101 209.603 104.101C208.703 104.101 207.903 104.401 207.303 105.001C206.703 105.601 206.403 106.401 206.403 107.301C206.403 108.201 206.703 109.001 207.303 109.601ZM219.403 103.101C220.603 103.101 221.603 103.501 222.303 104.401C223.003 105.201 223.403 106.201 223.403 107.401C223.403 107.501 223.403 107.701 223.403 107.901H216.303C216.403 108.701 216.803 109.401 217.303 109.901C217.903 110.401 218.603 110.601 219.503 110.601C220.103 110.601 220.603 110.501 221.103 110.201C221.603 109.901 221.903 109.601 222.103 109.201L223.003 109.801C222.603 110.401 222.203 110.801 221.503 111.201C220.903 111.501 220.203 111.701 219.403 111.701C218.103 111.701 217.103 111.301 216.303 110.501C215.503 109.701 215.103 108.701 215.103 107.501C215.103 106.301 215.503 105.301 216.303 104.501C217.103 103.501 218.103 103.101 219.403 103.101ZM219.403 104.101C218.603 104.101 217.803 104.401 217.303 104.901C216.703 105.401 216.403 106.001 216.303 106.801H222.303C222.203 105.901 221.903 105.301 221.303 104.801C220.703 104.401 220.103 104.101 219.403 104.101ZM225.603 105.401C225.603 105.801 225.803 106.101 226.103 106.301C226.403 106.501 226.803 106.701 227.303 106.801C227.803 106.901 228.203 107.101 228.703 107.201C229.203 107.301 229.603 107.601 229.903 107.901C230.203 108.201 230.403 108.701 230.403 109.201C230.403 109.901 230.103 110.501 229.603 110.901C229.103 111.301 228.403 111.501 227.503 111.501C226.703 111.501 226.103 111.301 225.503 111.001C225.003 110.701 224.603 110.201 224.403 109.701L225.303 109.201C225.503 109.601 225.703 110.001 226.103 110.201C226.503 110.401 227.003 110.601 227.503 110.601C228.003 110.601 228.503 110.501 228.803 110.301C229.203 110.101 229.303 109.801 229.303 109.301C229.303 108.901 229.103 108.601 228.803 108.401C228.503 108.201 228.103 108.001 227.603 107.901C227.103 107.801 226.703 107.701 226.203 107.501C225.703 107.301 225.303 107.101 225.003 106.801C224.703 106.501 224.503 106.001 224.503 105.501C224.503 104.801 224.803 104.301 225.303 103.801C225.803 103.401 226.503 103.101 227.303 103.101C228.003 103.101 228.503 103.301 229.003 103.601C229.503 103.901 229.903 104.301 230.103 104.801L229.203 105.301C228.903 104.501 228.203 104.201 227.303 104.201C226.803 104.201 226.403 104.301 226.103 104.501C225.803 104.701 225.603 105.001 225.603 105.401ZM131.603 119.101H132.703V130.401H131.603V119.101ZM139.003 122.101C140.003 122.101 140.803 122.401 141.303 123.001C141.903 123.601 142.203 124.401 142.203 125.401V130.401H141.103V125.401C141.103 124.701 140.903 124.101 140.503 123.701C140.103 123.301 139.603 123.101 138.903 123.101C138.103 123.101 137.503 123.301 137.003 123.801C136.503 124.301 136.303 125.001 136.303 126.101V130.301H135.203V122.201H136.303V123.501C136.903 122.601 137.803 122.101 139.003 122.101ZM148.503 123.301H146.203V128.201C146.203 128.601 146.303 129.001 146.503 129.201C146.703 129.401 146.903 129.501 147.303 129.501C147.603 129.501 148.103 129.501 148.603 129.501V130.401C147.503 130.601 146.603 130.501 146.003 130.201C145.403 129.901 145.203 129.201 145.203 128.301V123.401H143.503V122.401H145.203V120.501L146.303 120.201V122.501H148.603V123.301H148.503ZM153.603 122.101C154.803 122.101 155.803 122.501 156.503 123.401C157.203 124.201 157.603 125.201 157.603 126.401C157.603 126.501 157.603 126.701 157.603 126.901H150.503C150.603 127.701 151.003 128.401 151.503 128.901C152.103 129.401 152.803 129.601 153.703 129.601C154.303 129.601 154.803 129.501 155.303 129.201C155.803 128.901 156.103 128.601 156.303 128.201L157.203 128.801C156.803 129.401 156.403 129.801 155.703 130.201C155.103 130.501 154.403 130.701 153.603 130.701C152.303 130.701 151.303 130.301 150.503 129.501C149.703 128.701 149.303 127.701 149.303 126.501C149.303 125.301 149.703 124.301 150.503 123.501C151.303 122.501 152.303 122.101 153.603 122.101ZM153.603 123.101C152.803 123.101 152.103 123.401 151.503 123.901C150.903 124.401 150.603 125.001 150.503 125.801H156.503C156.403 124.901 156.103 124.301 155.503 123.801C154.903 123.401 154.303 123.101 153.603 123.101ZM160.303 123.601C160.803 122.601 161.603 122.101 162.903 122.101V123.101C162.203 123.101 161.603 123.301 161.103 123.701C160.603 124.101 160.403 124.801 160.403 125.701V130.201H159.303V122.101H160.403V123.601H160.303ZM168.203 122.101C169.203 122.101 170.003 122.401 170.503 123.001C171.103 123.601 171.403 124.401 171.403 125.401V130.401H170.303V125.401C170.303 124.701 170.103 124.101 169.703 123.701C169.303 123.301 168.803 123.101 168.103 123.101C167.303 123.101 166.703 123.301 166.203 123.801C165.703 124.301 165.503 125.001 165.503 126.101V130.301H164.403V122.201H165.503V123.501C166.003 122.601 166.903 122.101 168.203 122.101ZM180.403 122.301H181.503V130.401H180.403V128.801C179.703 130.001 178.603 130.601 177.103 130.601C175.903 130.601 175.003 130.201 174.103 129.401C173.303 128.601 172.903 127.601 172.903 126.401C172.903 125.201 173.303 124.201 174.103 123.401C174.903 122.601 175.903 122.201 177.103 122.201C178.503 122.201 179.603 122.801 180.403 124.001V122.301ZM174.903 128.601C175.503 129.201 176.303 129.501 177.203 129.501C178.103 129.501 178.903 129.201 179.503 128.601C180.103 128.001 180.403 127.201 180.403 126.301C180.403 125.401 180.103 124.601 179.503 124.001C178.903 123.401 178.103 123.101 177.203 123.101C176.303 123.101 175.503 123.401 174.903 124.001C174.303 124.601 174.003 125.401 174.003 126.301C174.003 127.201 174.303 128.001 174.903 128.601ZM188.003 123.301H185.703V128.201C185.703 128.601 185.803 129.001 186.003 129.201C186.203 129.401 186.403 129.501 186.803 129.501C187.103 129.501 187.603 129.501 188.103 129.501V130.401C187.003 130.601 186.103 130.501 185.503 130.201C184.903 129.901 184.703 129.201 184.703 128.301V123.401H183.003V122.401H184.703V120.501L185.803 120.201V122.501H188.103V123.301H188.003ZM190.903 120.401C190.703 120.601 190.603 120.601 190.303 120.601C190.103 120.601 189.903 120.501 189.703 120.401C189.503 120.201 189.503 120.101 189.503 119.901C189.503 119.701 189.603 119.501 189.703 119.301C189.803 119.101 190.003 119.101 190.303 119.101C190.503 119.101 190.703 119.201 190.903 119.301C191.103 119.401 191.103 119.601 191.103 119.901C191.103 120.201 191.003 120.201 190.903 120.401ZM189.803 130.401V122.301H190.903V130.401H189.803ZM199.903 129.401C199.103 130.201 198.103 130.601 196.903 130.601C195.703 130.601 194.703 130.201 193.903 129.401C193.103 128.601 192.703 127.601 192.703 126.401C192.703 125.201 193.103 124.201 193.903 123.401C194.703 122.601 195.703 122.201 196.903 122.201C198.103 122.201 199.103 122.601 199.903 123.401C200.703 124.201 201.103 125.201 201.103 126.401C201.103 127.501 200.703 128.601 199.903 129.401ZM194.603 128.601C195.203 129.201 196.003 129.501 196.903 129.501C197.803 129.501 198.603 129.201 199.203 128.601C199.803 128.001 200.103 127.201 200.103 126.301C200.103 125.401 199.803 124.601 199.203 124.001C198.603 123.401 197.803 123.101 196.903 123.101C196.003 123.101 195.203 123.401 194.603 124.001C194.003 124.601 193.703 125.401 193.703 126.301C193.703 127.201 194.003 128.001 194.603 128.601ZM206.703 122.101C207.703 122.101 208.503 122.401 209.003 123.001C209.603 123.601 209.903 124.401 209.903 125.401V130.401H208.803V125.401C208.803 124.701 208.603 124.101 208.203 123.701C207.803 123.301 207.303 123.101 206.603 123.101C205.803 123.101 205.203 123.301 204.703 123.801C204.203 124.301 204.003 125.001 204.003 126.101V130.301H202.903V122.201H204.003V123.501C204.603 122.601 205.503 122.101 206.703 122.101ZM218.903 122.301H220.003V130.401H218.903V128.801C218.203 130.001 217.103 130.601 215.603 130.601C214.403 130.601 213.503 130.201 212.603 129.401C211.803 128.601 211.403 127.601 211.403 126.401C211.403 125.201 211.803 124.201 212.603 123.401C213.403 122.601 214.403 122.201 215.603 122.201C217.003 122.201 218.103 122.801 218.903 124.001V122.301ZM213.503 128.601C214.103 129.201 214.903 129.501 215.803 129.501C216.703 129.501 217.503 129.201 218.103 128.601C218.703 128.001 219.003 127.201 219.003 126.301C219.003 125.401 218.703 124.601 218.103 124.001C217.503 123.401 216.703 123.101 215.803 123.101C214.903 123.101 214.103 123.401 213.503 124.001C212.903 124.601 212.603 125.401 212.603 126.301C212.603 127.201 212.903 128.001 213.503 128.601ZM222.303 130.401V118.601H223.403V130.401H222.303Z" fill="black"/>
<mask id="mask0_1137_3632" style="mask-type:luminance" maskUnits="userSpaceOnUse" x="286" y="38" width="116" height="116">
<path d="M401.2 38H286V153.2H401.2V38Z" fill="white"/>
</mask>
<g mask="url(#mask0_1137_3632)">
<path d="M400.8 95.6C400.8 127.2 375.2 152.8 343.7 152.8C312.2 152.8 286.5 127.2 286.5 95.6C286.5 64 312.1 38.5 343.7 38.5C375.3 38.5 400.8 64 400.8 95.6Z" fill="white"/>
<path d="M400.8 95.6C400.8 127.2 375.2 152.8 343.7 152.8C312.2 152.8 286.5 127.2 286.5 95.6C286.5 64 312.1 38.5 343.7 38.5C375.3 38.5 400.8 64 400.8 95.6Z" fill="url(#paint1_linear_1137_3632)"/>
<path d="M400.8 95.6C400.8 127.2 375.2 152.8 343.7 152.8C312.2 152.8 286.5 127.2 286.5 95.6C286.5 64 312.1 38.5 343.7 38.5C375.3 38.5 400.8 64 400.8 95.6Z" stroke="#85FFBE" stroke-width="0.9"/>
<path d="M379.703 64.9982C378.403 63.2982 375.603 61.9983 369.703 65.1983C366.103 67.0983 358.103 73.5983 357.803 73.8983C357.703 73.9983 357.503 73.9982 357.303 73.9982L327.103 67.6983C326.603 67.5983 326.203 67.5982 325.703 67.7982C325.303 67.8982 324.903 68.0983 324.503 68.3983L322.103 70.6983C321.903 70.8983 321.703 71.0983 321.603 71.3983C321.503 71.6983 321.503 71.9983 321.503 72.1983C321.503 72.4983 321.603 72.7982 321.803 72.9982C322.003 73.1982 322.203 73.4982 322.403 73.5982L342.203 86.3983L333.403 93.5982C333.303 93.6982 333.103 93.6983 332.903 93.6983L320.703 91.3983C320.203 91.2983 319.803 91.3982 319.303 91.4982C318.903 91.6982 318.503 91.8982 318.103 92.2982L317.203 93.2982C317.003 93.4982 316.903 93.7982 316.803 93.9982C316.703 94.2982 316.703 94.4982 316.703 94.7982C316.703 95.0982 316.803 95.2982 317.003 95.5982C317.103 95.7982 317.303 95.9983 317.603 96.1983C323.203 100.098 329.403 104.598 330.203 105.398C330.803 106.298 333.903 113.298 336.603 119.498C336.703 119.898 337.003 120.198 337.303 120.398C337.603 120.598 338.003 120.698 338.403 120.698C338.703 120.698 339.103 120.598 339.403 120.398L340.603 119.798C341.003 119.598 341.403 119.198 341.603 118.798C341.803 118.398 342.003 117.898 342.003 117.498L342.203 105.098C342.203 104.898 342.303 104.798 342.403 104.598L351.203 97.3983L359.803 119.298C359.903 119.598 360.103 119.798 360.303 119.998C360.503 120.198 360.803 120.398 361.003 120.398C361.303 120.498 361.603 120.498 361.903 120.498C362.203 120.498 362.503 120.298 362.703 120.198L365.403 118.298C365.803 117.998 366.103 117.698 366.303 117.298C366.503 116.898 366.603 116.398 366.603 115.998L366.503 85.0982C366.503 84.8982 366.603 84.7983 366.703 84.6983C367.003 84.3983 375.003 77.8983 377.503 74.6983C381.803 69.5983 381.003 66.5982 379.703 64.9982ZM375.603 73.1983C373.203 76.1983 365.203 82.7982 365.103 82.7982C364.803 83.0982 364.503 83.4983 364.303 83.8983C364.103 84.2983 364.003 84.6983 364.003 85.1983L364.103 116.098C364.103 116.198 364.003 116.298 363.903 116.398L361.803 117.898L353.203 95.7982C353.103 95.4982 352.903 95.2982 352.703 95.0982C352.503 94.8982 352.203 94.7983 351.903 94.6983C351.603 94.5983 351.303 94.5983 351.003 94.6983C350.703 94.7983 350.403 94.8982 350.203 95.0982L340.703 102.898C340.003 103.498 339.603 104.298 339.603 105.198L339.403 117.598C339.403 117.698 339.303 117.798 339.303 117.798L338.603 118.198C336.703 113.798 332.703 104.798 332.003 103.998C331.303 103.198 323.303 97.3983 319.403 94.6983L319.903 94.0982C320.003 94.0982 320.003 93.9982 320.103 93.9982L332.403 96.1983C332.803 96.2983 333.303 96.1982 333.703 96.0982C334.103 95.9982 334.503 95.7982 334.903 95.4982L344.403 87.7982C344.603 87.5982 344.803 87.3982 344.903 87.0982C345.003 86.7982 345.103 86.4983 345.103 86.1983C345.103 85.8983 345.003 85.5983 344.803 85.3983C344.603 85.0983 344.403 84.8982 344.203 84.7982L324.303 71.8983L326.203 70.0982C326.303 69.9982 326.403 69.9982 326.603 69.9982L356.803 76.2982C357.203 76.3982 357.703 76.3982 358.103 76.2982C358.503 76.1982 358.903 75.9983 359.303 75.6983C359.403 75.5983 367.503 69.0982 370.803 67.2982C372.803 66.1982 376.403 64.6982 377.703 66.4982L377.803 66.5982C379.203 68.2982 377.003 71.4983 375.603 73.1983Z" fill="white"/>
<path d="M307.697 110.702C307.997 110.702 308.297 110.602 308.497 110.402L314.197 105.702C314.397 105.502 314.597 105.202 314.597 104.902C314.597 104.602 314.497 104.302 314.297 104.002C314.097 103.802 313.797 103.602 313.497 103.602C313.197 103.602 312.897 103.602 312.597 103.802L306.897 108.502C306.697 108.702 306.597 108.902 306.497 109.102C306.397 109.302 306.397 109.602 306.497 109.802C306.597 110.002 306.697 110.202 306.897 110.402C307.197 110.602 307.397 110.702 307.697 110.702Z" fill="white"/>
<path d="M326.702 121.002L321.002 125.702C320.702 125.902 320.602 126.202 320.602 126.502C320.602 126.802 320.702 127.202 320.902 127.402C321.002 127.502 321.202 127.702 321.302 127.702C321.402 127.702 321.602 127.802 321.802 127.802C322.102 127.802 322.402 127.702 322.602 127.502L328.402 122.802C328.502 122.702 328.602 122.602 328.702 122.402C328.802 122.302 328.802 122.102 328.902 121.902C329.002 121.702 328.902 121.602 328.902 121.402C328.902 121.202 328.802 121.102 328.702 121.002C328.602 120.902 328.502 120.802 328.302 120.702C328.202 120.602 328.002 120.602 327.802 120.602C327.602 120.602 327.502 120.602 327.302 120.702C327.002 120.802 326.902 120.902 326.702 121.002Z" fill="white"/>
<path d="M321.401 112.599C321.201 112.299 320.901 112.199 320.601 112.199C320.301 112.199 320.001 112.299 319.701 112.499L307.201 122.699C307.101 122.799 307.001 122.899 306.901 123.099C306.801 123.199 306.801 123.399 306.701 123.599C306.601 123.799 306.701 123.899 306.701 124.099C306.701 124.299 306.801 124.399 306.901 124.499C307.001 124.599 307.101 124.699 307.301 124.799C307.401 124.899 307.601 124.899 307.801 124.899C308.001 124.899 308.101 124.899 308.301 124.799C308.501 124.699 308.601 124.699 308.701 124.499L321.201 114.299C321.501 114.099 321.601 113.799 321.601 113.499C321.601 113.199 321.601 112.899 321.401 112.599Z" fill="white"/>
</g>
<defs>
<linearGradient id="paint0_linear_1137_3632" x1="263.5" y1="0" x2="263.5" y2="210.632" gradientUnits="userSpaceOnUse">
<stop stop-color="white"/>
<stop offset="1" stop-color="#C7FFE2"/>
</linearGradient>
<linearGradient id="paint1_linear_1137_3632" x1="343.6" y1="38" x2="343.6" y2="153.2" gradientUnits="userSpaceOnUse">
<stop stop-color="#006630"/>
<stop offset="1" stop-color="#138F4C"/>
</linearGradient>
</defs>
</svg>
