<svg width="527" height="216" viewBox="0 0 527 216" fill="none" xmlns="http://www.w3.org/2000/svg">
<path fill-rule="evenodd" clip-rule="evenodd" d="M527 183V0H0V183H241.6L255.3 202.6C259 207.9 260.9 210.6 263.5 210.6C266.1 210.6 268 207.9 271.7 202.6L285.4 183H527Z" fill="url(#paint0_linear_1137_3629)"/>
<path d="M241.6 184L244.9 181.7L243.7 180H241.6V184ZM285.4 184V180H283.3L282.1 181.7L285.4 184ZM241.6 180H0V188H241.6V180ZM258.6 201.3L244.9 181.7L238.3 186.3L252 205.9L258.6 201.3ZM263.5 207.6C263.8 207.6 263.7 207.9 262.7 206.9C261.7 205.8 260.5 204.1 258.5 201.3L251.9 205.9C253.7 208.5 255.3 210.8 256.8 212.4C258.4 214.1 260.5 215.7 263.4 215.7V207.6H263.5ZM268.4 201.3C266.5 204.1 265.3 205.8 264.2 206.9C263.3 207.9 263.1 207.6 263.4 207.6V215.6C266.3 215.6 268.4 214 270 212.3C271.5 210.7 273.1 208.4 274.9 205.8L268.4 201.3ZM282.1 181.7L268.4 201.3L275 205.9L288.7 186.3L282.1 181.7ZM527 180H285.4V188H527V180Z" fill="#65FFAE"/>
<path d="M168.397 84.2V81.9L173.797 76.4C174.997 75.1 175.597 74.1 175.597 73.2C175.597 72.6 175.397 72.1 174.997 71.7C174.597 71.3 174.097 71.1 173.497 71.1C172.297 71.1 171.397 71.7 170.897 72.9L168.297 71.4C168.797 70.3 169.497 69.5 170.397 68.9C171.297 68.3 172.297 68 173.497 68C174.897 68 176.097 68.5 177.197 69.4C178.197 70.3 178.697 71.5 178.697 73C178.697 74.6 177.797 76.3 176.097 78L172.997 81.1H178.897V84.1H168.397V84.2ZM186.597 84.5C184.597 84.5 183.097 83.8 181.997 82.3C180.897 80.8 180.297 78.8 180.297 76.3C180.297 73.8 180.897 71.8 181.997 70.4C183.097 68.9 184.697 68.2 186.597 68.2C188.597 68.2 190.097 69 191.197 70.4C192.297 71.9 192.897 73.9 192.897 76.3C192.897 78.8 192.297 80.8 191.197 82.3C190.097 83.8 188.597 84.5 186.597 84.5ZM184.197 80.2C184.697 81.1 185.497 81.5 186.597 81.5C187.697 81.5 188.397 81.1 188.997 80.2C189.597 79.3 189.797 78 189.797 76.4C189.797 74.7 189.497 73.4 188.997 72.6C188.497 71.7 187.697 71.3 186.597 71.3C185.597 71.3 184.797 71.7 184.197 72.6C183.697 73.5 183.397 74.8 183.397 76.4C183.397 78 183.697 79.3 184.197 80.2ZM197.697 68.4H200.397V84.2H197.297V71.7L194.297 72.5L193.497 69.8L197.697 68.4ZM213.897 73.6C213.897 74.8 213.597 75.9 212.997 76.8L208.097 84.2H204.497L207.997 79.1C206.397 79.1 204.997 78.6 203.997 77.5C202.997 76.5 202.497 75.2 202.497 73.6C202.497 72 202.997 70.7 204.097 69.7C205.197 68.7 206.497 68.2 208.197 68.2C209.897 68.2 211.297 68.7 212.297 69.7C213.397 70.7 213.897 72 213.897 73.6ZM205.597 73.6C205.597 74.4 205.797 75 206.297 75.5C206.797 76 207.397 76.2 208.197 76.2C208.997 76.2 209.597 76 210.097 75.5C210.597 75 210.797 74.4 210.797 73.6C210.797 72.8 210.597 72.2 210.097 71.8C209.597 71.3 208.997 71.1 208.197 71.1C207.497 71.1 206.797 71.3 206.297 71.8C205.797 72.2 205.597 72.8 205.597 73.6Z" fill="black"/>
<path d="M118 110.797C116.3 110.797 114.9 110.197 113.7 109.097C112.6 107.997 112 106.597 112 104.897C112 103.297 112.6 101.897 113.7 100.697C114.8 99.5968 116.2 98.9968 118 98.9968C119 98.9968 120 99.2969 120.9 99.7969C121.8 100.297 122.4 100.997 122.9 101.797L121.9 102.397C121.5 101.697 121 101.197 120.3 100.697C119.6 100.297 118.8 100.097 118 100.097C116.6 100.097 115.4 100.597 114.5 101.497C113.6 102.397 113.2 103.497 113.2 104.897C113.2 106.197 113.6 107.397 114.5 108.297C115.4 109.197 116.6 109.697 118 109.697C118.8 109.697 119.6 109.497 120.3 109.097C121 108.697 121.5 108.097 121.9 107.397L122.9 107.997C122.4 108.897 121.8 109.497 120.9 109.997C120 110.497 119 110.797 118 110.797ZM125.6 103.797C126.1 102.797 126.9 102.297 128.2 102.297V103.297C127.5 103.297 126.9 103.497 126.4 103.897C125.9 104.297 125.7 104.997 125.7 105.897V110.397H124.6V102.297H125.7V103.797H125.6ZM136 109.597C135.2 110.397 134.2 110.797 133 110.797C131.8 110.797 130.8 110.397 130 109.597C129.2 108.797 128.8 107.797 128.8 106.597C128.8 105.397 129.2 104.397 130 103.597C130.8 102.797 131.8 102.397 133 102.397C134.2 102.397 135.2 102.797 136 103.597C136.8 104.397 137.2 105.397 137.2 106.597C137.2 107.697 136.8 108.797 136 109.597ZM130.7 108.797C131.3 109.397 132.1 109.697 133 109.697C133.9 109.697 134.7 109.397 135.3 108.797C135.9 108.197 136.2 107.397 136.2 106.497C136.2 105.597 135.9 104.797 135.3 104.197C134.7 103.597 133.9 103.297 133 103.297C132.1 103.297 131.3 103.597 130.7 104.197C130.1 104.797 129.8 105.597 129.8 106.497C129.8 107.397 130.1 108.197 130.7 108.797ZM139.7 104.597C139.7 104.997 139.9 105.297 140.2 105.497C140.5 105.697 140.9 105.897 141.4 105.997C141.9 106.097 142.3 106.297 142.8 106.397C143.3 106.497 143.7 106.797 144 107.097C144.3 107.397 144.5 107.897 144.5 108.397C144.5 109.097 144.2 109.697 143.7 110.097C143.2 110.497 142.5 110.697 141.6 110.697C140.8 110.697 140.2 110.497 139.6 110.197C139.1 109.897 138.7 109.397 138.5 108.897L139.4 108.397C139.6 108.797 139.8 109.197 140.2 109.397C140.6 109.597 141.1 109.797 141.6 109.797C142.1 109.797 142.6 109.697 142.9 109.497C143.3 109.297 143.4 108.997 143.4 108.497C143.4 108.097 143.2 107.797 142.9 107.597C142.6 107.397 142.2 107.197 141.7 107.097C141.2 106.997 140.8 106.897 140.3 106.697C139.8 106.497 139.4 106.297 139.1 105.997C138.8 105.697 138.6 105.197 138.6 104.697C138.6 103.997 138.9 103.497 139.4 102.997C139.9 102.597 140.6 102.297 141.4 102.297C142.1 102.297 142.6 102.497 143.1 102.797C143.6 103.097 144 103.497 144.2 103.997L143.3 104.497C143 103.697 142.3 103.397 141.4 103.397C140.9 103.397 140.5 103.497 140.2 103.697C139.9 103.897 139.7 104.197 139.7 104.597ZM146.6 104.597C146.6 104.997 146.8 105.297 147.1 105.497C147.4 105.697 147.8 105.897 148.3 105.997C148.8 106.097 149.2 106.297 149.7 106.397C150.2 106.497 150.6 106.797 150.9 107.097C151.2 107.397 151.4 107.897 151.4 108.397C151.4 109.097 151.1 109.697 150.6 110.097C150.1 110.497 149.4 110.697 148.5 110.697C147.7 110.697 147.1 110.497 146.5 110.197C146 109.897 145.6 109.397 145.4 108.897L146.3 108.397C146.5 108.797 146.7 109.197 147.1 109.397C147.5 109.597 148 109.797 148.5 109.797C149 109.797 149.5 109.697 149.8 109.497C150.2 109.297 150.3 108.997 150.3 108.497C150.3 108.097 150.1 107.797 149.8 107.597C149.5 107.397 149.1 107.197 148.6 107.097C148.1 106.997 147.7 106.897 147.2 106.697C146.7 106.497 146.3 106.297 146 105.997C145.7 105.697 145.5 105.197 145.5 104.697C145.5 103.997 145.8 103.497 146.3 102.997C146.8 102.597 147.5 102.297 148.3 102.297C149 102.297 149.5 102.497 150 102.797C150.5 103.097 150.9 103.497 151.1 103.997L150.2 104.497C149.9 103.697 149.2 103.397 148.3 103.397C147.8 103.397 147.4 103.497 147.1 103.697C146.7 103.897 146.6 104.197 146.6 104.597ZM156.6 102.297C157.8 102.297 158.8 102.697 159.5 103.597C160.2 104.397 160.6 105.397 160.6 106.597C160.6 106.697 160.6 106.897 160.6 107.097H153.5C153.6 107.897 154 108.597 154.5 109.097C155.1 109.597 155.8 109.797 156.7 109.797C157.3 109.797 157.8 109.697 158.3 109.397C158.8 109.097 159.1 108.797 159.3 108.397L160.2 108.997C159.8 109.597 159.4 109.997 158.7 110.397C158.1 110.697 157.4 110.897 156.6 110.897C155.3 110.897 154.3 110.497 153.5 109.697C152.7 108.897 152.3 107.897 152.3 106.697C152.3 105.497 152.7 104.497 153.5 103.697C154.3 102.697 155.3 102.297 156.6 102.297ZM156.6 103.297C155.8 103.297 155.1 103.597 154.5 104.097C153.9 104.597 153.6 105.197 153.5 105.997H159.5C159.4 105.097 159.1 104.497 158.5 103.997C158 103.597 157.3 103.297 156.6 103.297ZM169.3 99.2969H170.4V110.597H169.3V108.997C168.6 110.197 167.5 110.797 166 110.797C164.8 110.797 163.9 110.397 163 109.597C162.2 108.797 161.8 107.797 161.8 106.597C161.8 105.397 162.2 104.397 163 103.597C163.8 102.797 164.8 102.397 166 102.397C167.4 102.397 168.5 102.997 169.3 104.197V99.2969ZM163.8 108.797C164.4 109.397 165.2 109.697 166.1 109.697C167 109.697 167.8 109.397 168.4 108.797C169 108.197 169.3 107.397 169.3 106.497C169.3 105.597 169 104.797 168.4 104.197C167.8 103.597 167 103.297 166.1 103.297C165.2 103.297 164.4 103.597 163.8 104.197C163.2 104.797 162.9 105.597 162.9 106.497C162.9 107.397 163.2 108.197 163.8 108.797ZM176.2 110.597V109.597L180.3 105.497C181.5 104.297 182 103.297 182 102.497C182 101.797 181.8 101.197 181.3 100.797C180.9 100.397 180.3 100.197 179.7 100.197C178.5 100.197 177.7 100.697 177.2 101.797L176.2 101.197C176.6 100.497 177 99.9969 177.7 99.5969C178.3 99.1969 179 98.9968 179.7 98.9968C180.6 98.9968 181.4 99.2969 182.1 99.8969C182.8 100.497 183.1 101.297 183.1 102.397C183.1 103.097 182.9 103.697 182.5 104.297C182.1 104.897 181.6 105.497 180.9 106.197L177.7 109.397H183.3V110.497H176.2V110.597ZM192.1 109.197C191.4 110.297 190.3 110.797 188.9 110.797C187.5 110.797 186.5 110.297 185.7 109.197C185 108.097 184.6 106.697 184.6 104.897C184.6 103.097 185 101.697 185.7 100.597C186.5 99.4969 187.5 98.9968 188.9 98.9968C190.3 98.9968 191.3 99.4969 192.1 100.597C192.9 101.697 193.2 103.097 193.2 104.897C193.3 106.697 192.9 108.097 192.1 109.197ZM186.6 108.397C187.2 109.197 187.9 109.597 188.9 109.597C189.9 109.597 190.7 109.197 191.2 108.397C191.8 107.597 192 106.397 192 104.897C192 103.397 191.7 102.197 191.2 101.397C190.6 100.597 189.9 100.197 188.9 100.197C187.9 100.197 187.1 100.597 186.6 101.397C186 102.197 185.8 103.397 185.8 104.897C185.8 106.397 186.1 107.597 186.6 108.397ZM202.3 109.197C201.6 110.297 200.5 110.797 199.1 110.797C197.7 110.797 196.7 110.297 195.9 109.197C195.2 108.097 194.8 106.697 194.8 104.897C194.8 103.097 195.2 101.697 195.9 100.597C196.7 99.4969 197.7 98.9968 199.1 98.9968C200.5 98.9968 201.5 99.4969 202.3 100.597C203.1 101.697 203.4 103.097 203.4 104.897C203.5 106.697 203.1 108.097 202.3 109.197ZM196.8 108.397C197.4 109.197 198.1 109.597 199.1 109.597C200.1 109.597 200.9 109.197 201.4 108.397C202 107.597 202.2 106.397 202.2 104.897C202.2 103.397 201.9 102.197 201.4 101.397C200.8 100.597 200.1 100.197 199.1 100.197C198.1 100.197 197.3 100.597 196.8 101.397C196.2 102.197 196 103.397 196 104.897C196 106.397 196.3 107.597 196.8 108.397ZM219 109.097C217.9 110.197 216.5 110.797 214.8 110.797C213.2 110.797 211.8 110.197 210.6 109.097C209.5 107.997 208.9 106.597 208.9 104.897C208.9 103.297 209.5 101.897 210.6 100.797C211.7 99.6969 213.1 99.0969 214.8 99.0969C216.4 99.0969 217.8 99.6969 219 100.797C220.1 101.897 220.7 103.297 220.7 104.897C220.7 106.597 220.1 107.897 219 109.097ZM211.5 108.297C212.4 109.197 213.5 109.697 214.9 109.697C216.2 109.697 217.4 109.197 218.3 108.297C219.2 107.397 219.7 106.197 219.7 104.897C219.7 103.597 219.2 102.397 218.3 101.497C217.4 100.597 216.3 100.097 214.9 100.097C213.6 100.097 212.4 100.597 211.5 101.497C210.6 102.397 210.1 103.497 210.1 104.897C210.1 106.297 210.6 107.397 211.5 108.297ZM228.3 102.497H229.4V110.597H228.3V109.297C227.7 110.297 226.8 110.797 225.6 110.797C224.6 110.797 223.8 110.497 223.3 109.897C222.7 109.297 222.5 108.497 222.5 107.497V102.497H223.6V107.497C223.6 108.197 223.8 108.797 224.2 109.197C224.6 109.597 225.1 109.797 225.8 109.797C226.6 109.797 227.2 109.597 227.7 109.097C228.2 108.597 228.4 107.797 228.4 106.797V102.497H228.3ZM235.9 103.497H233.6V108.397C233.6 108.797 233.7 109.197 233.9 109.397C234.1 109.597 234.3 109.697 234.7 109.697C235 109.697 235.5 109.697 236 109.697V110.597C234.9 110.797 234 110.697 233.4 110.397C232.8 110.097 232.6 109.397 232.6 108.497V103.597H230.8V102.597H232.5V100.697L233.6 100.397V102.697H235.9V103.497ZM237.7 110.597V98.7969H238.8V110.597H237.7ZM244.7 102.297C245.9 102.297 246.9 102.697 247.6 103.597C248.3 104.397 248.7 105.397 248.7 106.597C248.7 106.697 248.7 106.897 248.7 107.097H241.6C241.7 107.897 242.1 108.597 242.6 109.097C243.2 109.597 243.9 109.797 244.8 109.797C245.4 109.797 245.9 109.697 246.4 109.397C246.9 109.097 247.2 108.797 247.4 108.397L248.3 108.997C247.9 109.597 247.5 109.997 246.8 110.397C246.2 110.697 245.5 110.897 244.7 110.897C243.4 110.897 242.4 110.497 241.6 109.697C240.8 108.897 240.4 107.897 240.4 106.697C240.4 105.497 240.8 104.497 241.6 103.697C242.5 102.697 243.5 102.297 244.7 102.297ZM244.7 103.297C243.9 103.297 243.2 103.597 242.6 104.097C242 104.597 241.7 105.197 241.6 105.997H247.6C247.5 105.097 247.2 104.497 246.6 103.997C246.1 103.597 245.5 103.297 244.7 103.297ZM254.5 103.497H252.2V108.397C252.2 108.797 252.3 109.197 252.5 109.397C252.7 109.597 252.9 109.697 253.3 109.697C253.6 109.697 254.1 109.697 254.6 109.697V110.597C253.5 110.797 252.6 110.697 252 110.397C251.4 110.097 251.2 109.397 251.2 108.497V103.597H249.5V102.597H251.2V100.697L252.3 100.397V102.697H254.6V103.497H254.5ZM256.6 104.597C256.6 104.997 256.8 105.297 257.1 105.497C257.4 105.697 257.8 105.897 258.3 105.997C258.8 106.097 259.2 106.297 259.7 106.397C260.2 106.497 260.6 106.797 260.9 107.097C261.2 107.397 261.4 107.897 261.4 108.397C261.4 109.097 261.1 109.697 260.6 110.097C260.1 110.497 259.4 110.697 258.5 110.697C257.7 110.697 257.1 110.497 256.5 110.197C256 109.897 255.6 109.397 255.4 108.897L256.3 108.397C256.5 108.797 256.7 109.197 257.1 109.397C257.5 109.597 258 109.797 258.5 109.797C259 109.797 259.5 109.697 259.8 109.497C260.2 109.297 260.3 108.997 260.3 108.497C260.3 108.097 260.1 107.797 259.8 107.597C259.5 107.397 259.1 107.197 258.6 107.097C258.1 106.997 257.7 106.897 257.2 106.697C256.7 106.497 256.3 106.297 256 105.997C255.7 105.697 255.5 105.197 255.5 104.697C255.5 103.997 255.8 103.497 256.3 102.997C256.8 102.597 257.5 102.297 258.3 102.297C259 102.297 259.5 102.497 260 102.797C260.5 103.097 260.9 103.497 261.1 103.997L260.2 104.497C259.9 103.697 259.2 103.397 258.3 103.397C257.8 103.397 257.4 103.497 257.1 103.697C256.8 103.897 256.6 104.197 256.6 104.597ZM146.9 129.597L145.8 126.797H140.4L139.3 129.597H138.1L142.5 118.297H143.8L148.2 129.597H146.9ZM140.9 125.697H145.5L143.2 119.597L140.9 125.697ZM149.4 129.597V117.797H150.5V129.597H149.4ZM152.8 129.597V117.797H153.8V129.597H152.8ZM169.7 128.097C168.6 129.197 167.2 129.797 165.5 129.797C163.9 129.797 162.5 129.197 161.3 128.097C160.2 126.997 159.6 125.597 159.6 123.897C159.6 122.297 160.2 120.897 161.3 119.797C162.4 118.697 163.8 118.097 165.5 118.097C167.1 118.097 168.5 118.697 169.7 119.797C170.8 120.897 171.4 122.297 171.4 123.897C171.4 125.597 170.8 126.897 169.7 128.097ZM162.2 127.297C163.1 128.197 164.2 128.697 165.6 128.697C166.9 128.697 168.1 128.197 169 127.297C169.9 126.397 170.4 125.197 170.4 123.897C170.4 122.597 169.9 121.397 169 120.497C168.1 119.597 167 119.097 165.6 119.097C164.3 119.097 163.1 119.597 162.2 120.497C161.3 121.397 160.8 122.497 160.8 123.897C160.8 125.297 161.3 126.397 162.2 127.297ZM179 121.497H180.1L176.8 129.597H175.5L172.2 121.497H173.3L176.1 128.497L179 121.497ZM184.9 121.297C186.1 121.297 187.1 121.697 187.8 122.597C188.5 123.397 188.9 124.397 188.9 125.597C188.9 125.697 188.9 125.897 188.9 126.097H181.8C181.9 126.897 182.3 127.597 182.8 128.097C183.4 128.597 184.1 128.797 185 128.797C185.6 128.797 186.1 128.697 186.6 128.397C187.1 128.097 187.4 127.797 187.6 127.397L188.5 127.997C188.1 128.597 187.7 128.997 187 129.397C186.4 129.697 185.7 129.897 184.9 129.897C183.6 129.897 182.6 129.497 181.8 128.697C181 127.897 180.6 126.897 180.6 125.697C180.6 124.497 181 123.497 181.8 122.697C182.6 121.697 183.6 121.297 184.9 121.297ZM184.9 122.297C184.1 122.297 183.4 122.597 182.8 123.097C182.2 123.597 181.9 124.197 181.8 124.997H187.8C187.7 124.097 187.4 123.497 186.8 122.997C186.2 122.597 185.6 122.297 184.9 122.297ZM191.7 122.797C192.2 121.797 193 121.297 194.3 121.297V122.297C193.6 122.297 193 122.497 192.5 122.897C192 123.297 191.8 123.997 191.8 124.897V129.397H190.7V121.297H191.8V122.797H191.7ZM199.9 118.297H201V129.597H199.9V118.297ZM207.3 121.297C208.3 121.297 209.1 121.597 209.6 122.197C210.2 122.797 210.5 123.597 210.5 124.597V129.597H209.4V124.597C209.4 123.897 209.2 123.297 208.8 122.897C208.4 122.497 207.9 122.297 207.2 122.297C206.4 122.297 205.8 122.497 205.3 122.997C204.8 123.497 204.6 124.197 204.6 125.297V129.497H203.5V121.397H204.6V122.697C205.1 121.797 206 121.297 207.3 121.297ZM219.5 118.297H220.6V129.597H219.5V127.997C218.8 129.197 217.7 129.797 216.2 129.797C215 129.797 214.1 129.397 213.2 128.597C212.4 127.797 212 126.797 212 125.597C212 124.397 212.4 123.397 213.2 122.597C214 121.797 215 121.397 216.2 121.397C217.6 121.397 218.7 121.997 219.5 123.197V118.297ZM214 127.797C214.6 128.397 215.4 128.697 216.3 128.697C217.2 128.697 218 128.397 218.6 127.797C219.2 127.197 219.5 126.397 219.5 125.497C219.5 124.597 219.2 123.797 218.6 123.197C218 122.597 217.2 122.297 216.3 122.297C215.4 122.297 214.6 122.597 214 123.197C213.4 123.797 213.1 124.597 213.1 125.497C213.1 126.397 213.4 127.197 214 127.797ZM223.9 119.597C223.7 119.797 223.6 119.797 223.3 119.797C223.1 119.797 222.9 119.697 222.7 119.597C222.5 119.397 222.5 119.297 222.5 118.997C222.5 118.697 222.6 118.597 222.7 118.397C222.9 118.197 223 118.197 223.3 118.197C223.5 118.197 223.7 118.297 223.9 118.397C224.1 118.497 224.1 118.697 224.1 118.997C224.1 119.297 224 119.397 223.9 119.597ZM222.8 129.597V121.497H223.9V129.597H222.8ZM233.1 121.497H234.2V129.597H233.1V127.997C232.4 129.197 231.3 129.797 229.8 129.797C228.6 129.797 227.7 129.397 226.8 128.597C226 127.797 225.6 126.797 225.6 125.597C225.6 124.397 226 123.397 226.8 122.597C227.6 121.797 228.6 121.397 229.8 121.397C231.2 121.397 232.3 121.997 233.1 123.197V121.497ZM227.6 127.797C228.2 128.397 229 128.697 229.9 128.697C230.8 128.697 231.6 128.397 232.2 127.797C232.8 127.197 233.1 126.397 233.1 125.497C233.1 124.597 232.8 123.797 232.2 123.197C231.6 122.597 230.8 122.297 229.9 122.297C229 122.297 228.2 122.597 227.6 123.197C227 123.797 226.7 124.597 226.7 125.497C226.7 126.397 227 127.197 227.6 127.797Z" fill="black"/>
<mask id="mask0_1137_3629" style="mask-type:luminance" maskUnits="userSpaceOnUse" x="299" y="38" width="116" height="116">
<path d="M414.997 38H299.797V153.2H414.997V38Z" fill="white"/>
</mask>
<g mask="url(#mask0_1137_3629)">
<path d="M414.597 95.5984C414.597 127.198 388.997 152.698 357.497 152.698C325.997 152.698 300.297 127.098 300.297 95.5984C300.297 64.0984 325.797 38.3984 357.397 38.3984C388.997 38.3984 414.597 63.9984 414.597 95.5984Z" fill="white"/>
<path d="M414.597 95.5984C414.597 127.198 388.997 152.698 357.497 152.698C325.997 152.698 300.297 127.098 300.297 95.5984C300.297 64.0984 325.797 38.3984 357.397 38.3984C388.997 38.3984 414.597 63.9984 414.597 95.5984Z" fill="url(#paint1_linear_1137_3629)"/>
<path d="M414.597 95.5984C414.597 127.198 388.997 152.698 357.497 152.698C325.997 152.698 300.297 127.098 300.297 95.5984C300.297 64.0984 325.797 38.3984 357.397 38.3984C388.997 38.3984 414.597 63.9984 414.597 95.5984Z" stroke="#85FFBE" stroke-width="0.9"/>
<path d="M342.097 111.697C342.397 111.697 342.797 111.597 342.997 111.297C343.197 111.097 343.397 110.697 343.397 110.397V108.597C343.397 108.397 343.397 108.197 343.297 108.097C343.197 107.897 343.197 107.797 342.997 107.697C342.897 107.597 342.697 107.497 342.597 107.397C342.397 107.297 342.297 107.297 342.097 107.297C341.897 107.297 341.697 107.297 341.597 107.397C341.397 107.497 341.297 107.597 341.197 107.697C341.097 107.797 340.997 107.997 340.897 108.097C340.797 108.297 340.797 108.397 340.797 108.597V110.397C340.797 110.697 340.897 111.097 341.197 111.297C341.397 111.597 341.797 111.697 342.097 111.697Z" fill="white"/>
<path d="M389.1 121.197H387.4V92.7969C388.8 92.5969 390 91.7969 390.9 90.7969C391.8 89.6969 392.3 88.3968 392.3 86.9968V82.8969V82.7969V82.6968V82.5969L387.8 73.5969V72.7969H327.2V73.5969L322.7 82.5969V82.6968V82.7969V82.8969V86.9968C322.7 88.3968 323.2 89.6969 324.1 90.7969C325 91.8969 326.2 92.5969 327.6 92.7969V121.197H325.8C324.9 121.197 324.1 121.497 323.5 122.097C322.9 122.697 322.6 123.497 322.5 124.397V127.597C322.5 127.997 322.7 128.497 323 128.797C323.3 129.097 323.7 129.297 324.2 129.297H390.8C391.2 129.297 391.7 129.097 392 128.797C392.3 128.497 392.5 128.097 392.5 127.597V124.397C392.5 123.997 392.4 123.597 392.2 123.197C392 122.797 391.8 122.497 391.5 122.197C391.2 121.897 390.8 121.697 390.4 121.497C389.9 121.297 389.5 121.197 389.1 121.197ZM390.2 87.0969C390.2 88.0969 389.8 89.0969 389.1 89.7969C388.4 90.4969 387.4 90.8969 386.4 90.8969C385.4 90.8969 384.4 90.4969 383.7 89.7969C383 89.0969 382.6 88.0969 382.6 87.0969V84.1968H390.2V87.0969ZM386 74.8969L389.6 82.0969H382.3L379.7 74.8969H386ZM377.5 74.8969L380.1 82.0969H372.7L371.2 74.8969H377.5ZM380.5 84.0969V87.0969C380.5 87.5969 380.4 88.0969 380.2 88.5969C380 89.0969 379.7 89.4969 379.4 89.7969C379 90.1969 378.6 90.3969 378.2 90.5969C377.8 90.7969 377.2 90.8969 376.7 90.8969C376.2 90.8969 375.7 90.7969 375.2 90.5969C374.7 90.3969 374.3 90.0969 374 89.7969C373.6 89.3969 373.4 88.9969 373.2 88.5969C373 88.0969 372.9 87.5969 372.9 87.0969V84.1968L380.5 84.0969ZM369.1 74.8969L370.6 82.0969H363.1L362.6 74.8969H369.1ZM370.9 84.0969V87.0969C370.9 88.0969 370.5 89.0969 369.8 89.7969C369.1 90.4969 368.1 90.8969 367.1 90.8969C366.1 90.8969 365.1 90.4969 364.4 89.7969C363.7 89.0969 363.3 88.0969 363.3 87.0969V84.1968L370.9 84.0969ZM354.2 74.8969H360.6L361.1 82.0969H353.6L354.2 74.8969ZM353.6 84.0969H361.2V87.0969C361.2 88.0969 360.8 89.0969 360.1 89.7969C359.4 90.4969 358.4 90.8969 357.4 90.8969C356.4 90.8969 355.4 90.4969 354.7 89.7969C354 89.0969 353.6 88.0969 353.6 87.0969V84.0969ZM345.7 74.8969H352.1L351.6 82.0969H344.2L345.7 74.8969ZM343.9 84.0969H351.5V86.9968C351.5 87.9968 351.1 88.9968 350.4 89.6968C349.7 90.3968 348.7 90.7969 347.7 90.7969C346.7 90.7969 345.7 90.3968 345 89.6968C344.3 88.9968 343.9 87.9968 343.9 86.9968V84.0969ZM347.7 92.8969C348.7 92.8969 349.6 92.6968 350.4 92.1968C351.2 91.7968 352 91.0969 352.5 90.2969C353 91.0969 353.8 91.6968 354.6 92.1968C355.4 92.6968 356.4 92.8969 357.3 92.8969C358.2 92.8969 359.2 92.6968 360 92.1968C360.8 91.7968 361.6 91.0969 362.1 90.2969C362.6 91.0969 363.4 91.6968 364.2 92.1968C365 92.5968 366 92.8969 366.9 92.8969C367.8 92.8969 368.8 92.6968 369.6 92.1968C370.4 91.7968 371.2 91.0969 371.7 90.2969C372.2 91.0969 373 91.6968 373.8 92.1968C374.6 92.5968 375.6 92.8969 376.5 92.8969C377.4 92.8969 378.4 92.6968 379.2 92.1968C380 91.7968 380.8 91.0969 381.3 90.2969C381.7 90.8969 382.3 91.4969 383 91.8969C383.7 92.2969 384.4 92.5969 385.2 92.7969V121.197H346.7V98.4968C346.7 97.9968 346.5 97.4968 346.1 97.1968C345.7 96.7968 345.3 96.5969 344.8 96.5969H333C332.5 96.5969 332 96.7968 331.7 97.1968C331.4 97.5968 331.2 97.9968 331.2 98.4968V121.197H329.4V92.7969C330.2 92.6969 330.9 92.3969 331.6 91.8969C332.3 91.4969 332.8 90.8969 333.3 90.2969C333.8 91.0969 334.6 91.6968 335.4 92.1968C336.2 92.5968 337.2 92.8969 338.1 92.8969C339 92.8969 340 92.6968 340.8 92.1968C341.6 91.6968 342.4 91.0969 342.9 90.2969C343.4 91.0969 344.1 91.6968 345 92.1968C345.9 92.6968 346.8 92.8969 347.7 92.8969ZM344.8 98.5969V121.197H333.3V98.5969H344.8ZM334.3 87.0969V84.1968H341.9V87.0969C341.9 88.0969 341.5 89.0969 340.8 89.7969C340.1 90.4969 339.1 90.8969 338.1 90.8969C337.1 90.8969 336.1 90.4969 335.4 89.7969C334.7 88.9969 334.3 88.0969 334.3 87.0969ZM343.6 74.8969L342.1 82.0969H334.7L337.3 74.8969H343.6ZM328.8 74.8969H335.1L332.5 82.0969H325.2L328.8 74.8969ZM324.6 87.0969V84.1968H332.2V87.0969C332.2 88.0969 331.8 89.0969 331.1 89.7969C330.4 90.4969 329.4 90.8969 328.4 90.8969C327.4 90.8969 326.4 90.4969 325.7 89.7969C325 88.9969 324.6 88.0969 324.6 87.0969ZM390.3 127.297H324.6V124.397C324.6 124.097 324.7 123.797 324.9 123.597C325.1 123.397 325.4 123.297 325.7 123.197H389.1C389.4 123.197 389.7 123.297 389.9 123.497C390.1 123.697 390.2 123.997 390.3 124.297V127.297Z" fill="white"/>
<path d="M350.898 116.998H380.698C381.298 116.998 381.798 116.798 382.198 116.398C382.598 115.998 382.798 115.398 382.798 114.898V98.4984C382.798 97.8984 382.598 97.3984 382.198 96.9984C381.798 96.5984 381.298 96.3984 380.698 96.3984H368.198C367.998 96.3984 367.798 96.3984 367.698 96.4984C367.498 96.5984 367.398 96.5985 367.298 96.7985C367.198 96.8985 367.098 97.0984 366.998 97.1984C366.898 97.3984 366.898 97.4984 366.898 97.6984C366.898 97.8984 366.898 97.9984 366.998 98.1984C367.098 98.3984 367.198 98.4984 367.298 98.5984C367.398 98.6984 367.598 98.7984 367.698 98.8984C367.898 98.9984 367.998 98.9984 368.198 98.9984H380.298V114.698H351.298V98.9984H363.398C363.598 98.9984 363.798 98.9984 363.898 98.8984C364.098 98.7984 364.198 98.7984 364.298 98.5984C364.398 98.4984 364.498 98.2984 364.598 98.1984C364.698 97.9984 364.698 97.8984 364.698 97.6984C364.698 97.4984 364.698 97.3984 364.598 97.1984C364.498 96.9984 364.398 96.8985 364.298 96.7985C364.198 96.6985 363.998 96.5984 363.898 96.4984C363.698 96.3984 363.598 96.3984 363.398 96.3984H350.998C350.398 96.3984 349.898 96.5984 349.498 96.9984C349.098 97.3984 348.898 97.8984 348.898 98.4984V114.898C348.898 115.498 349.098 115.998 349.498 116.398C349.798 116.798 350.298 116.998 350.898 116.998Z" fill="white"/>
<path d="M357.1 56.5C353.5 56.5 351.5 59.7 351.5 64.5C351.5 65.6 351.6 66.7 351.9 67.7C352.1 68.4 352.3 69.1 352.7 69.7C353.1 70.5 353.7 71.2 354.5 71.6C355.3 72.1 356.1 72.3 357 72.3C357.9 72.3 358.8 72.1 359.6 71.6C360.4 71.1 361 70.5 361.4 69.6C361.8 69 362 68.3 362.2 67.6C362.5 66.5 362.6 65.4 362.6 64.2C362.6 59.8 360.8 56.5 357.1 56.5ZM359.3 67.7C359.2 68.5 358.8 69.2 358.2 69.7C357.9 70 357.5 70.1 357.1 70.1C356.7 70.1 356.3 70 356 69.7C355.4 69.2 355 68.4 354.9 67.7C354.6 66.6 354.5 65.6 354.6 64.5C354.6 60.6 355.7 58.7 357.2 58.7C358.9 58.7 359.8 60.8 359.8 64.4C359.7 65.5 359.6 66.6 359.3 67.7Z" fill="white"/>
<path d="M370.998 56.5C367.398 56.5 365.398 59.7 365.398 64.5C365.398 65.6 365.498 66.7 365.798 67.7C365.998 68.4 366.198 69.1 366.598 69.7C366.998 70.5 367.598 71.2 368.398 71.6C369.198 72.1 369.998 72.3 370.898 72.3C371.798 72.3 372.698 72.1 373.498 71.6C374.298 71.1 374.898 70.4 375.398 69.6C375.698 69 375.998 68.3 376.098 67.6C376.398 66.5 376.498 65.4 376.498 64.2C376.398 59.8 374.698 56.5 370.998 56.5ZM373.098 67.7C372.998 68.5 372.598 69.2 371.998 69.7C371.698 70 371.298 70.1 370.898 70.1C370.498 70.1 370.098 70 369.798 69.7C369.198 69.2 368.798 68.4 368.598 67.7C368.398 66.6 368.198 65.6 368.298 64.5C368.298 60.6 369.398 58.7 370.898 58.7C372.598 58.7 373.498 60.8 373.498 64.4C373.498 65.5 373.398 66.6 373.098 67.7Z" fill="white"/>
<path d="M338.398 72.0969V70.3969L340.198 68.6968C343.798 65.3968 345.398 63.5969 345.498 61.5969C345.498 60.1969 344.798 59.0969 342.798 59.0969C341.598 59.1969 340.498 59.5969 339.598 60.3969L338.798 58.3969C340.098 57.3969 341.798 56.7969 343.498 56.7969C346.798 56.7969 348.498 58.8969 348.498 61.3969C348.498 63.9969 346.598 66.1969 343.998 68.5969L342.698 69.6968H348.898V72.0969H338.398Z" fill="white"/>
</g>
<defs>
<linearGradient id="paint0_linear_1137_3629" x1="263.5" y1="0" x2="263.5" y2="210.632" gradientUnits="userSpaceOnUse">
<stop stop-color="white"/>
<stop offset="1" stop-color="#C7FFE2"/>
</linearGradient>
<linearGradient id="paint1_linear_1137_3629" x1="357.397" y1="37.9984" x2="357.397" y2="153.198" gradientUnits="userSpaceOnUse">
<stop stop-color="#006630"/>
<stop offset="1" stop-color="#138F4C"/>
</linearGradient>
</defs>
</svg>
