<svg width="527" height="216" viewBox="0 0 527 216" fill="none" xmlns="http://www.w3.org/2000/svg">
<path fill-rule="evenodd" clip-rule="evenodd" d="M527 183V0H0V183H241.6L255.3 202.6C259 207.9 260.9 210.6 263.5 210.6C266.1 210.6 268 207.9 271.7 202.6L285.4 183H527Z" fill="url(#paint0_linear_1137_3633)"/>
<path d="M241.6 184L244.9 181.7L243.7 180H241.6V184ZM285.4 184V180H283.3L282.1 181.7L285.4 184ZM241.6 180H0V188H241.6V180ZM258.6 201.3L244.9 181.7L238.3 186.3L252 205.9L258.6 201.3ZM263.5 207.6C263.8 207.6 263.7 207.9 262.7 206.9C261.7 205.8 260.5 204.1 258.5 201.3L251.9 205.9C253.7 208.5 255.3 210.8 256.8 212.4C258.4 214.1 260.5 215.7 263.4 215.7V207.6H263.5ZM268.4 201.3C266.5 204.1 265.3 205.8 264.2 206.9C263.3 207.9 263.1 207.6 263.4 207.6V215.6C266.3 215.6 268.4 214 270 212.3C271.5 210.7 273.1 208.4 274.9 205.8L268.4 201.3ZM282.1 181.7L268.4 201.3L275 205.9L288.7 186.3L282.1 181.7ZM527 180H285.4V188H527V180Z" fill="#65FFAE"/>
<path d="M169.6 84.3992V82.0992L175 76.5992C176.2 75.2992 176.8 74.2992 176.8 73.3992C176.8 72.7992 176.6 72.2992 176.2 71.8992C175.8 71.4992 175.3 71.2992 174.7 71.2992C173.5 71.2992 172.6 71.8992 172.1 73.0992L169.5 71.5992C170 70.4992 170.7 69.6992 171.6 69.0992C172.5 68.4992 173.5 68.1992 174.7 68.1992C176.1 68.1992 177.3 68.5992 178.4 69.4992C179.4 70.3992 179.9 71.5992 179.9 73.0992C179.9 74.6992 179 76.3992 177.3 78.0992L174.2 81.1992H180.1V84.1992H169.6V84.3992ZM187.8 84.6992C185.8 84.6992 184.3 83.9992 183.2 82.4992C182.1 80.9992 181.5 78.9992 181.5 76.4992C181.5 73.9992 182.1 71.9992 183.2 70.5992C184.3 69.0992 185.9 68.3992 187.8 68.3992C189.8 68.3992 191.3 69.1992 192.4 70.5992C193.5 72.0992 194.1 74.0992 194.1 76.4992C194.1 78.9992 193.5 80.9992 192.4 82.4992C191.3 83.9992 189.8 84.6992 187.8 84.6992ZM185.4 80.3992C185.9 81.2992 186.7 81.6992 187.8 81.6992C188.9 81.6992 189.6 81.2992 190.2 80.3992C190.8 79.4992 191 78.1992 191 76.5992C191 74.8992 190.7 73.5992 190.2 72.7992C189.7 71.8992 188.9 71.4992 187.8 71.4992C186.8 71.4992 186 71.8992 185.4 72.7992C184.9 73.6992 184.6 74.9992 184.6 76.5992C184.6 78.1992 184.9 79.4992 185.4 80.3992ZM195.1 84.3992V82.0992L200.5 76.5992C201.7 75.2992 202.3 74.2992 202.3 73.3992C202.3 72.7992 202.1 72.2992 201.7 71.8992C201.3 71.4992 200.8 71.2992 200.2 71.2992C199 71.2992 198.1 71.8992 197.6 73.0992L195 71.5992C195.5 70.4992 196.2 69.6992 197.1 69.0992C198 68.4992 199 68.1992 200.2 68.1992C201.6 68.1992 202.8 68.5992 203.9 69.4992C204.9 70.3992 205.4 71.5992 205.4 73.0992C205.4 74.6992 204.5 76.3992 202.8 78.0992L199.7 81.1992H205.6V84.1992H195.1V84.3992ZM210.5 68.6992H213.2V84.4992H210.1V71.9992L207.1 72.7992L206.3 70.0992L210.5 68.6992Z" fill="black"/>
<path d="M116.797 111C115.097 111 113.697 110.4 112.497 109.3C111.397 108.2 110.797 106.8 110.797 105.1C110.797 103.5 111.397 102.1 112.497 100.9C113.597 99.8 114.997 99.2 116.797 99.2C117.797 99.2 118.797 99.5 119.697 100C120.597 100.5 121.197 101.2 121.697 102L120.697 102.6C120.297 101.9 119.797 101.4 119.097 100.9C118.397 100.5 117.597 100.3 116.797 100.3C115.397 100.3 114.197 100.8 113.297 101.7C112.397 102.6 111.997 103.7 111.997 105.1C111.997 106.4 112.397 107.6 113.297 108.5C114.197 109.4 115.397 109.9 116.797 109.9C117.597 109.9 118.397 109.7 119.097 109.3C119.797 108.9 120.297 108.3 120.697 107.6L121.697 108.2C121.197 109.1 120.597 109.7 119.697 110.2C118.797 110.7 117.797 111 116.797 111ZM124.497 104C124.997 103 125.897 102.5 127.097 102.5V103.5C126.397 103.5 125.797 103.7 125.297 104.1C124.797 104.5 124.597 105.2 124.597 106.1V110.6H123.497V102.5H124.597V104H124.497ZM134.797 109.8C133.997 110.6 132.997 111 131.797 111C130.597 111 129.597 110.6 128.797 109.8C127.997 109 127.597 108 127.597 106.8C127.597 105.6 127.997 104.6 128.797 103.8C129.597 103 130.597 102.6 131.797 102.6C132.997 102.6 133.997 103 134.797 103.8C135.597 104.6 135.997 105.6 135.997 106.8C135.997 107.9 135.597 109 134.797 109.8ZM129.497 109C130.097 109.6 130.897 109.9 131.797 109.9C132.697 109.9 133.497 109.6 134.097 109C134.697 108.4 134.997 107.6 134.997 106.7C134.997 105.8 134.697 105 134.097 104.4C133.497 103.8 132.697 103.5 131.797 103.5C130.897 103.5 130.097 103.8 129.497 104.4C128.897 105 128.597 105.8 128.597 106.7C128.597 107.6 128.897 108.4 129.497 109ZM138.497 104.8C138.497 105.2 138.697 105.5 138.997 105.7C139.297 105.9 139.697 106.1 140.197 106.2C140.697 106.3 141.097 106.5 141.597 106.6C142.097 106.7 142.497 107 142.797 107.3C143.097 107.6 143.297 108.1 143.297 108.6C143.297 109.3 142.997 109.9 142.497 110.3C141.997 110.7 141.297 110.9 140.397 110.9C139.597 110.9 138.997 110.7 138.397 110.4C137.897 110.1 137.497 109.6 137.297 109.1L138.197 108.6C138.397 109 138.597 109.4 138.997 109.6C139.397 109.8 139.897 110 140.397 110C140.897 110 141.397 109.9 141.697 109.7C142.097 109.5 142.197 109.2 142.197 108.7C142.197 108.3 141.997 108 141.697 107.8C141.397 107.6 140.997 107.4 140.497 107.3C139.997 107.2 139.597 107.1 139.097 106.9C138.597 106.7 138.197 106.5 137.897 106.2C137.597 105.9 137.397 105.4 137.397 104.9C137.397 104.2 137.697 103.7 138.197 103.2C138.697 102.8 139.397 102.5 140.197 102.5C140.897 102.5 141.397 102.7 141.897 103C142.397 103.3 142.797 103.7 142.997 104.2L142.097 104.7C141.797 103.9 141.097 103.6 140.197 103.6C139.697 103.6 139.297 103.7 138.997 103.9C138.697 104.1 138.497 104.4 138.497 104.8ZM145.397 104.8C145.397 105.2 145.597 105.5 145.897 105.7C146.197 105.9 146.597 106.1 147.097 106.2C147.597 106.3 147.997 106.5 148.497 106.6C148.997 106.7 149.397 107 149.697 107.3C149.997 107.6 150.197 108.1 150.197 108.6C150.197 109.3 149.897 109.9 149.397 110.3C148.897 110.7 148.197 110.9 147.297 110.9C146.497 110.9 145.897 110.7 145.297 110.4C144.797 110.1 144.397 109.6 144.197 109.1L145.097 108.6C145.297 109 145.497 109.4 145.897 109.6C146.297 109.8 146.797 110 147.297 110C147.797 110 148.297 109.9 148.597 109.7C148.997 109.5 149.097 109.2 149.097 108.7C149.097 108.3 148.897 108 148.597 107.8C148.297 107.6 147.897 107.4 147.397 107.3C146.897 107.2 146.497 107.1 145.997 106.9C145.497 106.7 145.097 106.5 144.797 106.2C144.497 105.9 144.297 105.4 144.297 104.9C144.297 104.2 144.597 103.7 145.097 103.2C145.597 102.8 146.297 102.5 147.097 102.5C147.797 102.5 148.297 102.7 148.797 103C149.297 103.3 149.697 103.7 149.897 104.2L148.997 104.7C148.697 103.9 147.997 103.6 147.097 103.6C146.597 103.6 146.197 103.7 145.897 103.9C145.597 104.1 145.397 104.4 145.397 104.8ZM155.397 102.5C156.597 102.5 157.597 102.9 158.297 103.8C158.997 104.6 159.397 105.6 159.397 106.8C159.397 106.9 159.397 107.1 159.397 107.3H152.297C152.397 108.1 152.797 108.8 153.297 109.3C153.897 109.8 154.597 110 155.497 110C156.097 110 156.597 109.9 157.097 109.6C157.597 109.3 157.897 109 158.097 108.6L158.997 109.2C158.597 109.8 158.197 110.2 157.497 110.6C156.797 111 156.197 111.1 155.397 111.1C154.097 111.1 153.097 110.7 152.297 109.9C151.497 109.1 151.097 108.1 151.097 106.9C151.097 105.7 151.497 104.7 152.297 103.9C153.097 102.9 154.197 102.5 155.397 102.5ZM155.397 103.5C154.597 103.5 153.897 103.8 153.297 104.3C152.697 104.8 152.397 105.4 152.297 106.2H158.297C158.197 105.3 157.897 104.7 157.297 104.2C156.797 103.8 156.097 103.5 155.397 103.5ZM168.097 99.5H169.197V110.8H168.097V109.2C167.397 110.4 166.297 111 164.797 111C163.597 111 162.697 110.6 161.797 109.8C160.997 109 160.597 108 160.597 106.8C160.597 105.6 160.997 104.6 161.797 103.8C162.597 103 163.597 102.6 164.797 102.6C166.197 102.6 167.297 103.2 168.097 104.4V99.5ZM162.597 109C163.197 109.6 163.997 109.9 164.897 109.9C165.797 109.9 166.597 109.6 167.197 109C167.797 108.4 168.097 107.6 168.097 106.7C168.097 105.8 167.797 105 167.197 104.4C166.597 103.8 165.797 103.5 164.897 103.5C163.997 103.5 163.197 103.8 162.597 104.4C161.997 105 161.697 105.8 161.697 106.7C161.697 107.6 161.997 108.4 162.597 109ZM179.197 104.2C180.097 104.3 180.897 104.7 181.397 105.3C181.997 105.9 182.297 106.6 182.297 107.6C182.297 108.7 181.897 109.5 181.197 110.2C180.497 110.8 179.597 111.1 178.497 111.1C177.697 111.1 176.897 110.9 176.197 110.5C175.497 110.1 175.097 109.6 174.797 108.8L175.697 108.2C175.897 108.8 176.197 109.2 176.697 109.5C177.197 109.8 177.697 109.9 178.397 109.9C179.197 109.9 179.797 109.7 180.297 109.3C180.797 108.9 181.097 108.3 181.097 107.5C181.097 106.7 180.797 106.2 180.297 105.7C179.797 105.3 179.197 105.1 178.397 105.1H178.097L177.597 104.4L180.397 100.5H175.097V99.4H181.697V100.5L179.197 104.2ZM191.197 109.4C190.497 110.5 189.397 111 187.997 111C186.597 111 185.597 110.5 184.797 109.4C184.097 108.3 183.697 106.9 183.697 105.1C183.697 103.3 184.097 101.9 184.797 100.8C185.597 99.7 186.597 99.2 187.997 99.2C189.397 99.2 190.397 99.7 191.197 100.8C191.997 101.9 192.297 103.3 192.297 105.1C192.297 106.9 191.897 108.3 191.197 109.4ZM185.697 108.6C186.297 109.4 186.997 109.8 187.997 109.8C188.997 109.8 189.797 109.4 190.297 108.6C190.897 107.8 191.097 106.6 191.097 105.1C191.097 103.6 190.797 102.4 190.297 101.6C189.697 100.8 188.997 100.4 187.997 100.4C186.997 100.4 186.197 100.8 185.697 101.6C185.097 102.4 184.897 103.6 184.897 105.1C184.897 106.6 185.097 107.8 185.697 108.6ZM201.397 109.4C200.697 110.5 199.597 111 198.197 111C196.797 111 195.797 110.5 194.997 109.4C194.297 108.3 193.897 106.9 193.897 105.1C193.897 103.3 194.297 101.9 194.997 100.8C195.797 99.7 196.797 99.2 198.197 99.2C199.597 99.2 200.597 99.7 201.397 100.8C202.197 101.9 202.497 103.3 202.497 105.1C202.497 106.9 202.197 108.3 201.397 109.4ZM195.897 108.6C196.497 109.4 197.197 109.8 198.197 109.8C199.197 109.8 199.997 109.4 200.497 108.6C201.097 107.8 201.297 106.6 201.297 105.1C201.297 103.6 200.997 102.4 200.497 101.6C199.897 100.8 199.197 100.4 198.197 100.4C197.197 100.4 196.397 100.8 195.897 101.6C195.297 102.4 195.097 103.6 195.097 105.1C195.097 106.6 195.397 107.8 195.897 108.6ZM218.097 109.3C216.997 110.4 215.597 111 213.897 111C212.297 111 210.897 110.4 209.697 109.3C208.597 108.2 207.997 106.8 207.997 105.1C207.997 103.5 208.597 102.1 209.697 101C210.797 99.9 212.197 99.3 213.897 99.3C215.497 99.3 216.897 99.9 218.097 101C219.197 102.1 219.797 103.5 219.797 105.1C219.797 106.8 219.197 108.1 218.097 109.3ZM210.497 108.5C211.397 109.4 212.497 109.9 213.897 109.9C215.197 109.9 216.397 109.4 217.297 108.5C218.197 107.6 218.697 106.4 218.697 105.1C218.697 103.8 218.197 102.6 217.297 101.7C216.397 100.8 215.297 100.3 213.897 100.3C212.597 100.3 211.397 100.8 210.497 101.7C209.597 102.6 209.097 103.7 209.097 105.1C209.197 106.5 209.597 107.6 210.497 108.5ZM227.297 102.7H228.397V110.8H227.297V109.5C226.697 110.5 225.797 111 224.597 111C223.597 111 222.797 110.7 222.297 110.1C221.697 109.5 221.497 108.7 221.497 107.7V102.7H222.597V107.7C222.597 108.4 222.797 109 223.197 109.4C223.597 109.8 224.097 110 224.797 110C225.597 110 226.197 109.8 226.697 109.3C227.197 108.8 227.397 108 227.397 107V102.7H227.297ZM234.897 103.7H232.597V108.6C232.597 109 232.697 109.4 232.897 109.6C233.097 109.8 233.297 109.9 233.697 109.9C233.997 109.9 234.497 109.9 234.997 109.9V110.8C233.897 111 232.997 110.9 232.397 110.6C231.797 110.3 231.597 109.6 231.597 108.7V103.8H229.897V102.8H231.597V100.9L232.697 100.6V102.9H234.997V103.7H234.897ZM236.697 110.8V99H237.797V110.8H236.697ZM243.797 102.5C244.997 102.5 245.997 102.9 246.697 103.8C247.397 104.6 247.797 105.6 247.797 106.8C247.797 106.9 247.797 107.1 247.797 107.3H240.697C240.797 108.1 241.197 108.8 241.697 109.3C242.297 109.8 242.997 110 243.897 110C244.497 110 244.997 109.9 245.497 109.6C245.997 109.3 246.297 109 246.497 108.6L247.397 109.2C246.997 109.8 246.597 110.2 245.897 110.6C245.197 111 244.597 111.1 243.797 111.1C242.497 111.1 241.497 110.7 240.697 109.9C239.897 109.1 239.497 108.1 239.497 106.9C239.497 105.7 239.897 104.7 240.697 103.9C241.597 102.9 242.597 102.5 243.797 102.5ZM243.797 103.5C242.997 103.5 242.197 103.8 241.697 104.3C241.097 104.8 240.797 105.4 240.697 106.2H246.697C246.597 105.3 246.297 104.7 245.697 104.2C245.097 103.7 244.497 103.5 243.797 103.5ZM253.597 103.7H251.297V108.6C251.297 109 251.397 109.4 251.597 109.6C251.797 109.8 251.997 109.9 252.397 109.9C252.697 109.9 253.197 109.9 253.697 109.9V110.8C252.597 111 251.697 110.9 251.097 110.6C250.497 110.3 250.297 109.6 250.297 108.7V103.8H248.597V102.8H250.297V100.9L251.397 100.6V102.9H253.697V103.7H253.597ZM255.697 104.8C255.697 105.2 255.897 105.5 256.197 105.7C256.497 105.9 256.897 106.1 257.397 106.2C257.897 106.3 258.297 106.5 258.797 106.6C259.297 106.7 259.697 107 259.997 107.3C260.297 107.6 260.497 108.1 260.497 108.6C260.497 109.3 260.197 109.9 259.697 110.3C259.197 110.7 258.497 110.9 257.597 110.9C256.797 110.9 256.197 110.7 255.597 110.4C255.097 110.1 254.697 109.6 254.497 109.1L255.397 108.6C255.597 109 255.797 109.4 256.197 109.6C256.597 109.8 257.097 110 257.597 110C258.097 110 258.597 109.9 258.897 109.7C259.297 109.5 259.397 109.2 259.397 108.7C259.397 108.3 259.197 108 258.897 107.8C258.597 107.6 258.197 107.4 257.697 107.3C257.197 107.2 256.797 107.1 256.297 106.9C255.797 106.7 255.397 106.5 255.097 106.2C254.797 105.9 254.597 105.4 254.597 104.9C254.597 104.2 254.897 103.7 255.397 103.2C255.897 102.8 256.597 102.5 257.397 102.5C258.097 102.5 258.597 102.7 259.097 103C259.597 103.3 259.997 103.7 260.197 104.2L259.297 104.7C258.997 103.9 258.297 103.6 257.397 103.6C256.897 103.6 256.497 103.7 256.197 103.9C255.897 104.1 255.697 104.4 255.697 104.8ZM145.897 129.8L144.797 127H139.397L138.297 129.8H137.097L141.497 118.5H142.697L147.097 129.8H145.897ZM139.897 125.9H144.497L142.197 119.8L139.897 125.9ZM148.397 129.8V118H149.497V129.8H148.397ZM151.697 129.8V118H152.797V129.8H151.697ZM168.697 128.3C167.597 129.4 166.197 130 164.497 130C162.897 130 161.497 129.4 160.297 128.3C159.197 127.2 158.597 125.8 158.597 124.1C158.597 122.5 159.197 121.1 160.297 120C161.397 118.9 162.797 118.3 164.497 118.3C166.097 118.3 167.497 118.9 168.697 120C169.797 121.1 170.397 122.5 170.397 124.1C170.397 125.8 169.797 127.1 168.697 128.3ZM161.097 127.5C161.997 128.4 163.097 128.9 164.497 128.9C165.797 128.9 166.997 128.4 167.897 127.5C168.797 126.6 169.297 125.4 169.297 124.1C169.297 122.8 168.797 121.6 167.897 120.7C166.997 119.8 165.897 119.3 164.497 119.3C163.197 119.3 161.997 119.8 161.097 120.7C160.197 121.6 159.697 122.7 159.697 124.1C159.797 125.5 160.197 126.6 161.097 127.5ZM177.997 121.7H179.097L175.797 129.8H174.497L171.197 121.7H172.297L175.097 128.7L177.997 121.7ZM183.797 121.5C184.997 121.5 185.997 121.9 186.697 122.8C187.397 123.6 187.797 124.6 187.797 125.8C187.797 125.9 187.797 126.1 187.797 126.3H180.697C180.797 127.1 181.197 127.8 181.697 128.3C182.297 128.8 182.997 129 183.897 129C184.497 129 184.997 128.9 185.497 128.6C185.997 128.3 186.297 128 186.497 127.6L187.397 128.2C186.997 128.8 186.597 129.2 185.897 129.6C185.297 129.9 184.597 130.1 183.797 130.1C182.497 130.1 181.497 129.7 180.697 128.9C179.897 128.1 179.497 127.1 179.497 125.9C179.497 124.7 179.897 123.7 180.697 122.9C181.597 121.9 182.597 121.5 183.797 121.5ZM183.797 122.5C182.997 122.5 182.297 122.8 181.697 123.3C181.097 123.8 180.797 124.4 180.697 125.2H186.697C186.597 124.3 186.297 123.7 185.697 123.2C185.197 122.8 184.597 122.5 183.797 122.5ZM190.597 123C191.097 122 191.897 121.5 193.197 121.5V122.5C192.497 122.5 191.897 122.7 191.397 123.1C190.897 123.5 190.697 124.2 190.697 125.1V129.6H189.597V121.5H190.697V123H190.597ZM198.797 118.5H199.897V129.8H198.797V118.5ZM206.197 121.5C207.197 121.5 207.997 121.8 208.497 122.4C209.097 123 209.397 123.8 209.397 124.8V129.8H208.297V124.8C208.297 124.1 208.097 123.5 207.697 123.1C207.297 122.7 206.797 122.5 206.097 122.5C205.297 122.5 204.697 122.7 204.197 123.2C203.697 123.7 203.497 124.4 203.497 125.5V129.7H202.397V121.6H203.497V122.9C204.097 122 204.997 121.5 206.197 121.5ZM218.397 118.5H219.497V129.8H218.397V128.2C217.697 129.4 216.597 130 215.097 130C213.897 130 212.997 129.6 212.097 128.8C211.297 128 210.897 127 210.897 125.8C210.897 124.6 211.297 123.6 212.097 122.8C212.897 122 213.897 121.6 215.097 121.6C216.497 121.6 217.597 122.2 218.397 123.4V118.5ZM212.997 128C213.597 128.6 214.397 128.9 215.297 128.9C216.197 128.9 216.997 128.6 217.597 128C218.197 127.4 218.497 126.6 218.497 125.7C218.497 124.8 218.197 124 217.597 123.4C216.997 122.8 216.197 122.5 215.297 122.5C214.397 122.5 213.597 122.8 212.997 123.4C212.397 124 212.097 124.8 212.097 125.7C211.997 126.6 212.297 127.4 212.997 128ZM222.797 119.8C222.597 120 222.497 120 222.197 120C221.997 120 221.797 119.9 221.597 119.8C221.397 119.6 221.397 119.5 221.397 119.2C221.397 118.9 221.497 118.8 221.597 118.6C221.797 118.4 221.897 118.4 222.197 118.4C222.397 118.4 222.597 118.5 222.797 118.6C222.997 118.7 222.997 118.9 222.997 119.2C222.997 119.5 222.997 119.6 222.797 119.8ZM221.697 129.8V121.7H222.797V129.8H221.697ZM232.097 121.7H233.197V129.8H232.097V128.2C231.397 129.4 230.297 130 228.797 130C227.597 130 226.697 129.6 225.797 128.8C224.997 128 224.597 127 224.597 125.8C224.597 124.6 224.997 123.6 225.797 122.8C226.597 122 227.597 121.6 228.797 121.6C230.197 121.6 231.297 122.2 232.097 123.4V121.7ZM226.597 128C227.197 128.6 227.997 128.9 228.897 128.9C229.797 128.9 230.597 128.6 231.197 128C231.797 127.4 232.097 126.6 232.097 125.7C232.097 124.8 231.797 124 231.197 123.4C230.597 122.8 229.797 122.5 228.897 122.5C227.997 122.5 227.197 122.8 226.597 123.4C225.997 124 225.697 124.8 225.697 125.7C225.697 126.6 225.997 127.4 226.597 128Z" fill="black"/>
<mask id="mask0_1137_3633" style="mask-type:luminance" maskUnits="userSpaceOnUse" x="301" y="37" width="116" height="116">
<path d="M416.2 37.8008H301V153.001H416.2V37.8008Z" fill="white"/>
</mask>
<g mask="url(#mask0_1137_3633)">
<path d="M415.8 95.3992C415.8 126.999 390.2 152.499 358.7 152.499C327.2 152.499 301.5 126.899 301.5 95.3992C301.5 63.7992 327.1 38.1992 358.7 38.1992C390.3 38.1992 415.8 63.7992 415.8 95.3992Z" fill="white"/>
<path d="M415.8 95.3992C415.8 126.999 390.2 152.499 358.7 152.499C327.2 152.499 301.5 126.899 301.5 95.3992C301.5 63.7992 327.1 38.1992 358.7 38.1992C390.3 38.1992 415.8 63.7992 415.8 95.3992Z" fill="url(#paint1_linear_1137_3633)"/>
<path d="M415.8 95.3992C415.8 126.999 390.2 152.499 358.7 152.499C327.2 152.499 301.5 126.899 301.5 95.3992C301.5 63.7992 327.1 38.1992 358.7 38.1992C390.3 38.1992 415.8 63.7992 415.8 95.3992Z" stroke="#85FFBE" stroke-width="0.9"/>
<path d="M342.8 113.898C343.1 113.898 343.5 113.798 343.7 113.498C343.9 113.298 344.1 112.898 344.1 112.598V110.698C344.1 110.398 344 109.998 343.7 109.798C343.4 109.598 343.1 109.398 342.8 109.398C342.5 109.398 342.1 109.498 341.9 109.798C341.7 109.998 341.5 110.398 341.5 110.698V112.598C341.5 112.898 341.6 113.298 341.9 113.498C342.1 113.798 342.5 113.898 342.8 113.898Z" fill="white"/>
<path d="M391.202 123.598H389.502V94.3984C390.902 94.1984 392.202 93.3984 393.102 92.2984C394.002 91.1984 394.502 89.7984 394.502 88.3984V84.2984V84.1984V84.0984V83.9984L389.702 74.6984V73.8984H327.502V74.6984L322.802 83.9984V84.0984V84.1984V84.2984V88.3984C322.802 89.7984 323.302 91.1984 324.202 92.2984C325.102 93.3984 326.402 94.0984 327.802 94.3984V123.598H326.002C325.102 123.598 324.302 123.898 323.602 124.598C323.002 125.198 322.602 126.098 322.602 126.898V130.198C322.602 130.398 322.602 130.698 322.702 130.898C322.802 131.098 322.902 131.298 323.102 131.498C323.302 131.698 323.502 131.798 323.702 131.898C323.902 131.998 324.102 131.998 324.402 131.998H392.802C393.302 131.998 393.702 131.798 394.002 131.498C394.302 131.198 394.502 130.698 394.502 130.298V126.998C394.502 126.098 394.202 125.298 393.502 124.698C392.902 123.998 392.102 123.598 391.202 123.598ZM392.402 88.4984C392.402 88.9984 392.302 89.5984 392.202 90.0984C392.002 90.5984 391.702 91.0984 391.402 91.3984C391.002 91.7984 390.602 92.0984 390.102 92.2984C389.602 92.4984 389.102 92.5984 388.602 92.5984C388.102 92.5984 387.502 92.4984 387.102 92.2984C386.602 92.0984 386.202 91.7984 385.802 91.3984C385.402 90.9984 385.102 90.5984 385.002 90.0984C384.802 89.5984 384.702 89.0984 384.802 88.4984V85.4984H392.602V88.4984H392.402ZM388.002 75.9984L391.702 83.3984H384.202L381.602 75.9984H388.002ZM379.302 75.9984L382.002 83.3984H374.402L372.802 75.9984H379.302ZM382.402 85.4984V88.4984C382.402 89.4984 382.002 90.4984 381.302 91.2984C380.602 91.9984 379.602 92.3984 378.502 92.3984C377.502 92.3984 376.502 91.9984 375.702 91.2984C375.002 90.5984 374.602 89.5984 374.602 88.4984V85.4984H382.402ZM370.602 75.9984L372.202 83.3984H364.502L364.002 75.9984H370.602ZM372.402 85.4984V88.4984C372.402 88.9984 372.302 89.5984 372.202 90.0984C372.002 90.5984 371.702 91.0984 371.402 91.3984C371.002 91.7984 370.602 92.0984 370.102 92.2984C369.602 92.4984 369.102 92.5984 368.602 92.5984C368.102 92.5984 367.502 92.4984 367.102 92.2984C366.602 92.0984 366.202 91.7984 365.802 91.3984C365.402 90.9984 365.102 90.5984 365.002 90.0984C364.802 89.5984 364.702 89.0984 364.802 88.4984V85.4984H372.402ZM355.302 75.9984H361.902L362.402 83.3984H354.702L355.302 75.9984ZM354.702 85.4984H362.502V88.4984C362.502 89.4984 362.102 90.4984 361.402 91.2984C360.702 91.9984 359.702 92.3984 358.602 92.3984C357.602 92.3984 356.602 91.9984 355.802 91.2984C355.102 90.5984 354.702 89.5984 354.702 88.4984V85.4984ZM346.602 75.9984H353.202L352.702 83.3984H345.002L346.602 75.9984ZM344.702 85.4984H352.502V88.4984C352.502 88.9984 352.402 89.5984 352.302 90.0984C352.102 90.5984 351.802 91.0984 351.502 91.3984C351.102 91.7984 350.702 92.0984 350.202 92.2984C349.702 92.4984 349.202 92.5984 348.702 92.5984C348.202 92.5984 347.602 92.4984 347.202 92.2984C346.702 92.0984 346.302 91.7984 345.902 91.3984C345.502 90.9984 345.202 90.5984 345.102 90.0984C344.902 89.5984 344.802 89.0984 344.902 88.4984V85.4984H344.702ZM348.602 94.4984C349.602 94.4984 350.502 94.2984 351.402 93.7984C352.302 93.2984 353.002 92.6984 353.602 91.8984C354.202 92.6984 354.902 93.3984 355.802 93.7984C356.702 94.2984 357.602 94.4984 358.602 94.4984C359.602 94.4984 360.502 94.2984 361.402 93.7984C362.302 93.2984 363.002 92.6984 363.602 91.8984C364.202 92.6984 364.902 93.3984 365.802 93.7984C366.702 94.2984 367.602 94.4984 368.602 94.4984C369.602 94.4984 370.502 94.2984 371.402 93.7984C372.302 93.2984 373.002 92.6984 373.602 91.8984C374.202 92.6984 374.902 93.3984 375.802 93.7984C376.702 94.2984 377.602 94.4984 378.602 94.4984C379.602 94.4984 380.502 94.2984 381.402 93.7984C382.302 93.2984 383.002 92.6984 383.602 91.8984C384.102 92.5984 384.602 93.0984 385.302 93.5984C386.002 93.9984 386.702 94.2984 387.502 94.4984V123.698H347.902V100.298C347.902 99.9984 347.902 99.7984 347.802 99.4984C347.702 99.2984 347.602 98.9984 347.402 98.8984C347.202 98.6984 347.002 98.5984 346.802 98.4984C346.602 98.3984 346.302 98.3984 346.002 98.3984H333.802C333.302 98.3984 332.802 98.5984 332.402 98.9984C332.002 99.3984 331.802 99.8984 331.802 100.398V123.798H329.902V94.5984C330.702 94.4984 331.402 94.1984 332.102 93.6984C332.802 93.2984 333.402 92.6984 333.802 91.9984C334.402 92.7984 335.102 93.4984 336.002 93.8984C336.902 94.3984 337.802 94.5984 338.802 94.5984C339.802 94.5984 340.702 94.3984 341.602 93.8984C342.502 93.3984 343.202 92.7984 343.802 91.9984C344.402 92.7984 345.102 93.4984 346.002 93.8984C346.702 94.2984 347.702 94.4984 348.602 94.4984ZM345.702 100.398V123.698H333.802V100.498L345.702 100.398ZM334.802 88.4984V85.4984H342.602V88.4984C342.602 89.4984 342.202 90.4984 341.502 91.2984C340.802 91.9984 339.802 92.3984 338.702 92.3984C337.702 92.3984 336.702 91.9984 335.902 91.2984C335.202 90.4984 334.802 89.4984 334.802 88.4984ZM344.402 75.9984L342.802 83.3984H335.202L337.902 75.9984H344.402ZM329.202 75.9984H335.702L333.102 83.3984H325.602L329.202 75.9984ZM324.802 88.4984V85.4984H332.602V88.4984C332.602 88.9984 332.502 89.5984 332.402 90.0984C332.202 90.5984 331.902 91.0984 331.602 91.3984C331.202 91.7984 330.802 92.0984 330.302 92.2984C329.802 92.4984 329.302 92.5984 328.802 92.5984C328.302 92.5984 327.702 92.4984 327.302 92.2984C326.802 92.0984 326.402 91.7984 326.002 91.3984C325.602 90.9984 325.302 90.5984 325.202 90.0984C324.902 89.5984 324.802 88.9984 324.802 88.4984ZM392.402 129.898H324.702V126.998C324.702 126.698 324.802 126.398 325.102 126.098C325.302 125.898 325.602 125.698 326.002 125.698H391.202C391.502 125.698 391.802 125.798 392.102 126.098C392.302 126.298 392.502 126.598 392.502 126.998V129.898H392.402Z" fill="white"/>
<path d="M351.9 119.3H382.5C383.1 119.3 383.7 119.1 384.1 118.7C384.5 118.3 384.7 117.7 384.7 117.1V100.2C384.7 99.6 384.5 99.1 384 98.6C383.5 98.1 383 98 382.4 98H369.5C369.2 98 368.8 98.1 368.6 98.4C368.4 98.6 368.2 99 368.2 99.3C368.2 99.6 368.3 100 368.6 100.2C368.8 100.4 369.2 100.6 369.5 100.6H382V116.7H352.1V100.6H364.5C364.8 100.6 365.2 100.5 365.4 100.2C365.6 100 365.8 99.6 365.8 99.3C365.8 99 365.7 98.6 365.4 98.4C365.2 98.2 364.8 98 364.5 98H351.7C351.1 98 350.6 98.2 350.1 98.6C349.7 99 349.5 99.6 349.5 100.2V117.1C349.5 117.7 349.7 118.2 350.1 118.7C350.8 119.1 351.3 119.3 351.9 119.3Z" fill="white"/>
<path d="M358.003 57C354.303 57 352.203 60.3 352.203 65.2C352.203 66.3 352.303 67.4 352.603 68.5C352.803 69.2 353.103 69.9 353.403 70.6C353.803 71.4 354.403 72.1 355.203 72.6C356.003 73.1 356.903 73.3 357.803 73.3C358.703 73.3 359.703 73.1 360.503 72.6C361.303 72.1 362.003 71.4 362.403 70.6C362.803 69.9 363.003 69.2 363.203 68.5C363.503 67.4 363.603 66.2 363.603 65C363.603 60.4 361.803 57 358.003 57ZM360.303 68.6C360.203 69.4 359.703 70.1 359.103 70.7C358.803 71 358.403 71.1 357.903 71.1C357.503 71.1 357.103 71 356.703 70.7C356.103 70.1 355.703 69.4 355.503 68.6C355.203 67.5 355.103 66.4 355.103 65.3C355.103 61.3 356.203 59.4 357.803 59.4C359.603 59.4 360.503 61.6 360.503 65.2C360.603 66.3 360.503 67.4 360.303 68.6Z" fill="white"/>
<path d="M372.198 57C368.498 57 366.398 60.3 366.398 65.2C366.398 66.3 366.498 67.4 366.798 68.5C366.998 69.2 367.298 69.9 367.598 70.6C367.998 71.4 368.598 72.1 369.398 72.6C370.198 73.1 371.098 73.3 371.998 73.3C372.898 73.3 373.898 73.1 374.698 72.6C375.498 72.1 376.198 71.4 376.598 70.6C376.998 69.9 377.298 69.2 377.398 68.5C377.698 67.4 377.798 66.2 377.798 65C377.798 60.4 376.098 57 372.198 57ZM374.498 68.6C374.398 69.4 373.998 70.2 373.298 70.7C372.998 71 372.598 71.1 372.098 71.1C371.698 71.1 371.298 71 370.898 70.7C370.298 70.1 369.898 69.4 369.698 68.6C369.398 67.5 369.298 66.4 369.298 65.3C369.298 61.3 370.398 59.4 371.998 59.4C373.798 59.4 374.698 61.6 374.698 65.2C374.898 66.3 374.798 67.4 374.498 68.6Z" fill="white"/>
<path d="M339.998 69.8984C341.098 70.4984 342.298 70.7984 343.498 70.7984C345.698 70.7984 346.598 69.5984 346.598 68.3984C346.598 66.5984 344.898 65.7984 343.098 65.7984H341.798V63.6984H343.098C344.398 63.6984 346.098 63.0984 346.098 61.5984C346.098 60.5984 345.298 59.6984 343.698 59.6984C342.598 59.6984 341.498 60.0984 340.598 60.6984L339.898 58.5984C341.198 57.7984 342.798 57.3984 344.298 57.3984C347.398 57.3984 349.098 59.0984 349.098 61.0984C349.098 61.8984 348.798 62.6984 348.298 63.3984C347.798 64.0984 347.098 64.4984 346.298 64.6984C347.198 64.7984 348.098 65.2984 348.698 65.9984C349.298 66.6984 349.698 67.5984 349.698 68.4984C349.698 71.0984 347.498 73.0984 343.698 73.0984C342.198 73.0984 340.698 72.7984 339.398 71.9984L339.998 69.8984Z" fill="white"/>
</g>
<defs>
<linearGradient id="paint0_linear_1137_3633" x1="263.5" y1="0" x2="263.5" y2="210.632" gradientUnits="userSpaceOnUse">
<stop stop-color="white"/>
<stop offset="1" stop-color="#C7FFE2"/>
</linearGradient>
<linearGradient id="paint1_linear_1137_3633" x1="358.6" y1="37.7992" x2="358.6" y2="152.999" gradientUnits="userSpaceOnUse">
<stop stop-color="#006630"/>
<stop offset="1" stop-color="#138F4C"/>
</linearGradient>
</defs>
</svg>
