<svg width="527" height="217" viewBox="0 0 527 217" fill="none" xmlns="http://www.w3.org/2000/svg">
<path fill-rule="evenodd" clip-rule="evenodd" d="M527 183V0H0V183H241.6L255.3 202.6C259 207.9 260.9 210.6 263.5 210.6C266.1 210.6 268 207.9 271.7 202.6L285.4 183H527Z" fill="url(#paint0_linear_1137_3628)"/>
<path d="M241.6 185L244.9 182.7L243.7 181H241.6V185ZM285.4 185V181H283.3L282.1 182.7L285.4 185ZM241.6 181H0V189H241.6V181ZM258.6 202.3L244.9 182.7L238.3 187.3L252 206.9L258.6 202.3ZM263.5 208.6C263.8 208.6 263.7 208.9 262.7 207.9C261.7 206.8 260.5 205.1 258.5 202.3L251.9 206.9C253.7 209.5 255.3 211.8 256.8 213.4C258.4 215.1 260.5 216.7 263.4 216.7V208.6H263.5ZM268.4 202.3C266.5 205.1 265.3 206.8 264.2 207.9C263.3 208.9 263.1 208.6 263.4 208.6V216.6C266.3 216.6 268.4 215 270 213.3C271.5 211.7 273.1 209.4 274.9 206.8L268.4 202.3ZM282.1 182.7L268.4 202.3L275 206.9L288.7 187.3L282.1 182.7ZM527 181H285.4V189H527V181Z" fill="#65FFAE"/>
<path d="M167.202 95.8031V93.5031L172.602 88.0031C173.802 86.7031 174.402 85.7031 174.402 84.9031C174.402 84.3031 174.202 83.8031 173.802 83.4031C173.402 83.0031 172.902 82.8031 172.302 82.8031C171.102 82.8031 170.202 83.4031 169.702 84.6031L167.102 83.1031C167.602 82.0031 168.302 81.2031 169.202 80.6031C170.102 80.0031 171.102 79.7031 172.302 79.7031C173.702 79.7031 174.902 80.1031 176.002 81.0031C177.002 81.9031 177.502 83.1031 177.502 84.6031C177.502 86.2031 176.602 87.9031 174.902 89.6031L171.802 92.7031H177.702V95.7031H167.202V95.8031ZM185.402 96.1031C183.402 96.1031 181.902 95.4031 180.802 93.9031C179.702 92.4031 179.102 90.4031 179.102 87.9031C179.102 85.4031 179.702 83.4031 180.802 82.0031C181.902 80.5031 183.502 79.8031 185.402 79.8031C187.402 79.8031 188.902 80.6031 190.002 82.0031C191.102 83.5031 191.702 85.5031 191.702 87.9031C191.702 90.4031 191.102 92.4031 190.002 93.9031C188.902 95.4031 187.402 96.1031 185.402 96.1031ZM183.002 91.8031C183.502 92.7031 184.302 93.1031 185.402 93.1031C186.502 93.1031 187.202 92.7031 187.802 91.8031C188.402 90.9031 188.602 89.6031 188.602 88.0031C188.602 86.3031 188.302 85.0031 187.802 84.2031C187.302 83.3031 186.502 82.9031 185.402 82.9031C184.402 82.9031 183.602 83.3031 183.002 84.2031C182.502 85.1031 182.202 86.4031 182.202 88.0031C182.202 89.6031 182.502 90.9031 183.002 91.8031ZM196.502 80.1031H199.202V95.9031H196.102V83.4031L193.102 84.2031L192.302 81.5031L196.502 80.1031ZM201.102 80.1031H211.302V82.7031L206.002 95.8031H202.602L207.802 83.0031H201.102V80.1031Z" fill="black"/>
<path d="M120 121.5C118.3 121.5 116.9 120.9 115.7 119.8C114.5 118.7 114 117.3 114 115.6C114 114 114.6 112.6 115.7 111.4C116.8 110.2 118.2 109.7 120 109.7C121 109.7 122 110 122.9 110.5C123.8 111 124.4 111.7 124.9 112.5L123.9 113.1C123.5 112.4 123 111.9 122.3 111.4C121.6 111 120.8 110.8 120 110.8C118.6 110.8 117.4 111.3 116.5 112.2C115.6 113.1 115.2 114.2 115.2 115.6C115.2 117 115.6 118.1 116.5 119C117.4 119.9 118.6 120.4 120 120.4C120.8 120.4 121.6 120.2 122.3 119.8C123 119.4 123.5 118.8 123.9 118.1L124.9 118.7C124.4 119.6 123.8 120.2 122.9 120.7C122 121.2 121 121.5 120 121.5ZM127.7 114.5C128.2 113.5 129 113 130.3 113V114C129.6 114 129 114.2 128.5 114.6C128 115 127.8 115.7 127.8 116.6V121.1H126.6V113H127.7V114.5ZM138 120.3C137.2 121.1 136.2 121.5 135 121.5C133.8 121.5 132.8 121.1 132 120.3C131.2 119.5 130.8 118.5 130.8 117.3C130.8 116.1 131.2 115.1 132 114.3C132.8 113.5 133.8 113.1 135 113.1C136.2 113.1 137.2 113.5 138 114.3C138.8 115.1 139.2 116.1 139.2 117.3C139.2 118.5 138.8 119.5 138 120.3ZM132.7 119.5C133.3 120.1 134.1 120.4 135 120.4C135.9 120.4 136.7 120.1 137.3 119.5C137.9 118.9 138.2 118.1 138.2 117.2C138.2 116.3 137.9 115.5 137.3 114.9C136.7 114.3 135.9 114 135 114C134.1 114 133.3 114.3 132.7 114.9C132.1 115.5 131.8 116.3 131.8 117.2C131.8 118.1 132.1 118.9 132.7 119.5ZM141.7 115.3C141.7 115.7 141.9 116 142.2 116.2C142.5 116.4 142.9 116.6 143.4 116.7C143.9 116.8 144.3 117 144.8 117.1C145.3 117.2 145.7 117.5 146 117.8C146.3 118.1 146.5 118.6 146.5 119.1C146.5 119.8 146.2 120.4 145.7 120.8C145.2 121.2 144.5 121.4 143.6 121.4C142.8 121.4 142.2 121.2 141.6 120.9C141.1 120.6 140.7 120.1 140.5 119.6L141.4 119.1C141.6 119.5 141.8 119.9 142.2 120.1C142.6 120.3 143.1 120.5 143.6 120.5C144.1 120.5 144.6 120.4 144.9 120.2C145.3 120 145.4 119.7 145.4 119.2C145.4 118.8 145.2 118.5 144.9 118.3C144.6 118.1 144.2 117.9 143.7 117.8C143.2 117.7 142.8 117.6 142.3 117.4C141.8 117.2 141.4 117 141.1 116.7C140.8 116.4 140.6 115.9 140.6 115.4C140.6 114.7 140.9 114.2 141.4 113.7C141.9 113.3 142.6 113 143.4 113C144.1 113 144.6 113.2 145.1 113.5C145.6 113.8 146 114.2 146.2 114.7L145.3 115.2C145 114.4 144.3 114.1 143.4 114.1C142.9 114.1 142.5 114.2 142.2 114.4C141.9 114.6 141.7 114.9 141.7 115.3ZM148.6 115.3C148.6 115.7 148.8 116 149.1 116.2C149.4 116.4 149.8 116.6 150.3 116.7C150.8 116.8 151.2 117 151.7 117.1C152.2 117.2 152.6 117.5 152.9 117.8C153.2 118.1 153.4 118.6 153.4 119.1C153.4 119.8 153.1 120.4 152.6 120.8C152.1 121.2 151.4 121.4 150.5 121.4C149.7 121.4 149.1 121.2 148.5 120.9C148 120.6 147.6 120.1 147.4 119.6L148.3 119.1C148.5 119.5 148.7 119.9 149.1 120.1C149.5 120.3 150 120.5 150.5 120.5C151 120.5 151.5 120.4 151.8 120.2C152.2 120 152.3 119.7 152.3 119.2C152.3 118.8 152.1 118.5 151.8 118.3C151.5 118.1 151.1 117.9 150.6 117.8C150.1 117.7 149.7 117.6 149.2 117.4C148.7 117.2 148.3 117 148 116.7C147.7 116.4 147.5 115.9 147.5 115.4C147.5 114.7 147.8 114.2 148.3 113.7C148.8 113.3 149.5 113 150.3 113C151 113 151.5 113.2 152 113.5C152.5 113.8 152.9 114.2 153.1 114.7L152.2 115.2C151.9 114.4 151.2 114.1 150.3 114.1C149.8 114.1 149.4 114.2 149.1 114.4C148.7 114.6 148.6 114.9 148.6 115.3ZM158.6 113C159.8 113 160.8 113.4 161.5 114.3C162.2 115.1 162.6 116.1 162.6 117.3C162.6 117.4 162.6 117.6 162.6 117.8H155.5C155.6 118.6 156 119.3 156.5 119.8C157.1 120.3 157.8 120.5 158.7 120.5C159.3 120.5 159.8 120.4 160.3 120.1C160.8 119.8 161.1 119.5 161.3 119.1L162.2 119.7C161.8 120.3 161.4 120.7 160.7 121.1C160.1 121.4 159.4 121.6 158.6 121.6C157.3 121.6 156.3 121.2 155.5 120.4C154.7 119.6 154.3 118.6 154.3 117.4C154.3 116.2 154.7 115.2 155.5 114.4C156.3 113.4 157.4 113 158.6 113ZM158.6 114C157.8 114 157.1 114.3 156.5 114.8C155.9 115.3 155.6 115.9 155.5 116.7H161.5C161.4 115.8 161.1 115.2 160.5 114.7C160 114.3 159.3 114 158.6 114ZM171.3 110H172.4V121.3H171.3V119.7C170.6 120.9 169.5 121.5 168 121.5C166.8 121.5 165.9 121.1 165 120.3C164.2 119.5 163.8 118.5 163.8 117.3C163.8 116.1 164.2 115.1 165 114.3C165.8 113.5 166.8 113.1 168 113.1C169.4 113.1 170.5 113.7 171.3 114.9V110ZM165.8 119.5C166.4 120.1 167.2 120.4 168.1 120.4C169 120.4 169.8 120.1 170.4 119.5C171 118.9 171.3 118.1 171.3 117.2C171.3 116.3 171 115.5 170.4 114.9C169.8 114.3 169 114 168.1 114C167.2 114 166.4 114.3 165.8 114.9C165.2 115.5 164.9 116.3 164.9 117.2C164.9 118.1 165.2 118.9 165.8 119.5ZM180.8 110H181.8V121.3H180.6V111.2L178.1 112L177.8 111L180.8 110ZM191.3 119.9C190.6 121 189.5 121.5 188.1 121.5C186.7 121.5 185.7 121 184.9 119.9C184.2 118.8 183.8 117.4 183.8 115.6C183.8 113.8 184.2 112.4 184.9 111.3C185.7 110.2 186.7 109.7 188.1 109.7C189.5 109.7 190.5 110.2 191.3 111.3C192.1 112.4 192.4 113.8 192.4 115.6C192.4 117.4 192.1 118.8 191.3 119.9ZM185.8 119.1C186.4 119.9 187.1 120.3 188.1 120.3C189.1 120.3 189.9 119.9 190.4 119.1C191 118.3 191.2 117.1 191.2 115.6C191.2 114.1 190.9 112.9 190.4 112.1C189.8 111.3 189.1 110.9 188.1 110.9C187.1 110.9 186.3 111.3 185.8 112.1C185.2 112.9 185 114.1 185 115.6C185 117.1 185.3 118.3 185.8 119.1ZM201.5 119.9C200.8 121 199.7 121.5 198.3 121.5C196.9 121.5 195.9 121 195.1 119.9C194.4 118.8 194 117.4 194 115.6C194 113.8 194.4 112.4 195.1 111.3C195.9 110.2 196.9 109.7 198.3 109.7C199.7 109.7 200.7 110.2 201.5 111.3C202.3 112.4 202.6 113.8 202.6 115.6C202.6 117.4 202.3 118.8 201.5 119.9ZM196 119.1C196.6 119.9 197.3 120.3 198.3 120.3C199.3 120.3 200.1 119.9 200.6 119.1C201.2 118.3 201.4 117.1 201.4 115.6C201.4 114.1 201.1 112.9 200.6 112.1C200 111.3 199.3 110.9 198.3 110.9C197.3 110.9 196.5 111.3 196 112.1C195.4 112.9 195.2 114.1 195.2 115.6C195.2 117.1 195.5 118.3 196 119.1ZM218.2 119.8C217.1 120.9 215.7 121.5 214 121.5C212.3 121.5 211 120.9 209.8 119.8C208.7 118.7 208.1 117.3 208.1 115.6C208.1 113.9 208.7 112.6 209.8 111.5C210.9 110.4 212.3 109.8 214 109.8C215.7 109.8 217 110.4 218.2 111.5C219.3 112.6 219.9 114 219.9 115.6C219.9 117.2 219.3 118.6 218.2 119.8ZM210.6 119C211.5 119.9 212.6 120.4 214 120.4C215.4 120.4 216.5 119.9 217.4 119C218.3 118.1 218.8 116.9 218.8 115.6C218.8 114.3 218.3 113.1 217.4 112.2C216.5 111.3 215.4 110.8 214 110.8C212.6 110.8 211.5 111.3 210.6 112.2C209.7 113.1 209.2 114.2 209.2 115.6C209.3 117 209.7 118.1 210.6 119ZM227.4 113.2H228.5V121.3H227.4V120C226.8 121 225.9 121.5 224.7 121.5C223.7 121.5 222.9 121.2 222.4 120.6C221.8 120 221.6 119.2 221.6 118.2V113.2H222.7V118.2C222.7 118.9 222.9 119.5 223.3 119.9C223.7 120.3 224.2 120.5 224.9 120.5C225.7 120.5 226.3 120.3 226.8 119.8C227.3 119.3 227.5 118.5 227.5 117.5V113.2H227.4ZM235.1 114.2H232.8V119.1C232.8 119.5 232.9 119.9 233.1 120.1C233.3 120.3 233.5 120.4 233.9 120.4C234.2 120.4 234.7 120.4 235.2 120.4V121.3C234.1 121.5 233.2 121.4 232.6 121.1C232 120.8 231.8 120.1 231.8 119.2V114.3H230.1V113.3H231.8V111.4L232.9 111.1V113.4H235.2V114.2H235.1ZM236.8 121.3V109.5H237.9V121.3H236.8ZM243.9 113C245.1 113 246.1 113.4 246.8 114.3C247.5 115.1 247.9 116.1 247.9 117.3C247.9 117.4 247.9 117.6 247.9 117.8H240.8C240.9 118.6 241.3 119.3 241.8 119.8C242.4 120.3 243.1 120.5 244 120.5C244.6 120.5 245.1 120.4 245.6 120.1C246.1 119.8 246.4 119.5 246.6 119.1L247.5 119.7C247.1 120.3 246.7 120.7 246 121.1C245.4 121.4 244.7 121.6 243.9 121.6C242.6 121.6 241.6 121.2 240.8 120.4C240 119.6 239.6 118.6 239.6 117.4C239.6 116.2 240 115.2 240.8 114.4C241.7 113.4 242.7 113 243.9 113ZM243.9 114C243.1 114 242.3 114.3 241.8 114.8C241.2 115.3 240.9 115.9 240.8 116.7H246.8C246.7 115.8 246.4 115.2 245.8 114.7C245.3 114.3 244.7 114 243.9 114ZM253.7 114.2H251.4V119.1C251.4 119.5 251.5 119.9 251.7 120.1C251.9 120.3 252.1 120.4 252.5 120.4C252.8 120.4 253.3 120.4 253.8 120.4V121.3C252.7 121.5 251.8 121.4 251.2 121.1C250.6 120.8 250.4 120.1 250.4 119.2V114.3H248.6V113.3H250.3V111.4L251.4 111.1V113.4H253.7V114.2ZM255.8 115.3C255.8 115.7 256 116 256.3 116.2C256.6 116.4 257 116.6 257.5 116.7C258 116.8 258.4 117 258.9 117.1C259.4 117.2 259.8 117.5 260.1 117.8C260.4 118.1 260.6 118.6 260.6 119.1C260.6 119.8 260.3 120.4 259.8 120.8C259.3 121.2 258.6 121.4 257.7 121.4C256.9 121.4 256.3 121.2 255.7 120.9C255.2 120.6 254.8 120.1 254.6 119.6L255.5 119.1C255.7 119.5 255.9 119.9 256.3 120.1C256.7 120.3 257.2 120.5 257.7 120.5C258.2 120.5 258.7 120.4 259 120.2C259.4 120 259.5 119.7 259.5 119.2C259.5 118.8 259.3 118.5 259 118.3C258.7 118.1 258.3 117.9 257.8 117.8C257.3 117.7 256.9 117.6 256.4 117.4C255.9 117.2 255.5 117 255.2 116.7C254.9 116.4 254.7 115.9 254.7 115.4C254.7 114.7 255 114.2 255.5 113.7C256 113.3 256.7 113 257.5 113C258.2 113 258.7 113.2 259.2 113.5C259.7 113.8 260.1 114.2 260.3 114.7L259.4 115.2C259.1 114.4 258.4 114.1 257.5 114.1C257 114.1 256.6 114.2 256.3 114.4C256 114.6 255.8 114.9 255.8 115.3ZM147.5 140.3L146.4 137.5H141L139.9 140.3H138.7L143.1 129H144.3L148.7 140.3H147.5ZM141.5 136.4H146.1L143.8 130.3L141.5 136.4ZM150 140.3V128.5H151.1V140.3H150ZM153.4 140.3V128.5H154.5V140.3H153.4ZM170.3 138.8C169.2 139.9 167.8 140.5 166.1 140.5C164.5 140.5 163.1 139.9 161.9 138.8C160.8 137.7 160.2 136.3 160.2 134.6C160.2 132.9 160.8 131.6 161.9 130.5C163 129.4 164.4 128.8 166.1 128.8C167.7 128.8 169.1 129.4 170.3 130.5C171.4 131.6 172 133 172 134.6C172 136.2 171.4 137.6 170.3 138.8ZM162.8 138C163.7 138.9 164.8 139.4 166.2 139.4C167.5 139.4 168.7 138.9 169.6 138C170.5 137.1 171 135.9 171 134.6C171 133.3 170.5 132.1 169.6 131.2C168.7 130.3 167.6 129.8 166.2 129.8C164.9 129.8 163.7 130.3 162.8 131.2C161.9 132.1 161.4 133.2 161.4 134.6C161.4 136 161.9 137.1 162.8 138ZM179.6 132.2H180.7L177.4 140.3H176.1L172.8 132.2H173.9L176.7 139.2L179.6 132.2ZM185.5 132C186.7 132 187.7 132.4 188.4 133.3C189.1 134.1 189.5 135.1 189.5 136.3C189.5 136.4 189.5 136.6 189.5 136.8H182.4C182.5 137.6 182.9 138.3 183.4 138.8C184 139.3 184.7 139.5 185.6 139.5C186.2 139.5 186.7 139.4 187.2 139.1C187.7 138.8 188 138.5 188.2 138.1L189.1 138.7C188.7 139.3 188.3 139.7 187.6 140.1C187 140.4 186.3 140.6 185.5 140.6C184.2 140.6 183.2 140.2 182.4 139.4C181.6 138.6 181.2 137.6 181.2 136.4C181.2 135.2 181.6 134.2 182.4 133.4C183.2 132.4 184.2 132 185.5 132ZM185.5 133C184.7 133 184 133.3 183.4 133.8C182.8 134.3 182.5 134.9 182.4 135.7H188.4C188.3 134.8 188 134.2 187.4 133.7C186.8 133.3 186.2 133 185.5 133ZM192.3 133.5C192.8 132.5 193.6 132 194.9 132V133C194.2 133 193.6 133.2 193.1 133.6C192.6 134 192.4 134.7 192.4 135.6V140.1H191.3V132H192.4V133.5H192.3ZM200.5 129H201.6V140.3H200.5V129ZM207.9 132C208.9 132 209.7 132.3 210.2 132.9C210.8 133.5 211.1 134.3 211.1 135.3V140.3H210V135.3C210 134.6 209.8 134 209.4 133.6C209 133.2 208.5 133 207.8 133C207 133 206.4 133.2 205.9 133.7C205.4 134.2 205.2 134.9 205.2 136V140.2H204.1V132.1H205.2V133.4C205.7 132.5 206.6 132 207.9 132ZM220.1 129H221.2V140.3H220.1V138.7C219.4 139.9 218.3 140.5 216.8 140.5C215.6 140.5 214.7 140.1 213.8 139.3C213 138.5 212.6 137.5 212.6 136.3C212.6 135.1 213 134.1 213.8 133.3C214.6 132.5 215.6 132.1 216.8 132.1C218.2 132.1 219.3 132.7 220.1 133.9V129ZM214.6 138.5C215.2 139.1 216 139.4 216.9 139.4C217.8 139.4 218.6 139.1 219.2 138.5C219.8 137.9 220.1 137.1 220.1 136.2C220.1 135.3 219.8 134.5 219.2 133.9C218.6 133.3 217.8 133 216.9 133C216 133 215.2 133.3 214.6 133.9C214 134.5 213.7 135.3 213.7 136.2C213.7 137.1 214 137.9 214.6 138.5ZM224.5 130.3C224.3 130.5 224.2 130.5 223.9 130.5C223.7 130.5 223.5 130.4 223.4 130.3C223.2 130.1 223.2 130 223.2 129.7C223.2 129.4 223.3 129.3 223.4 129.1C223.6 128.9 223.7 128.9 223.9 128.9C224.1 128.9 224.3 129 224.5 129.1C224.7 129.3 224.7 129.4 224.7 129.7C224.7 130 224.6 130.1 224.5 130.3ZM223.4 140.3V132.2H224.5V140.3H223.4ZM233.7 132.2H234.8V140.3H233.7V138.7C233 139.9 231.9 140.5 230.4 140.5C229.2 140.5 228.3 140.1 227.4 139.3C226.6 138.5 226.2 137.5 226.2 136.3C226.2 135.1 226.6 134.1 227.4 133.3C228.2 132.5 229.2 132.1 230.4 132.1C231.8 132.1 232.9 132.7 233.7 133.9V132.2ZM228.2 138.5C228.8 139.1 229.6 139.4 230.5 139.4C231.4 139.4 232.2 139.1 232.8 138.5C233.4 137.9 233.7 137.1 233.7 136.2C233.7 135.3 233.4 134.5 232.8 133.9C232.2 133.3 231.4 133 230.5 133C229.6 133 228.8 133.3 228.2 133.9C227.6 134.5 227.3 135.3 227.3 136.2C227.3 137.1 227.6 137.9 228.2 138.5Z" fill="black"/>
<mask id="mask0_1137_3628" style="mask-type:luminance" maskUnits="userSpaceOnUse" x="298" y="48" width="116" height="116">
<path d="M413.802 48H298.602V163.2H413.802V48Z" fill="white"/>
</mask>
<g mask="url(#mask0_1137_3628)">
<path d="M413.402 105.6C413.402 137.2 387.802 162.7 356.302 162.7C324.802 162.7 299.102 137.1 299.102 105.6C299.102 74.1 324.702 48.5 356.302 48.5C387.902 48.5 413.402 74 413.402 105.6Z" fill="white"/>
<path d="M413.402 105.6C413.402 137.2 387.802 162.7 356.302 162.7C324.802 162.7 299.102 137.1 299.102 105.6C299.102 74.1 324.702 48.5 356.302 48.5C387.902 48.5 413.402 74 413.402 105.6Z" fill="url(#paint1_linear_1137_3628)"/>
<path d="M413.402 105.6C413.402 137.2 387.802 162.7 356.302 162.7C324.802 162.7 299.102 137.1 299.102 105.6C299.102 74.1 324.702 48.5 356.302 48.5C387.902 48.5 413.402 74 413.402 105.6Z" stroke="#85FFBE" stroke-width="0.9"/>
<path d="M340.698 124.699C340.998 124.699 341.398 124.599 341.598 124.299C341.798 124.099 341.998 123.699 341.998 123.399V121.499C341.998 121.299 341.998 121.199 341.898 120.999C341.798 120.799 341.698 120.699 341.598 120.599C341.498 120.499 341.298 120.399 341.198 120.299C340.998 120.199 340.898 120.199 340.698 120.199C340.498 120.199 340.398 120.199 340.198 120.299C339.998 120.399 339.898 120.499 339.798 120.599C339.698 120.699 339.598 120.899 339.498 120.999C339.398 121.199 339.398 121.299 339.398 121.499V123.399C339.398 123.699 339.498 124.099 339.798 124.299C339.998 124.499 340.298 124.699 340.698 124.699Z" fill="white"/>
<path d="M388.198 134.198H386.598V105.498C387.998 105.298 389.198 104.498 390.098 103.498C390.998 102.398 391.498 101.098 391.498 99.6985V95.5984V95.4984V95.3984V95.2985L386.798 86.1985V85.3984H325.598V86.1985L321.098 95.2985V95.3984V95.4984V95.5984V99.6985C321.098 101.098 321.598 102.398 322.498 103.498C323.398 104.598 324.598 105.298 325.998 105.498V134.198H324.198C323.298 134.198 322.498 134.498 321.898 135.198C321.298 135.798 320.898 136.598 320.898 137.498V140.798C320.898 141.198 321.098 141.698 321.398 141.998C321.698 142.298 322.098 142.498 322.598 142.498H389.898C390.298 142.498 390.798 142.298 391.098 141.998C391.398 141.698 391.598 141.298 391.598 140.798V137.498C391.598 136.598 391.298 135.798 390.598 135.198C389.898 134.598 389.098 134.198 388.198 134.198ZM389.398 99.6985C389.398 100.698 388.998 101.698 388.298 102.398C387.598 103.098 386.598 103.498 385.598 103.498C384.598 103.498 383.598 103.098 382.898 102.398C382.198 101.698 381.798 100.698 381.798 99.6985V96.6985H389.498V99.6985H389.398ZM385.098 87.3984L388.698 94.5984H381.398L378.798 87.3984H385.098ZM376.598 87.3984L379.198 94.5984H371.698L370.098 87.3984H376.598ZM379.598 96.6985V99.5984C379.598 100.098 379.498 100.598 379.398 101.098C379.198 101.598 378.898 101.998 378.598 102.398C378.198 102.798 377.798 103.098 377.298 103.298C376.798 103.498 376.298 103.598 375.798 103.598C375.298 103.598 374.798 103.498 374.298 103.298C373.798 103.098 373.398 102.798 372.998 102.398C372.598 101.998 372.398 101.598 372.198 101.098C371.998 100.598 371.898 100.098 371.998 99.5984V96.6985H379.598ZM367.998 87.3984L369.598 94.5984H362.098L361.598 87.3984H367.998ZM369.798 96.6985V99.5984C369.798 100.098 369.698 100.598 369.598 101.098C369.398 101.598 369.098 101.998 368.798 102.398C368.398 102.798 367.998 103.098 367.498 103.298C366.998 103.498 366.498 103.598 365.998 103.598C365.498 103.598 364.998 103.498 364.498 103.298C363.998 103.098 363.598 102.798 363.198 102.398C362.798 101.998 362.598 101.598 362.398 101.098C362.198 100.598 362.098 100.098 362.198 99.5984V96.6985H369.798ZM352.898 87.3984H359.398L359.898 94.5984H352.298L352.898 87.3984ZM352.298 96.6985H359.998V99.5984C359.998 100.598 359.598 101.598 358.898 102.298C358.198 102.998 357.198 103.398 356.198 103.398C355.198 103.398 354.198 102.998 353.498 102.298C352.798 101.598 352.398 100.598 352.398 99.5984V96.6985H352.298ZM344.398 87.3984H350.898L350.398 94.5984H342.898L344.398 87.3984ZM342.598 96.6985H350.298V99.5984C350.298 100.098 350.198 100.598 350.098 101.098C349.898 101.598 349.598 101.998 349.298 102.398C348.898 102.798 348.498 103.098 347.998 103.298C347.498 103.498 346.998 103.598 346.498 103.598C345.998 103.598 345.498 103.498 344.998 103.298C344.498 103.098 344.098 102.798 343.698 102.398C343.298 101.998 343.098 101.598 342.898 101.098C342.698 100.598 342.598 100.098 342.698 99.5984V96.6985H342.598ZM346.398 105.598C347.398 105.598 348.298 105.398 349.198 104.898C350.098 104.498 350.798 103.798 351.298 102.998C351.798 103.798 352.598 104.398 353.398 104.898C354.298 105.398 355.198 105.598 356.198 105.598C357.198 105.598 358.098 105.398 358.998 104.898C359.898 104.398 360.598 103.798 361.098 102.998C361.598 103.798 362.398 104.398 363.198 104.898C364.098 105.398 364.998 105.598 365.998 105.598C366.998 105.598 367.898 105.398 368.798 104.898C369.698 104.398 370.398 103.798 370.898 102.998C371.398 103.798 372.198 104.398 372.998 104.898C373.898 105.398 374.798 105.598 375.798 105.598C376.798 105.598 377.698 105.398 378.598 104.898C379.498 104.398 380.198 103.798 380.698 102.998C381.098 103.598 381.698 104.198 382.398 104.598C383.098 104.998 383.798 105.298 384.598 105.498V134.198H345.598V111.198C345.598 110.898 345.598 110.698 345.498 110.498C345.398 110.298 345.298 109.998 345.098 109.898C344.898 109.698 344.698 109.598 344.498 109.498C344.298 109.398 343.998 109.398 343.798 109.398H331.898C331.598 109.398 331.398 109.398 331.198 109.498C330.998 109.598 330.798 109.698 330.598 109.898C330.398 110.098 330.298 110.298 330.198 110.498C330.098 110.698 330.098 110.998 330.098 111.198V134.198H328.298V105.498C329.098 105.398 329.798 105.098 330.498 104.598C331.198 104.198 331.698 103.598 332.198 102.998C332.698 103.798 333.498 104.398 334.298 104.898C335.198 105.298 336.098 105.598 337.098 105.598C338.098 105.598 338.998 105.398 339.898 104.898C340.798 104.398 341.498 103.798 341.998 102.998C342.498 103.798 343.298 104.398 344.098 104.898C344.498 105.398 345.498 105.598 346.398 105.598ZM343.498 111.398V134.298H331.798V111.498L343.498 111.398ZM332.798 99.6985V96.6985H340.498V99.6985C340.498 100.698 339.998 101.598 339.298 102.298C338.598 102.998 337.598 103.398 336.598 103.398C335.598 103.398 334.698 102.998 333.898 102.298C333.298 101.598 332.798 100.698 332.798 99.6985ZM342.298 87.3984L340.698 94.5984H333.198L335.798 87.3984H342.298ZM327.298 87.3984H333.598L330.998 94.5984H323.598L327.298 87.3984ZM322.998 99.6985V96.6985H330.698V99.6985C330.698 100.198 330.598 100.698 330.398 101.198C330.198 101.698 329.898 102.098 329.598 102.398C329.198 102.798 328.798 102.998 328.398 103.198C327.898 103.398 327.398 103.498 326.898 103.498C326.398 103.498 325.898 103.398 325.398 103.198C324.898 102.998 324.498 102.698 324.198 102.398C323.798 101.998 323.598 101.598 323.398 101.198C323.098 100.698 322.998 100.198 322.998 99.6985ZM389.398 140.298H322.898V137.398C322.898 137.098 322.998 136.798 323.298 136.598C323.498 136.398 323.798 136.198 324.098 136.198H388.198C388.498 136.198 388.798 136.298 388.998 136.598C389.198 136.798 389.398 137.098 389.398 137.398V140.298Z" fill="white"/>
<path d="M349.6 130H379.7C380.3 130 380.8 129.8 381.2 129.4C381.6 129 381.8 128.4 381.8 127.9V111.3C381.8 110.7 381.6 110.2 381.2 109.8C380.8 109.4 380.2 109.2 379.7 109.2H367.1C366.9 109.2 366.7 109.2 366.6 109.3C366.4 109.4 366.3 109.4 366.1 109.6C366 109.7 365.9 109.9 365.8 110C365.7 110.2 365.7 110.3 365.7 110.5C365.7 110.7 365.7 110.9 365.8 111C365.9 111.2 366 111.3 366.1 111.4C366.2 111.5 366.4 111.6 366.6 111.7C366.8 111.8 366.9 111.8 367.1 111.8H379.3V127.6H350V111.6H362.2C362.4 111.6 362.6 111.6 362.7 111.5C362.9 111.4 363 111.4 363.2 111.2C363.3 111.1 363.4 110.9 363.5 110.8C363.6 110.6 363.6 110.5 363.6 110.3C363.6 110.1 363.6 109.9 363.5 109.8C363.4 109.6 363.3 109.5 363.2 109.4C363.1 109.3 362.9 109.2 362.7 109.1C362.5 109 362.4 109 362.2 109H349.6C349 109 348.5 109.2 348.1 109.6C347.7 110 347.5 110.6 347.5 111.1V127.7C347.5 128 347.6 128.3 347.7 128.5C347.8 128.8 348 129 348.2 129.2C348.4 129.4 348.6 129.6 348.9 129.7C349.1 129.9 349.4 130 349.6 130Z" fill="white"/>
<path d="M343.7 69V84.6H340.9V71.7H340.8L338 73.1L337.5 70.9L341.3 69H343.7Z" fill="white"/>
<path d="M355.7 68.8008C352.1 68.8008 350 72.0008 350 76.9008C350 78.0008 350.1 79.1008 350.4 80.2008C350.6 80.9008 350.8 81.6008 351.2 82.3008C351.6 83.1008 352.2 83.8008 353 84.3008C353.8 84.8008 354.7 85.0008 355.6 85.0008C356.5 85.0008 357.4 84.8008 358.2 84.3008C359 83.8008 359.6 83.1008 360.1 82.3008C360.5 81.6008 360.7 81.0008 360.9 80.2008C361.2 79.1008 361.3 77.9008 361.3 76.8008C361.2 72.1008 359.5 68.8008 355.7 68.8008ZM357.9 80.1008C357.8 80.9008 357.4 81.6008 356.8 82.2008C356.5 82.5008 356.1 82.6008 355.6 82.6008C355.2 82.6008 354.8 82.5008 354.4 82.2008C353.8 81.7008 353.4 80.9008 353.2 80.1008C352.9 79.0008 352.8 77.9008 352.9 76.8008C352.9 72.9008 354 71.0008 355.6 71.0008C357.4 71.0008 358.2 73.1008 358.2 76.7008C358.3 77.9008 358.2 79.0008 357.9 80.1008Z" fill="white"/>
<path d="M369.7 68.8008C366.1 68.8008 364 72.0008 364 76.9008C364 78.0008 364.1 79.1008 364.4 80.2008C364.6 80.9008 364.9 81.6008 365.2 82.3008C365.6 83.1008 366.2 83.8008 367 84.3008C367.8 84.8008 368.7 85.0008 369.6 85.0008C370.5 85.0008 371.4 84.8008 372.2 84.3008C373 83.8008 373.6 83.1008 374.1 82.3008C374.5 81.6008 374.7 81.0008 374.9 80.2008C375.2 79.1008 375.3 77.9008 375.3 76.8008C375.2 72.1008 373.4 68.8008 369.7 68.8008ZM371.9 80.1008C371.8 80.9008 371.4 81.6008 370.8 82.2008C370.5 82.5008 370.1 82.6008 369.6 82.6008C369.2 82.6008 368.8 82.5008 368.4 82.2008C367.8 81.7008 367.4 80.9008 367.2 80.1008C367 79.0008 366.8 77.9008 366.9 76.8008C366.9 72.9008 368 71.0008 369.6 71.0008C371.4 71.0008 372.2 73.1008 372.2 76.7008C372.3 77.9008 372.2 79.0008 371.9 80.1008Z" fill="white"/>
</g>
<defs>
<linearGradient id="paint0_linear_1137_3628" x1="263.5" y1="0" x2="263.5" y2="210.632" gradientUnits="userSpaceOnUse">
<stop stop-color="white"/>
<stop offset="1" stop-color="#C7FFE2"/>
</linearGradient>
<linearGradient id="paint1_linear_1137_3628" x1="356.202" y1="48" x2="356.202" y2="163.2" gradientUnits="userSpaceOnUse">
<stop stop-color="#006630"/>
<stop offset="1" stop-color="#138F4C"/>
</linearGradient>
</defs>
</svg>
