<svg width="212" height="316" viewBox="0 0 212 316" fill="none" xmlns="http://www.w3.org/2000/svg">
<path fill-rule="evenodd" clip-rule="evenodd" d="M211.5 0H0V315.8H211.5V182.4V167.5C211.5 162 211.5 162.1 211.5 159.5C211.5 156.9 211.5 157.5 211.5 150.7V133.4V0Z" fill="url(#paint0_linear_1137_3275)"/>
<path d="M80.6976 66.3008V63.9008L86.3976 58.1008C87.6976 56.8008 88.2976 55.7008 88.2976 54.8008C88.2976 54.2008 88.0976 53.6008 87.6976 53.2008C87.2976 52.8008 86.7976 52.6008 86.1976 52.6008C84.9976 52.6008 83.9976 53.2008 83.3976 54.5008L80.5977 52.9008C81.0977 51.8008 81.8976 50.9008 82.7976 50.3008C83.7976 49.7008 84.8976 49.4008 85.9976 49.4008C87.4976 49.4008 88.7976 49.9008 89.8976 50.8008C90.9976 51.7008 91.4976 53.0008 91.4976 54.6008C91.4976 56.3008 90.5976 58.1008 88.7976 59.9008L85.5977 63.1008H91.7976V66.3008H80.6976ZM99.8976 66.6008C97.7976 66.6008 96.1976 65.8008 94.9976 64.3008C93.7976 62.7008 93.1976 60.6008 93.1976 58.0008C93.1976 55.4008 93.7976 53.3008 94.9976 51.7008C96.1976 50.1008 97.7976 49.3008 99.8976 49.3008C101.998 49.3008 103.598 50.1008 104.798 51.7008C105.998 53.3008 106.598 55.3008 106.598 58.0008C106.598 60.6008 105.998 62.7008 104.798 64.3008C103.598 65.8008 101.998 66.6008 99.8976 66.6008ZM97.3976 62.0008C97.9976 62.9008 98.7976 63.4008 99.8976 63.4008C100.998 63.4008 101.898 62.9008 102.398 62.0008C102.998 61.1008 103.298 59.7008 103.298 58.0008C103.298 56.2008 102.998 54.9008 102.398 54.0008C101.798 53.1008 100.998 52.6008 99.8976 52.6008C98.7976 52.6008 97.9976 53.1008 97.3976 54.0008C96.7976 54.9008 96.4976 56.3008 96.4976 58.0008C96.4976 59.7008 96.7976 61.1008 97.3976 62.0008ZM107.598 66.3008V63.9008L113.298 58.1008C114.598 56.8008 115.198 55.7008 115.198 54.8008C115.198 54.2008 114.998 53.6008 114.598 53.2008C114.198 52.8008 113.698 52.6008 113.098 52.6008C111.898 52.6008 110.898 53.2008 110.298 54.5008L107.598 52.9008C108.098 51.8008 108.898 50.9008 109.798 50.3008C110.698 49.7008 111.798 49.4008 112.998 49.4008C114.498 49.4008 115.798 49.9008 116.898 50.8008C117.998 51.7008 118.498 53.0008 118.498 54.6008C118.498 56.3008 117.598 58.1008 115.798 59.9008L112.598 63.1008H118.798V66.3008H107.598ZM120.098 66.3008V63.9008L125.798 58.1008C127.098 56.8008 127.698 55.7008 127.698 54.8008C127.698 54.2008 127.498 53.6008 127.098 53.2008C126.698 52.8008 126.198 52.6008 125.598 52.6008C124.398 52.6008 123.398 53.2008 122.798 54.5008L119.998 52.9008C120.498 51.8008 121.298 50.9008 122.198 50.3008C123.098 49.7008 124.298 49.4008 125.398 49.4008C126.898 49.4008 128.198 49.9008 129.298 50.8008C130.398 51.7008 130.898 53.0008 130.898 54.6008C130.898 56.3008 129.998 58.1008 128.198 59.9008L124.998 63.1008H131.198V66.3008H120.098Z" fill="black"/>
<path d="M52.7001 92.2992H58.2001V93.3992H51.5V81.4992H52.7001V92.2992ZM66.6001 84.8992H67.7001V93.3992H66.6001V91.6992C65.8001 92.9992 64.7001 93.5992 63.2001 93.5992C62.0001 93.5992 61.0001 93.1992 60.1001 92.2992C59.3001 91.3992 58.8 90.3992 58.8 89.0992C58.8 87.7992 59.2001 86.7992 60.1001 85.8992C61.0001 84.9992 62.0001 84.5992 63.2001 84.5992C64.7001 84.5992 65.9001 85.1992 66.6001 86.4992V84.8992ZM60.9 91.4992C61.6 92.0992 62.3 92.4992 63.3 92.4992C64.2 92.4992 65.0001 92.1992 65.7001 91.4992C66.3001 90.7992 66.7001 89.9992 66.7001 89.0992C66.7001 88.1992 66.4001 87.3992 65.7001 86.6992C65.0001 85.9992 64.3 85.6992 63.3 85.6992C62.4 85.6992 61.6 85.9992 60.9 86.6992C60.2 87.2992 59.9 88.0992 59.9 89.0992C59.9 90.0992 60.2 90.8992 60.9 91.4992ZM78.9 81.4992C80 81.4992 80.9001 81.8992 81.6001 82.5992C82.3001 83.2992 82.7001 84.1992 82.7001 85.2992C82.7001 86.3992 82.3001 87.2992 81.6001 87.9992C80.9001 88.6992 80 89.0992 78.9 89.0992H75.8V93.4992H74.6001V81.4992H78.9ZM78.9 87.7992C79.6 87.7992 80.2001 87.5992 80.7001 87.0992C81.2001 86.5992 81.4 85.9992 81.4 85.1992C81.4 84.3992 81.2001 83.7992 80.7001 83.2992C80.2001 82.7992 79.6 82.4992 78.9 82.4992H75.8V87.7992H78.9ZM85.6001 82.7992C85.4001 82.9992 85.3 82.9992 85 82.9992C84.7 82.9992 84.6 82.8992 84.4 82.7992C84.2 82.5992 84.2001 82.3992 84.2001 82.1992C84.2001 81.9992 84.3 81.7992 84.4 81.5992C84.6 81.3992 84.7 81.3992 85 81.3992C85.3 81.3992 85.4001 81.4992 85.6001 81.5992C85.8001 81.7992 85.8 81.9992 85.8 82.1992C85.8 82.3992 85.8001 82.6992 85.6001 82.7992ZM84.5 93.3992V84.8992H85.6001V93.3992H84.5ZM92 84.6992C93 84.6992 93.8 84.9992 94.4 85.6992C95 86.2992 95.3 87.1992 95.3 88.1992V93.3992H94.2001V88.1992C94.2001 87.3992 94.0001 86.7992 93.6001 86.3992C93.2001 85.9992 92.6 85.7992 91.9 85.7992C91.1 85.7992 90.4 86.0992 89.9 86.5992C89.4 87.0992 89.1001 87.8992 89.1001 88.9992V93.4992H88V84.9992H89.1001V86.2992C89.7001 85.1992 90.7 84.6992 92 84.6992ZM104.6 92.2992C103.7 93.1992 102.7 93.5992 101.4 93.5992C100.1 93.5992 99.1001 93.1992 98.2001 92.2992C97.3001 91.3992 96.9 90.3992 96.9 89.0992C96.9 87.7992 97.3001 86.7992 98.2001 85.8992C99.1001 84.9992 100.1 84.5992 101.4 84.5992C102.7 84.5992 103.7 84.9992 104.6 85.8992C105.5 86.7992 105.9 87.7992 105.9 89.0992C105.9 90.3992 105.5 91.4992 104.6 92.2992ZM99.1001 91.4992C99.7001 92.0992 100.5 92.4992 101.5 92.4992C102.4 92.4992 103.2 92.1992 103.9 91.4992C104.5 90.7992 104.9 89.9992 104.9 89.0992C104.9 88.1992 104.6 87.3992 103.9 86.6992C103.2 85.9992 102.5 85.6992 101.5 85.6992C100.6 85.6992 99.8001 85.9992 99.1001 86.6992C98.4001 87.2992 98.1001 88.0992 98.1001 89.0992C98.1001 90.0992 98.4001 90.8992 99.1001 91.4992ZM108.5 81.4992L107.5 85.2992H106.5L107.2 81.4992H108.5ZM112 92.2992H116.9V93.3992H110.4V92.5992L115.1 85.8992H110.5V84.7992H116.6V85.5992L112 92.2992ZM134.6 87.6992V88.2992C134.6 89.7992 134.1 90.9992 133 92.0992C131.9 93.0992 130.5 93.5992 128.8 93.5992C127 93.5992 125.5 92.9992 124.3 91.7992C123.1 90.5992 122.5 89.0992 122.5 87.3992C122.5 85.6992 123.1 84.1992 124.3 82.9992C125.5 81.7992 127 81.1992 128.8 81.1992C129.9 81.1992 130.9 81.4992 131.8 81.9992C132.7 82.4992 133.4 83.1992 133.9 84.0992L132.8 84.6992C132.4 83.9992 131.9 83.3992 131.1 82.9992C130.3 82.5992 129.5 82.3992 128.7 82.3992C127.2 82.3992 126 82.8992 125.1 83.7992C124.2 84.7992 123.7 85.9992 123.7 87.3992C123.7 88.7992 124.2 89.9992 125.1 90.9992C126 91.9992 127.3 92.3992 128.7 92.3992C130 92.3992 131.1 92.0992 131.9 91.3992C132.7 90.6992 133.2 89.8992 133.3 88.7992H128.6V87.6992H134.6ZM143.6 92.2992C142.7 93.1992 141.7 93.5992 140.4 93.5992C139.1 93.5992 138.1 93.1992 137.2 92.2992C136.3 91.3992 135.9 90.3992 135.9 89.0992C135.9 87.7992 136.3 86.7992 137.2 85.8992C138.1 84.9992 139.1 84.5992 140.4 84.5992C141.7 84.5992 142.7 84.9992 143.6 85.8992C144.5 86.7992 144.9 87.7992 144.9 89.0992C144.9 90.3992 144.5 91.4992 143.6 92.2992ZM138 91.4992C138.7 92.0992 139.4 92.4992 140.4 92.4992C141.3 92.4992 142.1 92.1992 142.8 91.4992C143.5 90.7992 143.8 89.9992 143.8 89.0992C143.8 88.1992 143.5 87.3992 142.8 86.6992C142.1 85.9992 141.3 85.6992 140.4 85.6992C139.5 85.6992 138.7 85.9992 138 86.6992C137.4 87.2992 137 88.0992 137 89.0992C137.1 90.0992 137.4 90.8992 138 91.4992ZM150.7 84.6992C152 84.6992 153 85.0992 153.8 85.9992C154.6 86.8992 155 87.8992 155 89.1992C155 89.2992 155 89.4992 155 89.6992H147.5C147.6 90.5992 148 91.2992 148.6 91.7992C149.2 92.2992 150 92.5992 150.9 92.5992C151.5 92.5992 152.1 92.4992 152.6 92.1992C153.1 91.8992 153.4 91.5992 153.7 91.0992L154.7 91.6992C154.3 92.2992 153.8 92.7992 153.2 93.0992C152.6 93.3992 151.8 93.5992 151 93.5992C149.7 93.5992 148.6 93.1992 147.7 92.2992C146.9 91.4992 146.4 90.3992 146.4 89.0992C146.4 87.7992 146.8 86.7992 147.6 85.8992C148.4 84.9992 149.4 84.6992 150.7 84.6992ZM150.7 85.7992C149.8 85.7992 149.1 86.0992 148.5 86.5992C147.9 87.0992 147.6 87.7992 147.5 88.5992H153.9C153.8 87.6992 153.4 86.9992 152.9 86.4992C152.2 85.9992 151.5 85.7992 150.7 85.7992ZM157.3 87.0992C157.3 87.4992 157.5 87.7992 157.8 87.9992C158.1 88.1992 158.6 88.3992 159 88.4992C159.5 88.5992 160 88.7992 160.5 88.8992C161 88.9992 161.4 89.2992 161.7 89.6992C162 90.0992 162.2 90.4992 162.2 91.0992C162.2 91.7992 161.9 92.3992 161.3 92.8992C160.7 93.3992 160 93.5992 159.1 93.5992C158.3 93.5992 157.6 93.3992 157 93.0992C156.4 92.6992 156 92.2992 155.8 91.6992L156.8 91.0992C157 91.4992 157.2 91.8992 157.7 92.1992C158.1 92.4992 158.6 92.5992 159.2 92.5992C159.8 92.5992 160.2 92.4992 160.6 92.2992C161 92.0992 161.2 91.6992 161.2 91.2992C161.2 90.8992 161 90.5992 160.7 90.3992C160.4 90.1992 159.9 89.9992 159.5 89.8992C159 89.7992 158.5 89.5992 158 89.4992C157.5 89.2992 157.1 89.0992 156.8 88.6992C156.5 88.2992 156.3 87.8992 156.3 87.2992C156.3 86.5992 156.6 85.9992 157.1 85.5992C157.7 85.0992 158.4 84.8992 159.2 84.8992C159.9 84.8992 160.5 85.0992 161 85.3992C161.5 85.6992 161.9 86.0992 162.2 86.6992L161.3 87.1992C161 86.3992 160.3 85.9992 159.3 85.9992C158.8 85.9992 158.4 86.0992 158 86.3992C157.5 86.2992 157.3 86.6992 157.3 87.0992ZM58.4 101.499H59.6001V113.399H58.4V101.499ZM66.1001 104.699C67.1001 104.699 67.9 104.999 68.5 105.699C69.1 106.299 69.4 107.199 69.4 108.199V113.399H68.3V108.199C68.3 107.399 68.1001 106.799 67.7001 106.399C67.3001 105.999 66.7 105.799 66 105.799C65.2 105.799 64.5 106.099 64 106.599C63.5 107.099 63.2001 107.899 63.2001 108.999V113.499H62.1001V104.999H63.2001V106.299C63.9001 105.199 64.9001 104.699 66.1001 104.699ZM76.2001 105.999H73.7001V111.199C73.7001 111.699 73.8 111.999 74 112.199C74.2 112.399 74.5 112.499 74.8 112.499C75.2 112.499 75.6001 112.499 76.2001 112.499V113.499C75.0001 113.699 74.1 113.599 73.5 113.199C72.9 112.799 72.6001 112.199 72.6001 111.199V105.999H70.8V104.899H72.6001V102.899L73.7001 102.599V104.999H76.2001V105.999ZM81.5 104.699C82.8 104.699 83.8001 105.099 84.6001 105.999C85.4001 106.899 85.8 107.899 85.8 109.199C85.8 109.299 85.8 109.499 85.8 109.699H78.3C78.4 110.599 78.8 111.299 79.4 111.799C80 112.299 80.8001 112.599 81.7001 112.599C82.3001 112.599 82.9 112.499 83.4 112.199C83.9 111.899 84.2 111.599 84.5 111.099L85.5 111.699C85.1 112.299 84.6 112.799 84 113.099C83.3 113.499 82.6 113.599 81.8 113.599C80.5 113.599 79.4 113.199 78.5 112.299C77.7 111.499 77.2001 110.399 77.2001 109.099C77.2001 107.799 77.6 106.799 78.4 105.899C79.1 105.099 80.2 104.699 81.5 104.699ZM81.5 105.799C80.6 105.799 79.9 106.099 79.3 106.599C78.7 107.099 78.4001 107.799 78.2001 108.599H84.6001C84.5001 107.699 84.1001 106.999 83.6001 106.499C82.9001 105.999 82.3 105.799 81.5 105.799ZM88.6001 106.299C89.1001 105.299 90 104.699 91.3 104.699V105.799C90.5 105.799 89.9 105.999 89.4 106.499C88.9 106.999 88.6001 107.699 88.6001 108.599V113.299H87.5V104.799H88.6001V106.299ZM96.9 104.699C97.9 104.699 98.7 104.999 99.3 105.699C99.9 106.299 100.2 107.199 100.2 108.199V113.399H99.1001V108.199C99.1001 107.399 98.9 106.799 98.5 106.399C98.1 105.999 97.5 105.799 96.8 105.799C96 105.799 95.3 106.099 94.8 106.599C94.3 107.099 94 107.899 94 108.999V113.499H92.9V104.999H94V106.299C94.6 105.199 95.6 104.699 96.9 104.699ZM109.7 104.899H110.8V113.399H109.7V111.699C108.9 112.899 107.8 113.599 106.3 113.599C105.1 113.599 104 113.199 103.2 112.299C102.4 111.399 101.9 110.399 101.9 109.099C101.9 107.799 102.3 106.799 103.2 105.899C104.1 104.999 105.1 104.599 106.3 104.599C107.8 104.599 109 105.199 109.7 106.499V104.899ZM104 111.499C104.6 112.099 105.4 112.499 106.4 112.499C107.3 112.499 108.1 112.199 108.8 111.499C109.5 110.799 109.8 109.999 109.8 109.099C109.8 108.199 109.5 107.399 108.8 106.699C108.2 105.999 107.4 105.699 106.4 105.699C105.5 105.699 104.7 105.999 104 106.699C103.3 107.299 103 108.099 103 109.099C103 110.099 103.3 110.899 104 111.499ZM117.7 105.999H115.2V111.199C115.2 111.699 115.3 111.999 115.5 112.199C115.7 112.399 115.9 112.499 116.3 112.499C116.7 112.499 117.1 112.499 117.7 112.499V113.499C116.5 113.699 115.6 113.599 115 113.199C114.4 112.799 114.1 112.199 114.1 111.199V105.999H112.3V104.899H114.1V102.899L115.2 102.599V104.999H117.7V105.999ZM120.8 102.799C120.6 102.999 120.5 102.999 120.2 102.999C119.9 102.999 119.8 102.899 119.6 102.799C119.4 102.599 119.4 102.399 119.4 102.199C119.4 101.999 119.5 101.799 119.6 101.599C119.8 101.399 119.9 101.399 120.2 101.399C120.5 101.399 120.6 101.499 120.8 101.599C121 101.799 121 101.999 121 102.199C121 102.399 120.9 102.699 120.8 102.799ZM119.6 113.399V104.899H120.7V113.399H119.6ZM130.3 112.299C129.4 113.199 128.4 113.599 127.1 113.599C125.8 113.599 124.8 113.199 123.9 112.299C123 111.399 122.6 110.399 122.6 109.099C122.6 107.799 123 106.799 123.9 105.899C124.8 104.999 125.8 104.599 127.1 104.599C128.4 104.599 129.4 104.999 130.3 105.899C131.2 106.799 131.6 107.799 131.6 109.099C131.6 110.399 131.1 111.499 130.3 112.299ZM124.7 111.499C125.4 112.099 126.1 112.499 127.1 112.499C128 112.499 128.8 112.199 129.5 111.499C130.2 110.799 130.5 109.999 130.5 109.099C130.5 108.199 130.2 107.399 129.5 106.699C128.9 105.999 128.1 105.699 127.1 105.699C126.2 105.699 125.4 105.999 124.7 106.699C124.1 107.299 123.7 108.099 123.7 109.099C123.7 110.099 124.1 110.899 124.7 111.499ZM137.5 104.699C138.5 104.699 139.3 104.999 139.9 105.699C140.5 106.299 140.8 107.199 140.8 108.199V113.399H139.7V108.199C139.7 107.399 139.5 106.799 139.1 106.399C138.7 105.999 138.1 105.799 137.4 105.799C136.6 105.799 135.9 106.099 135.4 106.599C134.9 107.099 134.6 107.899 134.6 108.999V113.499H133.5V104.999H134.6V106.299C135.2 105.199 136.2 104.699 137.5 104.699ZM150.3 104.899H151.4V113.399H150.3V111.699C149.5 112.899 148.4 113.599 146.9 113.599C145.7 113.599 144.6 113.199 143.8 112.299C142.9 111.399 142.5 110.399 142.5 109.099C142.5 107.799 142.9 106.799 143.8 105.899C144.7 104.999 145.7 104.599 146.9 104.599C148.4 104.599 149.6 105.199 150.3 106.499V104.899ZM144.6 111.499C145.2 112.099 146 112.499 147 112.499C147.9 112.499 148.7 112.199 149.4 111.499C150 110.799 150.4 109.999 150.4 109.099C150.4 108.199 150.1 107.399 149.4 106.699C148.7 105.999 148 105.699 147 105.699C146.1 105.699 145.3 105.999 144.6 106.699C143.9 107.299 143.6 108.099 143.6 109.099C143.6 110.099 143.9 110.899 144.6 111.499ZM153.8 113.399V100.899H154.9V113.299H153.8V113.399Z" fill="black"/>
<mask id="mask0_1137_3275" style="mask-type:luminance" maskUnits="userSpaceOnUse" x="45" y="149" width="122" height="123">
<path d="M166.3 149.801H45V271.101H166.3V149.801Z" fill="white"/>
</mask>
<g mask="url(#mask0_1137_3275)">
<path d="M165.798 210.399C165.798 243.599 138.899 270.599 105.599 270.599C72.3985 270.599 45.3984 243.699 45.3984 210.399C45.3984 177.199 72.2985 150.199 105.599 150.199C138.899 150.299 165.798 177.199 165.798 210.399Z" fill="white"/>
<path d="M165.798 210.399C165.798 243.599 138.899 270.599 105.599 270.599C72.3985 270.599 45.3984 243.699 45.3984 210.399C45.3984 177.199 72.2985 150.199 105.599 150.199C138.899 150.299 165.798 177.199 165.798 210.399Z" fill="url(#paint1_linear_1137_3275)"/>
<path d="M165.798 210.399C165.798 243.599 138.899 270.599 105.599 270.599C72.3985 270.599 45.3984 243.699 45.3984 210.399C45.3984 177.199 72.2985 150.199 105.599 150.199C138.899 150.299 165.798 177.199 165.798 210.399Z" stroke="#85FFBE" stroke-width="0.9474"/>
<path d="M143.6 178.2C142.2 176.5 139.3 175.1 133.1 178.4C129.4 180.4 120.9 187.2 120.5 187.5C120.3 187.6 120.2 187.6 120 187.6L88.2001 181C87.7001 180.9 87.2 180.9 86.8 181.1C86.4 181.3 85.9001 181.5 85.6001 181.8L83.1001 184.2C82.9001 184.4 82.7001 184.7 82.6001 184.9C82.5001 185.2 82.5 185.5 82.5 185.8C82.5 186.1 82.6 186.4 82.8 186.7C83 187 83.2 187.2 83.4 187.3L104.2 200.8L94.9 208.4C94.7 208.5 94.6 208.5 94.4 208.6L81.5 206.2C81 206.1 80.5001 206.2 80.1001 206.3C79.6001 206.5 79.2 206.7 78.9 207.1L78 208.2C77.8 208.4 77.7001 208.7 77.6001 209C77.5001 209.3 77.5 209.6 77.5 209.9C77.5 210.2 77.6 210.5 77.8 210.7C78 210.9 78.2 211.2 78.4 211.3C84.3 215.4 90.8001 220.2 91.6001 221C92.2001 221.9 95.5 229.3 98.4 235.8C98.6 236.2 98.8001 236.5 99.2001 236.7C99.5001 236.9 99.9 237.1 100.3 237.1C100.6 237.1 101 237 101.3 236.8L102.5 236.1C102.9 235.8 103.3 235.5 103.6 235.1C103.9 234.7 104 234.2 104 233.7L104.2 220.6C104.2 220.4 104.3 220.3 104.4 220.1L113.7 212.5L122.7 235.6C122.8 235.9 123 236.2 123.2 236.4C123.4 236.6 123.7 236.8 124 236.9C124.3 237 124.6 237 124.9 237C125.2 237 125.5 236.8 125.7 236.7L128.5 234.7C128.9 234.4 129.2 234 129.4 233.6C129.6 233.2 129.7 232.7 129.8 232.2L129.7 199.7C129.7 199.5 129.8 199.4 129.9 199.2C130.2 198.9 138.6 192 141.3 188.7C145.8 183.1 145 180 143.6 178.2ZM139.3 186.9C136.8 190 128.3 197 128.2 197.1C127.9 197.4 127.6 197.8 127.4 198.2C127.2 198.6 127.1 199.1 127.1 199.6L127.2 232.1C127.2 232.2 127.1 232.3 127 232.4L124.8 234L115.7 210.7C115.6 210.4 115.4 210.1 115.2 209.9C115 209.7 114.7 209.5 114.4 209.5C114.1 209.4 113.8 209.4 113.5 209.5C113.2 209.6 112.9 209.7 112.7 209.9L102.7 218.1C102 218.7 101.6 219.6 101.5 220.5L101.2 233.6C101.2 233.7 101.1 233.8 101.1 233.8L100.3 234.2C98.3 229.6 94.1 220.1 93.4 219.2C92.6 218.3 84.2001 212.3 80.1001 209.4L80.6001 208.8C80.7001 208.8 80.7 208.7 80.8 208.7L93.7001 211.1C94.2001 211.2 94.6001 211.1 95.1001 211C95.5001 210.9 96 210.7 96.3 210.4L106.3 202.3C106.5 202.1 106.7 201.9 106.9 201.6C107 201.3 107.1 201 107.1 200.7C107.1 200.4 107 200.1 106.8 199.8C106.6 199.5 106.4 199.3 106.1 199.2L85.2001 185.7L87.2001 183.8C87.3001 183.7 87.4001 183.7 87.6001 183.7L119.4 190.3C119.9 190.4 120.3 190.4 120.8 190.2C121.3 190.1 121.7 189.9 122.1 189.6C122.2 189.5 130.7 182.6 134.2 180.8C136.3 179.7 140.1 178.1 141.5 179.9V180C143.2 181.7 140.9 185.1 139.3 186.9Z" fill="white"/>
<path d="M67.9 226.301C68.2 226.301 68.5 226.201 68.7 226.001L74.7 221.101C74.9 220.901 75.1 220.601 75.1 220.201C75.1 219.901 75 219.501 74.8 219.301C74.6 219.001 74.2999 218.901 73.9999 218.801C73.6999 218.801 73.3 218.801 73.1 219.001L67.1 223.901C66.9 224.101 66.7 224.301 66.7 224.601C66.6 224.901 66.6 225.101 66.7 225.401C66.8 225.701 66.9 225.901 67.2 226.001C67.3 226.201 67.6 226.301 67.9 226.301Z" fill="white"/>
<path d="M87.8984 237.198L81.8984 242.098C81.5984 242.298 81.4984 242.598 81.3984 242.998C81.3984 243.298 81.4985 243.698 81.6985 243.998C81.7985 244.098 81.9985 244.298 82.0985 244.298C82.2985 244.398 82.4985 244.398 82.6985 244.398C82.9985 244.398 83.2984 244.298 83.4984 244.098L89.5985 239.198C89.6985 239.098 89.8984 238.998 89.8984 238.798C89.9984 238.598 89.9985 238.498 90.0985 238.298C90.0985 238.098 90.0985 237.898 90.0985 237.798C90.0985 237.598 89.9984 237.498 89.8984 237.298C89.7984 237.198 89.6984 237.098 89.4984 236.998C89.2984 236.898 89.1984 236.898 88.9984 236.898C88.7984 236.898 88.5984 236.898 88.4984 236.998C88.1984 236.998 87.9984 237.098 87.8984 237.198Z" fill="white"/>
<path d="M82.2985 228.398C82.0985 228.098 81.7984 227.998 81.3984 227.898C81.0984 227.898 80.6984 227.998 80.4984 228.198L67.3984 238.898C67.2984 238.998 67.0985 239.098 67.0985 239.298C66.9985 239.498 66.8984 239.598 66.8984 239.798C66.8984 239.998 66.8984 240.198 66.8984 240.298C66.8984 240.498 66.9985 240.598 67.0985 240.798C67.1985 240.898 67.2984 240.998 67.4984 241.098C67.6984 241.198 67.7984 241.198 67.9984 241.198C68.1984 241.198 68.3984 241.198 68.4984 241.098C68.6984 240.998 68.7984 240.998 68.9984 240.798L82.0985 230.098C82.3985 229.898 82.4985 229.598 82.5985 229.198C82.5985 228.998 82.4985 228.598 82.2985 228.398Z" fill="white"/>
</g>
<defs>
<linearGradient id="paint0_linear_1137_3275" x1="-16.959" y1="157.926" x2="240.589" y2="157.926" gradientUnits="userSpaceOnUse">
<stop stop-color="white"/>
<stop offset="1" stop-color="#C6FFE1"/>
</linearGradient>
<linearGradient id="paint1_linear_1137_3275" x1="105.639" y1="149.815" x2="105.639" y2="271.078" gradientUnits="userSpaceOnUse">
<stop stop-color="#006630"/>
<stop offset="1" stop-color="#138F4C"/>
</linearGradient>
</defs>
</svg>
